<svg xmlns="http://www.w3.org/2000/svg" xmlns:xlink="http://www.w3.org/1999/xlink" width="353.001" height="130" viewBox="0 0 353.001 130">
  <defs>
    <radialGradient id="radial-gradient" cx="-98.818" cy="-174.801" r="563.925" gradientTransform="translate(0.201) scale(0.598 1)" gradientUnits="objectBoundingBox">
      <stop offset="0" stop-color="#1b3e57"/>
      <stop offset="1" stop-color="#0d1d29"/>
    </radialGradient>
    <radialGradient id="radial-gradient-2" cx="-79.525" cy="-121.796" r="369.685" gradientTransform="translate(0.169) scale(0.661 1)" xlink:href="#radial-gradient"/>
    <radialGradient id="radial-gradient-3" cx="0.569" cy="0.58" r="0.613" gradientTransform="translate(0)" xlink:href="#radial-gradient"/>
    <linearGradient id="linear-gradient" x1="0.054" y1="0.993" x2="0.935" y2="0.139" gradientUnits="objectBoundingBox">
      <stop offset="0" stop-color="#0d1d29"/>
      <stop offset="1" stop-color="#1b3e57"/>
    </linearGradient>
    <linearGradient id="linear-gradient-2" x1="0.16" y1="0.871" x2="0.935" y2="0.242" xlink:href="#linear-gradient"/>
    <linearGradient id="linear-gradient-3" x1="-0.029" y1="0.866" x2="1.006" y2="0.153" xlink:href="#linear-gradient"/>
    <linearGradient id="linear-gradient-4" x1="-0.007" y1="0.745" x2="0.828" y2="0.28" xlink:href="#linear-gradient"/>
    <linearGradient id="linear-gradient-5" x1="0.112" y1="0.813" x2="0.882" y2="0.188" xlink:href="#linear-gradient"/>
    <linearGradient id="linear-gradient-6" x1="-0.158" y1="0.79" x2="1.079" y2="0.152" xlink:href="#linear-gradient"/>
    <linearGradient id="linear-gradient-7" x1="0.16" y1="0.871" x2="0.935" y2="0.242" xlink:href="#linear-gradient"/>
    <linearGradient id="linear-gradient-8" x1="-0.211" y1="0.721" x2="1.076" y2="0.322" xlink:href="#linear-gradient"/>
    <linearGradient id="linear-gradient-9" x1="-0.009" y1="0.74" x2="0.765" y2="0.264" xlink:href="#linear-gradient"/>
    <linearGradient id="linear-gradient-10" x1="0" y1="0.5" x2="1" y2="0.5" xlink:href="#linear-gradient"/>
    <linearGradient id="linear-gradient-11" x1="0" y1="0.5" x2="1" y2="0.5" xlink:href="#linear-gradient"/>
    <linearGradient id="linear-gradient-15" x1="0" y1="0.5" x2="1" y2="0.5" xlink:href="#linear-gradient"/>
  </defs>
  <g id="Masteralb.com_LOGO" data-name="Masteralb.com LOGO" transform="translate(-599.999 -1161)">
    <g id="Vector_Smart_Object" data-name="Vector Smart Object" transform="translate(654 1273)" style="mix-blend-mode: soft-light;isolation: isolate">
      <g id="Vector_Smart_Object-2" data-name="Vector Smart Object">
        <g id="Vector_Smart_Object-3" data-name="Vector Smart Object" transform="translate(-801.058 -337.341)">
          <g id="Group_1" data-name="Group 1">
            <path id="Path_1" data-name="Path 1" d="M809.386,342.7a.788.788,0,0,1,.281-.612,1.09,1.09,0,0,1,1.384,0,.777.777,0,0,1,.281.612v8.053a2.451,2.451,0,0,0,.255,1.095,2.9,2.9,0,0,0,.67.9,3.177,3.177,0,0,0,1.009.612,3.574,3.574,0,0,0,2.481,0,3.23,3.23,0,0,0,1.02-.612,2.864,2.864,0,0,0,.7-.9,2.447,2.447,0,0,0,.251-1.095V342.7a.788.788,0,0,1,.281-.612,1.007,1.007,0,0,1,.7-.248.992.992,0,0,1,.685.248.773.773,0,0,1,.288.612v8.053a4.061,4.061,0,0,1-.408,1.777,4.6,4.6,0,0,1-1.1,1.446,5.342,5.342,0,0,1-1.632.972,5.533,5.533,0,0,1-2.015.361,5.377,5.377,0,0,1-2.382-.515,5.24,5.24,0,0,1-1.792-1.375,4.983,4.983,0,0,1-1.759,1.375,5.435,5.435,0,0,1-2.393.515,5.6,5.6,0,0,1-2.011-.361,5.431,5.431,0,0,1-1.632-.972,4.426,4.426,0,0,1-1.082-1.446,4.049,4.049,0,0,1-.393-1.777V342.7a.769.769,0,0,1,.284-.612,1.085,1.085,0,0,1,1.381,0,.769.769,0,0,1,.284.612v8.053a2.494,2.494,0,0,0,.248,1.095,2.917,2.917,0,0,0,.678.9,3.142,3.142,0,0,0,1,.612,3.418,3.418,0,0,0,1.242.222,3.273,3.273,0,0,0,2.219-.8,2.787,2.787,0,0,0,.991-2.029Z" fill="#818386"/>
            <path id="Path_2" data-name="Path 2" d="M829.873,342.7a.769.769,0,0,1,.284-.612.991.991,0,0,1,.692-.248,1.007,1.007,0,0,1,.689.248.769.769,0,0,1,.284.612v8.053a2.4,2.4,0,0,0,.251,1.095,2.8,2.8,0,0,0,.674.9,3.044,3.044,0,0,0,1.005.612,3.574,3.574,0,0,0,2.481,0,3.29,3.29,0,0,0,1.024-.612,2.853,2.853,0,0,0,.692-.9,2.444,2.444,0,0,0,.248-1.095V342.7a.792.792,0,0,1,.284-.612,1,1,0,0,1,.692-.248,1.01,1.01,0,0,1,.692.248.777.777,0,0,1,.281.612v8.053a3.962,3.962,0,0,1-.408,1.777,4.585,4.585,0,0,1-1.1,1.446,5.343,5.343,0,0,1-1.632.972,5.556,5.556,0,0,1-2.011.361,5.408,5.408,0,0,1-2.39-.515,5.311,5.311,0,0,1-1.792-1.375,4.951,4.951,0,0,1-1.76,1.375,5.414,5.414,0,0,1-2.386.515,5.541,5.541,0,0,1-2.011-.361,5.36,5.36,0,0,1-1.636-.972,4.425,4.425,0,0,1-1.082-1.446,4.1,4.1,0,0,1-.39-1.777V342.7a.777.777,0,0,1,.281-.612.994.994,0,0,1,.688-.248,1.019,1.019,0,0,1,.7.248.785.785,0,0,1,.277.612v8.053a2.5,2.5,0,0,0,.255,1.095,2.963,2.963,0,0,0,.674.9,3.143,3.143,0,0,0,1,.612,3.451,3.451,0,0,0,1.246.222,3.286,3.286,0,0,0,2.219-.8,2.783,2.783,0,0,0,.987-2.029Z" fill="#818386"/>
            <path id="Path_3" data-name="Path 3" d="M850.357,342.7a.769.769,0,0,1,.284-.612,1,1,0,0,1,.692-.248.988.988,0,0,1,.689.248.769.769,0,0,1,.284.612v8.053a2.5,2.5,0,0,0,.251,1.095,2.906,2.906,0,0,0,.674.9,3.1,3.1,0,0,0,1.009.612,3.377,3.377,0,0,0,1.242.222,3.338,3.338,0,0,0,1.235-.222,3.207,3.207,0,0,0,1.024-.612,2.7,2.7,0,0,0,.692-.9,2.4,2.4,0,0,0,.255-1.095V342.7a.8.8,0,0,1,.277-.612,1.022,1.022,0,0,1,.7-.248,1.007,1.007,0,0,1,.689.248.785.785,0,0,1,.277.612v8.053a3.958,3.958,0,0,1-.4,1.777,4.6,4.6,0,0,1-1.1,1.446,5.28,5.28,0,0,1-1.628.972,5.584,5.584,0,0,1-2.011.361,5.408,5.408,0,0,1-2.39-.515,5.275,5.275,0,0,1-1.792-1.375,4.9,4.9,0,0,1-1.763,1.375,5.376,5.376,0,0,1-2.382.515,5.547,5.547,0,0,1-2.015-.361,5.367,5.367,0,0,1-1.628-.972,4.447,4.447,0,0,1-1.089-1.446,4.15,4.15,0,0,1-.39-1.777V342.7a.777.777,0,0,1,.281-.612,1.006,1.006,0,0,1,.7-.248.994.994,0,0,1,.688.248.788.788,0,0,1,.28.612v8.053a2.549,2.549,0,0,0,.251,1.095,2.977,2.977,0,0,0,.678.9,3.121,3.121,0,0,0,1.005.612,3.39,3.39,0,0,0,1.242.222,3.283,3.283,0,0,0,2.215-.8,2.77,2.77,0,0,0,.987-2.029Z" fill="#818386"/>
            <path id="Path_4" data-name="Path 4" d="M861.235,354.175a1.043,1.043,0,0,1,.372-.808,1.426,1.426,0,0,1,1.829,0,1.043,1.043,0,0,1,.372.808,1.056,1.056,0,0,1-.372.8,1.426,1.426,0,0,1-1.829,0A1.056,1.056,0,0,1,861.235,354.175Z" fill="#818386"/>
            <path id="Path_5" data-name="Path 5" d="M873.8,346.4a2.77,2.77,0,0,0-.987-2.029,3.272,3.272,0,0,0-2.219-.808,3.509,3.509,0,0,0-1.239.222,3.12,3.12,0,0,0-1.005.612,2.99,2.99,0,0,0-.674.9,2.42,2.42,0,0,0-.255,1.1v8.05a.8.8,0,0,1-.281.615,1.09,1.09,0,0,1-1.384,0,.8.8,0,0,1-.281-.615V346.4a4.2,4.2,0,0,1,.39-1.784,4.528,4.528,0,0,1,1.086-1.442,5.38,5.38,0,0,1,1.632-.969,5.557,5.557,0,0,1,2.011-.361,5.452,5.452,0,0,1,2.39.512,5.01,5.01,0,0,1,1.756,1.375,5.371,5.371,0,0,1,1.8-1.375,5.452,5.452,0,0,1,2.39-.512,5.537,5.537,0,0,1,2.007.361,5.294,5.294,0,0,1,1.632.969,4.694,4.694,0,0,1,1.1,1.442,4.009,4.009,0,0,1,.408,1.784v8.05a.792.792,0,0,1-.284.615,1.01,1.01,0,0,1-.688.248,1.026,1.026,0,0,1-.692-.248.78.78,0,0,1-.284-.615V346.4a2.514,2.514,0,0,0-.251-1.1,2.978,2.978,0,0,0-.688-.9,3.312,3.312,0,0,0-1.02-.612,3.594,3.594,0,0,0-2.488,0A3.063,3.063,0,0,0,876,345.3a2.415,2.415,0,0,0-.248,1.1v8.05a.8.8,0,0,1-.284.615,1.033,1.033,0,0,1-.692.248,1,1,0,0,1-.688-.248.784.784,0,0,1-.288-.615Z" fill="#818386"/>
            <path id="Path_6" data-name="Path 6" d="M893.347,341.869a7.749,7.749,0,0,1,2.874.541,8.1,8.1,0,0,1,2.4,1.459A7.089,7.089,0,0,1,900.272,346a5.747,5.747,0,0,1,.616,2.615v5.863a.765.765,0,0,1-.288.609,1.069,1.069,0,0,1-1.377,0,.8.8,0,0,1-.284-.609v-1.7a9.677,9.677,0,0,1-2.5,1.761,6.9,6.9,0,0,1-3.158.737,8.505,8.505,0,0,1-2.936-.5,7.79,7.79,0,0,1-2.4-1.388,6.533,6.533,0,0,1-1.636-2.109,6.217,6.217,0,0,1-.018-5.264,6.659,6.659,0,0,1,1.61-2.112,7.852,7.852,0,0,1,2.419-1.449A9.331,9.331,0,0,1,893.347,341.869Zm-5.694,6.749a4.377,4.377,0,0,0,.441,1.929,5.2,5.2,0,0,0,1.213,1.584A5.792,5.792,0,0,0,891.1,353.2a6.306,6.306,0,0,0,4.32.016,5.825,5.825,0,0,0,1.778-1.043,5.07,5.07,0,0,0,1.22-1.571,4.96,4.96,0,0,0,.521-1.983,4.466,4.466,0,0,0-.441-1.945,4.949,4.949,0,0,0-1.209-1.594,5.7,5.7,0,0,0-1.807-1.069,6.256,6.256,0,0,0-2.2-.393,6.112,6.112,0,0,0-2.182.393,5.793,5.793,0,0,0-1.792,1.069,5.121,5.121,0,0,0-1.213,1.594A4.467,4.467,0,0,0,887.653,348.618Z" fill="#818386"/>
            <path id="Path_7" data-name="Path 7" d="M902.774,354.449a.771.771,0,0,1,.28-.609,1.006,1.006,0,0,1,.692-.251h6.79a2.262,2.262,0,0,0,1.563-.583,1.781,1.781,0,0,0,0-2.779,2.262,2.262,0,0,0-1.563-.583h-3.679a4.8,4.8,0,0,1-1.716-.3,4.53,4.53,0,0,1-1.4-.837,3.849,3.849,0,0,1-.94-1.233,3.384,3.384,0,0,1-.346-1.517,3.465,3.465,0,0,1,.346-1.526,3.877,3.877,0,0,1,.94-1.249,4.515,4.515,0,0,1,1.4-.831,4.734,4.734,0,0,1,1.716-.306h6.408a1,1,0,0,1,.692.248.8.8,0,0,1,0,1.22,1.015,1.015,0,0,1-.692.251h-6.408a2.642,2.642,0,0,0-1.73.667,1.972,1.972,0,0,0,0,3.056,2.524,2.524,0,0,0,1.73.641h3.679a4.621,4.621,0,0,1,1.614.287,4.411,4.411,0,0,1,1.337.8,3.731,3.731,0,0,1,.9,1.178,3.3,3.3,0,0,1,0,2.866,3.767,3.767,0,0,1-.9,1.178,4.21,4.21,0,0,1-1.337.789,4.554,4.554,0,0,1-1.614.293h-6.79a1.019,1.019,0,0,1-.692-.248A.788.788,0,0,1,902.774,354.449Z" fill="#818386"/>
            <path id="Path_8" data-name="Path 8" d="M916.286,338.2a.786.786,0,0,1,.281-.612,1.009,1.009,0,0,1,.685-.251,1.034,1.034,0,0,1,.7.251.8.8,0,0,1,.281.612v3.552h6.947a1.214,1.214,0,0,1,.8.251.766.766,0,0,1,.3.612.775.775,0,0,1-.3.612,1.212,1.212,0,0,1-.8.245h-6.947v5.142a4.326,4.326,0,0,0,.441,1.929,4.873,4.873,0,0,0,1.213,1.584,5.714,5.714,0,0,0,1.785,1.069,6.074,6.074,0,0,0,2.186.39,6.157,6.157,0,0,0,2.171-.374,5.591,5.591,0,0,0,1.756-1.043,1.047,1.047,0,0,1,.641-.29,1.087,1.087,0,0,1,.74.177,1,1,0,0,1,.321.557.8.8,0,0,1-.16.638,7.458,7.458,0,0,1-2.452,1.517,8.46,8.46,0,0,1-3.016.541,8.177,8.177,0,0,1-2.958-.528,7.79,7.79,0,0,1-2.4-1.433,6.725,6.725,0,0,1-1.614-2.122,5.726,5.726,0,0,1-.6-2.611Z" fill="#818386"/>
            <path id="Path_9" data-name="Path 9" d="M932.311,349.423a4.32,4.32,0,0,0,.659,1.655,5.188,5.188,0,0,0,1.239,1.317,6.035,6.035,0,0,0,1.679.876,6.4,6.4,0,0,0,4.149-.055,5.882,5.882,0,0,0,1.789-1.043,1.037,1.037,0,0,1,.7-.251,1.021,1.021,0,0,1,.692.251.81.81,0,0,1,.281.612.8.8,0,0,1-.281.612,5.95,5.95,0,0,1-2.339,1.459,9.627,9.627,0,0,1-3.005.428,8.521,8.521,0,0,1-2.936-.5,7.705,7.705,0,0,1-2.4-1.388,6.533,6.533,0,0,1-1.636-2.109,6.015,6.015,0,0,1-.594-2.669,5.875,5.875,0,0,1,.579-2.6,6.637,6.637,0,0,1,1.6-2.112,7.893,7.893,0,0,1,2.419-1.449,9.314,9.314,0,0,1,3.034-.592,7.682,7.682,0,0,1,2.842.528,8.4,8.4,0,0,1,2.375,1.417A6.861,6.861,0,0,1,944.8,345.9a6.26,6.26,0,0,1,.678,2.553.716.716,0,0,1-.27.721,1.123,1.123,0,0,1-.707.251Zm5.559-5.805a6,6,0,0,0-1.964.322,6.313,6.313,0,0,0-1.668.856,4.892,4.892,0,0,0-1.22,1.294,4.713,4.713,0,0,0-.674,1.613h11.092a4.631,4.631,0,0,0-.7-1.613A5.2,5.2,0,0,0,941.5,344.8a6.179,6.179,0,0,0-1.665-.856A6.019,6.019,0,0,0,937.87,343.617Z" fill="#818386"/>
            <path id="Path_10" data-name="Path 10" d="M946.828,348.505a5.785,5.785,0,0,1,.583-2.566,6.755,6.755,0,0,1,1.6-2.125,7.758,7.758,0,0,1,2.375-1.443,8.241,8.241,0,0,1,2.889-.56,1.211,1.211,0,0,1,.8.251.776.776,0,0,1,0,1.224,1.193,1.193,0,0,1-.8.248,6.157,6.157,0,0,0-2.131.431,6.059,6.059,0,0,0-1.763,1.069A4.7,4.7,0,0,0,949.2,346.6a4.426,4.426,0,0,0-.426,1.9v5.944a.8.8,0,0,1-.28.615,1.029,1.029,0,0,1-.7.248,1.017,1.017,0,0,1-.688-.248.8.8,0,0,1-.28-.615Z" fill="#818386"/>
            <path id="Path_11" data-name="Path 11" d="M962.007,341.869a7.7,7.7,0,0,1,2.867.541,8,8,0,0,1,2.4,1.459A7.112,7.112,0,0,1,968.932,346a5.791,5.791,0,0,1,.612,2.615v5.863a.784.784,0,0,1-.284.609,1.074,1.074,0,0,1-1.381,0,.776.776,0,0,1-.288-.609v-1.7a9.614,9.614,0,0,1-2.5,1.761,6.842,6.842,0,0,1-3.155.737,8.506,8.506,0,0,1-2.936-.5,7.79,7.79,0,0,1-2.4-1.388,6.584,6.584,0,0,1-1.636-2.109,6.017,6.017,0,0,1-.6-2.669,5.879,5.879,0,0,1,.583-2.6,6.625,6.625,0,0,1,1.6-2.112,7.976,7.976,0,0,1,2.426-1.449A9.3,9.3,0,0,1,962.007,341.869Zm-5.694,6.749a4.327,4.327,0,0,0,.441,1.929,5.071,5.071,0,0,0,1.209,1.584,5.774,5.774,0,0,0,1.789,1.069,6.317,6.317,0,0,0,4.324.016,5.766,5.766,0,0,0,1.774-1.043,5.039,5.039,0,0,0,1.228-1.571,4.954,4.954,0,0,0,.514-1.983,4.416,4.416,0,0,0-.441-1.945,4.838,4.838,0,0,0-1.206-1.594,5.66,5.66,0,0,0-1.807-1.069,6.242,6.242,0,0,0-2.2-.393,6.131,6.131,0,0,0-2.186.393,5.774,5.774,0,0,0-1.789,1.069,5,5,0,0,0-1.209,1.594A4.416,4.416,0,0,0,956.314,348.618Z" fill="#818386"/>
            <path id="Path_12" data-name="Path 12" d="M977.431,354.449a.792.792,0,0,1-.284.615,1.013,1.013,0,0,1-.692.248,5.749,5.749,0,0,1-2.419-.5,4.931,4.931,0,0,1-1.585-1.162,4.324,4.324,0,0,1-.882-1.475,4.277,4.277,0,0,1-.266-1.388V338.2a.807.807,0,0,1,.277-.612,1.04,1.04,0,0,1,.7-.251,1.019,1.019,0,0,1,.688.251.8.8,0,0,1,.28.612v12.58a2.779,2.779,0,0,0,.117.667,2.555,2.555,0,0,0,.452.914,3.072,3.072,0,0,0,.973.834,3.467,3.467,0,0,0,1.665.39,1,1,0,0,1,.692.251A.774.774,0,0,1,977.431,354.449Z" fill="#818386"/>
            <path id="Path_13" data-name="Path 13" d="M986.01,341.869a7.736,7.736,0,0,1,2.874.541,8.141,8.141,0,0,1,2.4,1.459A7.03,7.03,0,0,1,992.935,346a5.874,5.874,0,0,1,.018,5.184,7,7,0,0,1-1.621,2.128,7.6,7.6,0,0,1-2.4,1.439,8.344,8.344,0,0,1-2.984.528,8.512,8.512,0,0,1-2.94-.5,7.747,7.747,0,0,1-2.4-1.388,6.522,6.522,0,0,1-1.632-2.109,5.92,5.92,0,0,1-.6-2.669V338.234a.776.776,0,0,1,.281-.615,1,1,0,0,1,.688-.245,1.02,1.02,0,0,1,.7.245.812.812,0,0,1,.281.615V344.4a10.332,10.332,0,0,1,2.481-1.736A7.484,7.484,0,0,1,986.01,341.869Zm-5.687,6.749a4.422,4.422,0,0,0,.433,1.929,5.085,5.085,0,0,0,1.213,1.584,5.749,5.749,0,0,0,1.792,1.069,6.074,6.074,0,0,0,2.186.39,6.148,6.148,0,0,0,2.2-.39,5.7,5.7,0,0,0,1.807-1.069,5.072,5.072,0,0,0,1.209-1.584,4.327,4.327,0,0,0,.441-1.929,4.416,4.416,0,0,0-.441-1.945,5,5,0,0,0-1.209-1.594,5.7,5.7,0,0,0-1.807-1.069,6.221,6.221,0,0,0-2.2-.393,6.125,6.125,0,0,0-2.142.374,5.693,5.693,0,0,0-1.76,1.043,5.292,5.292,0,0,0-1.22,1.584A4.587,4.587,0,0,0,980.324,348.618Z" fill="#818386"/>
            <path id="Path_14" data-name="Path 14" d="M993.077,354.175a1.039,1.039,0,0,1,.379-.808,1.416,1.416,0,0,1,1.821,0,1.047,1.047,0,0,1,.375.808,1.06,1.06,0,0,1-.375.8,1.416,1.416,0,0,1-1.821,0A1.051,1.051,0,0,1,993.077,354.175Z" fill="#818386"/>
            <path id="Path_15" data-name="Path 15" d="M1008.508,344.976a7.008,7.008,0,0,0-1.792-.985,6.2,6.2,0,0,0-2.168-.374,6.118,6.118,0,0,0-2.186.393,5.652,5.652,0,0,0-1.789,1.069,4.951,4.951,0,0,0-1.209,1.594,4.369,4.369,0,0,0-.444,1.945,4.282,4.282,0,0,0,.444,1.929,5.02,5.02,0,0,0,1.209,1.584,5.651,5.651,0,0,0,1.789,1.069,6.046,6.046,0,0,0,2.186.39,6.122,6.122,0,0,0,2.168-.374,5.944,5.944,0,0,0,1.792-1.043,1.074,1.074,0,0,1,1.381,0,.744.744,0,0,1,.266.628.96.96,0,0,1-.357.679,8.151,8.151,0,0,1-.769.57,7.511,7.511,0,0,1-1.169.6,8.913,8.913,0,0,1-6.251.138,7.77,7.77,0,0,1-2.4-1.388,6.534,6.534,0,0,1-1.636-2.109,6.182,6.182,0,0,1-.018-5.264,6.648,6.648,0,0,1,1.606-2.112,7.939,7.939,0,0,1,2.419-1.449,9.331,9.331,0,0,1,3.031-.592,6.9,6.9,0,0,1,1.741.206,9.242,9.242,0,0,1,1.446.5,7.9,7.9,0,0,1,1.151.625c.335.219.6.415.816.583a1.132,1.132,0,0,1,.332.518.569.569,0,0,1-.208.673,1.064,1.064,0,0,1-1.381,0Z" fill="#818386"/>
            <path id="Path_16" data-name="Path 16" d="M1019.288,341.869a7.717,7.717,0,0,1,2.871.541,8.112,8.112,0,0,1,2.408,1.459,7.2,7.2,0,0,1,1.647,2.135,5.827,5.827,0,0,1,.015,5.184,6.931,6.931,0,0,1-1.617,2.128,7.578,7.578,0,0,1-2.4,1.439,8.287,8.287,0,0,1-2.984.528,8.506,8.506,0,0,1-2.936-.5,7.747,7.747,0,0,1-2.4-1.388,6.533,6.533,0,0,1-1.636-2.109,5.967,5.967,0,0,1-.6-2.669,5.879,5.879,0,0,1,.583-2.6,6.679,6.679,0,0,1,1.6-2.112,7.956,7.956,0,0,1,2.423-1.449A9.3,9.3,0,0,1,1019.288,341.869Zm-5.69,6.749a4.327,4.327,0,0,0,.441,1.929,5.016,5.016,0,0,0,1.209,1.584,5.689,5.689,0,0,0,1.789,1.069,6.06,6.06,0,0,0,2.186.39,6.148,6.148,0,0,0,2.2-.39,5.717,5.717,0,0,0,1.81-1.069,5.016,5.016,0,0,0,1.209-1.584,4.369,4.369,0,0,0,.433-1.929,4.458,4.458,0,0,0-.433-1.945,4.948,4.948,0,0,0-1.209-1.594,5.718,5.718,0,0,0-1.81-1.069,6.222,6.222,0,0,0-2.2-.393,6.131,6.131,0,0,0-2.186.393,5.69,5.69,0,0,0-1.789,1.069,4.948,4.948,0,0,0-1.209,1.594A4.416,4.416,0,0,0,1013.6,348.618Z" fill="#818386"/>
            <path id="Path_17" data-name="Path 17" d="M1036.788,346.4a2.77,2.77,0,0,0-.987-2.029,3.272,3.272,0,0,0-2.219-.808,3.544,3.544,0,0,0-1.242.222,3.006,3.006,0,0,0-1.676,1.513,2.377,2.377,0,0,0-.259,1.1v8.05a.788.788,0,0,1-.28.615,1.085,1.085,0,0,1-1.381,0,.8.8,0,0,1-.284-.615V346.4a4.2,4.2,0,0,1,.39-1.784,4.529,4.529,0,0,1,1.086-1.442,5.379,5.379,0,0,1,1.632-.969,5.605,5.605,0,0,1,2.015-.361,5.459,5.459,0,0,1,2.386.512,4.928,4.928,0,0,1,1.76,1.375,5.371,5.371,0,0,1,1.8-1.375,5.431,5.431,0,0,1,2.382-.512,5.576,5.576,0,0,1,2.015.361,5.335,5.335,0,0,1,1.632.969,4.628,4.628,0,0,1,1.1,1.442,4.056,4.056,0,0,1,.4,1.784v8.05a.788.788,0,0,1-.281.615,1.014,1.014,0,0,1-.685.248,1,1,0,0,1-.692-.248.792.792,0,0,1-.284-.615V346.4a2.512,2.512,0,0,0-.248-1.1,3.017,3.017,0,0,0-.7-.9,3.3,3.3,0,0,0-1.016-.612,3.584,3.584,0,0,0-2.484,0,3.062,3.062,0,0,0-1.679,1.513,2.421,2.421,0,0,0-.255,1.1v8.05a.8.8,0,0,1-.277.615,1.036,1.036,0,0,1-.7.248,1.019,1.019,0,0,1-.692-.248.8.8,0,0,1-.28-.615Z" fill="#818386"/>
          </g>
        </g>
        <path id="Color_Overlay" data-name="Color Overlay" d="M166.822,17.749a.774.774,0,0,1-.288-.608v-1.7a9.6,9.6,0,0,1-2.5,1.76,6.832,6.832,0,0,1-3.154.738,8.493,8.493,0,0,1-2.936-.5,7.776,7.776,0,0,1-2.4-1.388,6.581,6.581,0,0,1-1.635-2.109,6.019,6.019,0,0,1-.6-2.669,5.882,5.882,0,0,1,.583-2.6,6.629,6.629,0,0,1,1.6-2.111,7.963,7.963,0,0,1,2.425-1.449,9.3,9.3,0,0,1,3.035-.593,7.706,7.706,0,0,1,2.867.541,8.007,8.007,0,0,1,2.4,1.459,7.109,7.109,0,0,1,1.653,2.135,5.782,5.782,0,0,1,.612,2.615v5.864a.783.783,0,0,1-.283.608,1.008,1.008,0,0,1-.692.251A1,1,0,0,1,166.822,17.749ZM158.7,6.669a5.8,5.8,0,0,0-1.789,1.069,5,5,0,0,0-1.21,1.594,4.426,4.426,0,0,0-.44,1.945,4.335,4.335,0,0,0,.44,1.929,5.066,5.066,0,0,0,1.21,1.584,5.765,5.765,0,0,0,1.789,1.069,6.315,6.315,0,0,0,4.324.016,5.786,5.786,0,0,0,1.774-1.043,5.035,5.035,0,0,0,1.228-1.571,4.964,4.964,0,0,0,.514-1.984,4.415,4.415,0,0,0-.441-1.945,4.839,4.839,0,0,0-1.205-1.594,5.685,5.685,0,0,0-1.807-1.069,6.247,6.247,0,0,0-2.2-.392A6.13,6.13,0,0,0,158.7,6.669Zm-60.53,11.08a.8.8,0,0,1-.284-.608v-1.7a9.66,9.66,0,0,1-2.5,1.76,6.9,6.9,0,0,1-3.159.738,8.5,8.5,0,0,1-2.936-.5,7.772,7.772,0,0,1-2.4-1.388,6.546,6.546,0,0,1-1.636-2.109,6.224,6.224,0,0,1-.018-5.265,6.663,6.663,0,0,1,1.61-2.111,7.845,7.845,0,0,1,2.419-1.449,9.332,9.332,0,0,1,3.03-.593,7.765,7.765,0,0,1,2.875.541,8.092,8.092,0,0,1,2.4,1.459,7.088,7.088,0,0,1,1.647,2.135,5.75,5.75,0,0,1,.616,2.615v5.864a.763.763,0,0,1-.288.608,1.069,1.069,0,0,1-1.377,0ZM90.041,6.669A5.8,5.8,0,0,0,88.25,7.738a5.122,5.122,0,0,0-1.213,1.594,4.465,4.465,0,0,0-.441,1.945,4.373,4.373,0,0,0,.441,1.929A5.188,5.188,0,0,0,88.25,14.79a5.768,5.768,0,0,0,1.792,1.069,6.3,6.3,0,0,0,4.32.016,5.851,5.851,0,0,0,1.778-1.043,5.08,5.08,0,0,0,1.22-1.571,4.954,4.954,0,0,0,.52-1.984,4.477,4.477,0,0,0-.44-1.945,4.952,4.952,0,0,0-1.21-1.594,5.725,5.725,0,0,0-1.807-1.069,6.258,6.258,0,0,0-2.2-.392A6.114,6.114,0,0,0,90.041,6.669Zm154.3,11.055a.8.8,0,0,1-.283-.616V9.059a2.51,2.51,0,0,0-.248-1.1,3.009,3.009,0,0,0-.7-.9,3.3,3.3,0,0,0-1.016-.612,3.583,3.583,0,0,0-2.485,0,3.064,3.064,0,0,0-1.679,1.514,2.419,2.419,0,0,0-.255,1.1v8.05a.8.8,0,0,1-.276.616,1.039,1.039,0,0,1-.7.248,1.023,1.023,0,0,1-.692-.248.8.8,0,0,1-.28-.616V9.059a2.773,2.773,0,0,0-.987-2.029,3.275,3.275,0,0,0-2.219-.808,3.541,3.541,0,0,0-1.242.222,3,3,0,0,0-1.676,1.514,2.366,2.366,0,0,0-.259,1.1v8.05a.792.792,0,0,1-.28.616,1.088,1.088,0,0,1-1.382,0,.807.807,0,0,1-.284-.616V9.059a4.193,4.193,0,0,1,.39-1.784,4.527,4.527,0,0,1,1.085-1.443,5.406,5.406,0,0,1,1.632-.969,5.613,5.613,0,0,1,2.015-.36,5.448,5.448,0,0,1,2.386.512,4.919,4.919,0,0,1,1.759,1.374,5.356,5.356,0,0,1,1.8-1.374,5.425,5.425,0,0,1,2.383-.512,5.58,5.58,0,0,1,2.014.36,5.363,5.363,0,0,1,1.632.969,4.641,4.641,0,0,1,1.1,1.443,4.064,4.064,0,0,1,.4,1.784v8.05a.79.79,0,0,1-.281.616,1.014,1.014,0,0,1-.685.248A1,1,0,0,1,244.342,17.724ZM192.4,17.639a1.048,1.048,0,0,1,0-1.613,1.418,1.418,0,0,1,1.822,0,1.054,1.054,0,0,1,0,1.613,1.415,1.415,0,0,1-1.822,0Zm-19.42-.17a4.929,4.929,0,0,1-1.584-1.163,4.495,4.495,0,0,1-1.148-2.862V.864a.807.807,0,0,1,.276-.612,1.044,1.044,0,0,1,.7-.251,1.019,1.019,0,0,1,.688.251.8.8,0,0,1,.281.612v12.58a2.739,2.739,0,0,0,.117.666,2.532,2.532,0,0,0,.451.914,3.076,3.076,0,0,0,.973.834,3.469,3.469,0,0,0,1.665.39,1,1,0,0,1,.692.251.775.775,0,0,1,.284.608.8.8,0,0,1-.284.616,1.014,1.014,0,0,1-.692.248A5.747,5.747,0,0,1,172.978,17.469Zm-26.928.255a.8.8,0,0,1-.28-.616V11.165a5.781,5.781,0,0,1,.582-2.566,6.752,6.752,0,0,1,1.6-2.126,7.769,7.769,0,0,1,2.375-1.443,8.241,8.241,0,0,1,2.889-.56,1.212,1.212,0,0,1,.8.251.776.776,0,0,1,0,1.224,1.192,1.192,0,0,1-.8.247,6.156,6.156,0,0,0-2.131.431,6.052,6.052,0,0,0-1.763,1.069,4.693,4.693,0,0,0-1.176,1.568,4.427,4.427,0,0,0-.427,1.9v5.944a.8.8,0,0,1-.281.616,1.091,1.091,0,0,1-1.384,0Zm-26.21-.281a7.778,7.778,0,0,1-2.4-1.433,6.72,6.72,0,0,1-1.614-2.121,5.734,5.734,0,0,1-.6-2.612V.864a.785.785,0,0,1,.281-.612A1.01,1.01,0,0,1,116.194,0a1.036,1.036,0,0,1,.7.251.8.8,0,0,1,.281.612V4.415h6.947a1.217,1.217,0,0,1,.8.251.766.766,0,0,1,.3.612.775.775,0,0,1-.3.612,1.215,1.215,0,0,1-.8.245h-6.947v5.142a4.324,4.324,0,0,0,.441,1.929,4.855,4.855,0,0,0,1.212,1.584,5.706,5.706,0,0,0,1.786,1.069,6.068,6.068,0,0,0,2.185.39,6.162,6.162,0,0,0,2.172-.373,5.624,5.624,0,0,0,1.756-1.043,1.041,1.041,0,0,1,.641-.29,1.086,1.086,0,0,1,.74.177,1,1,0,0,1,.32.556.8.8,0,0,1-.16.638,7.46,7.46,0,0,1-2.452,1.516,8.467,8.467,0,0,1-3.017.541A8.165,8.165,0,0,1,119.84,17.443Zm-17.151.528a1.023,1.023,0,0,1-.692-.248.792.792,0,0,1-.28-.616A.771.771,0,0,1,102,16.5a1.008,1.008,0,0,1,.692-.251h6.79a2.264,2.264,0,0,0,1.563-.583,1.782,1.782,0,0,0,0-2.778,2.264,2.264,0,0,0-1.563-.583H105.8a4.807,4.807,0,0,1-1.715-.3,4.551,4.551,0,0,1-1.4-.837,3.85,3.85,0,0,1-.94-1.233,3.386,3.386,0,0,1-.347-1.517,3.464,3.464,0,0,1,.347-1.526,3.874,3.874,0,0,1,.94-1.249,4.518,4.518,0,0,1,1.4-.831A4.731,4.731,0,0,1,105.8,4.5h6.408a1,1,0,0,1,.692.247.805.805,0,0,1,0,1.22,1.014,1.014,0,0,1-.692.251H105.8a2.648,2.648,0,0,0-1.731.667,1.973,1.973,0,0,0,0,3.056,2.527,2.527,0,0,0,1.731.641h3.679a4.62,4.62,0,0,1,1.614.286,4.406,4.406,0,0,1,1.337.8,3.714,3.714,0,0,1,.9,1.178,3.289,3.289,0,0,1,0,2.866,3.748,3.748,0,0,1-.9,1.179,4.216,4.216,0,0,1-1.337.788,4.545,4.545,0,0,1-1.614.293Zm-21.336-.248a.784.784,0,0,1-.283-.616V9.059a2.5,2.5,0,0,0-.252-1.1,2.972,2.972,0,0,0-.688-.9,3.307,3.307,0,0,0-1.02-.612,3.591,3.591,0,0,0-2.488,0,3.056,3.056,0,0,0-1.679,1.514,2.4,2.4,0,0,0-.248,1.1v8.05a.807.807,0,0,1-.284.616,1.036,1.036,0,0,1-.692.248,1,1,0,0,1-.688-.248.785.785,0,0,1-.288-.616V9.059a2.773,2.773,0,0,0-.987-2.029,3.275,3.275,0,0,0-2.218-.808,3.507,3.507,0,0,0-1.238.222,3.117,3.117,0,0,0-1.005.612,2.983,2.983,0,0,0-.674.9,2.408,2.408,0,0,0-.256,1.1v8.05a.8.8,0,0,1-.28.616,1.091,1.091,0,0,1-1.384,0,.8.8,0,0,1-.281-.616V9.059a4.207,4.207,0,0,1,.39-1.784,4.527,4.527,0,0,1,1.085-1.443,5.4,5.4,0,0,1,1.633-.969,5.561,5.561,0,0,1,2.011-.36,5.442,5.442,0,0,1,2.389.512,5,5,0,0,1,1.756,1.374,5.351,5.351,0,0,1,1.8-1.374,5.439,5.439,0,0,1,2.39-.512,5.542,5.542,0,0,1,2.007.36,5.32,5.32,0,0,1,1.632.969,4.707,4.707,0,0,1,1.1,1.443,4.018,4.018,0,0,1,.408,1.784v8.05a.793.793,0,0,1-.284.616,1.01,1.01,0,0,1-.688.248A1.029,1.029,0,0,1,81.353,17.724Zm-20.8-.085a1.062,1.062,0,0,1,0-1.613,1.428,1.428,0,0,1,1.829,0,1.061,1.061,0,0,1,0,1.613,1.425,1.425,0,0,1-1.829,0Zm-8.513-.183a5.287,5.287,0,0,1-1.792-1.375,4.916,4.916,0,0,1-1.763,1.375,5.39,5.39,0,0,1-2.383.515,5.534,5.534,0,0,1-2.014-.361,5.357,5.357,0,0,1-1.628-.972,4.445,4.445,0,0,1-1.089-1.446,4.139,4.139,0,0,1-.391-1.777V5.362a.779.779,0,0,1,.281-.612,1.008,1.008,0,0,1,.7-.247.993.993,0,0,1,.688.247.787.787,0,0,1,.281.612v8.053a2.548,2.548,0,0,0,.251,1.094,2.984,2.984,0,0,0,.678.9,3.111,3.111,0,0,0,1.005.612,3.394,3.394,0,0,0,1.242.222,3.285,3.285,0,0,0,2.215-.8,2.766,2.766,0,0,0,.987-2.029V5.362a.768.768,0,0,1,.284-.612,1,1,0,0,1,.692-.247.987.987,0,0,1,.688.247.768.768,0,0,1,.284.612v8.053A2.5,2.5,0,0,0,51.5,14.51a2.9,2.9,0,0,0,.674.9,3.09,3.09,0,0,0,1.009.612,3.38,3.38,0,0,0,1.242.222,3.335,3.335,0,0,0,1.235-.222,3.191,3.191,0,0,0,1.024-.612,2.7,2.7,0,0,0,.692-.9,2.4,2.4,0,0,0,.255-1.094V5.362a.8.8,0,0,1,.277-.612,1.02,1.02,0,0,1,.7-.247,1.007,1.007,0,0,1,.688.247.787.787,0,0,1,.277.612v8.053a3.951,3.951,0,0,1-.4,1.777,4.591,4.591,0,0,1-1.1,1.446,5.272,5.272,0,0,1-1.628.972,5.575,5.575,0,0,1-2.012.361A5.418,5.418,0,0,1,52.035,17.456Zm-20.488,0a5.322,5.322,0,0,1-1.792-1.375A4.966,4.966,0,0,1,28,17.456a5.427,5.427,0,0,1-2.386.515A5.533,5.533,0,0,1,23.6,17.61a5.351,5.351,0,0,1-1.635-.972,4.424,4.424,0,0,1-1.082-1.446,4.086,4.086,0,0,1-.39-1.777V5.362a.778.778,0,0,1,.28-.612,1,1,0,0,1,.688-.247,1.017,1.017,0,0,1,.7.247.784.784,0,0,1,.277.612v8.053a2.5,2.5,0,0,0,.255,1.094,2.988,2.988,0,0,0,.674.9,3.132,3.132,0,0,0,1,.612,3.459,3.459,0,0,0,1.247.222,3.289,3.289,0,0,0,2.219-.8,2.786,2.786,0,0,0,.987-2.029V5.362A.77.77,0,0,1,29.1,4.75a.993.993,0,0,1,.692-.247,1,1,0,0,1,.688.247.768.768,0,0,1,.284.612v8.053a2.4,2.4,0,0,0,.251,1.094,2.794,2.794,0,0,0,.674.9,3.036,3.036,0,0,0,1.005.612,3.573,3.573,0,0,0,2.481,0,3.276,3.276,0,0,0,1.023-.612,2.849,2.849,0,0,0,.692-.9,2.444,2.444,0,0,0,.248-1.094V5.362a.794.794,0,0,1,.284-.612,1.091,1.091,0,0,1,1.384,0,.776.776,0,0,1,.281.612v8.053a3.965,3.965,0,0,1-.408,1.777,4.6,4.6,0,0,1-1.1,1.446,5.333,5.333,0,0,1-1.632.972,5.542,5.542,0,0,1-2.011.361A5.422,5.422,0,0,1,31.548,17.456Zm-20.484,0a5.253,5.253,0,0,1-1.792-1.375,5,5,0,0,1-1.76,1.375,5.445,5.445,0,0,1-2.393.515,5.589,5.589,0,0,1-2.012-.361,5.42,5.42,0,0,1-1.632-.972A4.424,4.424,0,0,1,.394,15.192,4.038,4.038,0,0,1,0,13.415V5.362A.77.77,0,0,1,.284,4.75,1,1,0,0,1,.973,4.5a1.006,1.006,0,0,1,.693.247.77.77,0,0,1,.284.612v8.053A2.482,2.482,0,0,0,2.2,14.51a2.924,2.924,0,0,0,.677.9,3.127,3.127,0,0,0,1,.612,3.418,3.418,0,0,0,1.242.222,3.276,3.276,0,0,0,2.219-.8,2.789,2.789,0,0,0,.991-2.029V5.362a.789.789,0,0,1,.28-.612,1.091,1.091,0,0,1,1.384,0,.776.776,0,0,1,.281.612v8.053a2.45,2.45,0,0,0,.255,1.094,2.919,2.919,0,0,0,.67.9,3.167,3.167,0,0,0,1.009.612,3.573,3.573,0,0,0,2.481,0,3.218,3.218,0,0,0,1.02-.612,2.86,2.86,0,0,0,.7-.9,2.448,2.448,0,0,0,.252-1.094V5.362a.789.789,0,0,1,.28-.612,1.008,1.008,0,0,1,.7-.247.99.99,0,0,1,.685.247.772.772,0,0,1,.288.612v8.053a4.063,4.063,0,0,1-.408,1.777,4.607,4.607,0,0,1-1.1,1.446,5.333,5.333,0,0,1-1.632.972,5.52,5.52,0,0,1-2.014.361A5.39,5.39,0,0,1,11.064,17.456Zm204.165-.014a7.735,7.735,0,0,1-2.4-1.388,6.531,6.531,0,0,1-1.635-2.109,5.971,5.971,0,0,1-.6-2.669,5.882,5.882,0,0,1,.583-2.6,6.682,6.682,0,0,1,1.6-2.111A7.934,7.934,0,0,1,215.2,5.121a9.3,9.3,0,0,1,3.035-.593,7.724,7.724,0,0,1,2.87.541,8.116,8.116,0,0,1,2.408,1.459,7.2,7.2,0,0,1,1.646,2.135,5.83,5.83,0,0,1,.015,5.184,6.942,6.942,0,0,1-1.617,2.128,7.586,7.586,0,0,1-2.4,1.439,8.285,8.285,0,0,1-2.984.528A8.489,8.489,0,0,1,215.229,17.443Zm.75-10.774a5.713,5.713,0,0,0-1.788,1.069,4.952,4.952,0,0,0-1.21,1.594,4.414,4.414,0,0,0-.44,1.945,4.323,4.323,0,0,0,.44,1.929,5.013,5.013,0,0,0,1.21,1.584,5.679,5.679,0,0,0,1.788,1.069,6.059,6.059,0,0,0,2.186.39,6.145,6.145,0,0,0,2.2-.39,5.7,5.7,0,0,0,1.81-1.069,5.012,5.012,0,0,0,1.21-1.584,4.366,4.366,0,0,0,.434-1.929,4.459,4.459,0,0,0-.434-1.945,4.952,4.952,0,0,0-1.21-1.594,5.728,5.728,0,0,0-1.81-1.069,6.227,6.227,0,0,0-2.2-.392A6.138,6.138,0,0,0,215.978,6.669ZM200.551,17.443a7.758,7.758,0,0,1-2.4-1.388,6.531,6.531,0,0,1-1.635-2.109,6.181,6.181,0,0,1-.018-5.265A6.652,6.652,0,0,1,198.1,6.57a7.926,7.926,0,0,1,2.418-1.449,9.342,9.342,0,0,1,3.031-.593,6.892,6.892,0,0,1,1.742.206,9.375,9.375,0,0,1,1.446.5,7.978,7.978,0,0,1,1.151.625c.335.219.6.415.815.582a1.127,1.127,0,0,1,.332.518.569.569,0,0,1-.208.673,1.066,1.066,0,0,1-1.381,0,7.034,7.034,0,0,0-1.792-.985,6.209,6.209,0,0,0-2.168-.373,6.119,6.119,0,0,0-2.185.392,5.677,5.677,0,0,0-1.789,1.069,4.952,4.952,0,0,0-1.21,1.594,4.368,4.368,0,0,0-.444,1.945,4.278,4.278,0,0,0,.444,1.929,5.013,5.013,0,0,0,1.21,1.584,5.643,5.643,0,0,0,1.789,1.069,6.04,6.04,0,0,0,2.185.39,6.128,6.128,0,0,0,2.168-.373,5.974,5.974,0,0,0,1.792-1.043,1,1,0,0,1,.692-.251,1.008,1.008,0,0,1,.689.251.739.739,0,0,1,.265.627.958.958,0,0,1-.356.679,8.259,8.259,0,0,1-.769.571,7.552,7.552,0,0,1-1.17.595,8.9,8.9,0,0,1-6.251.139Zm-18.6,0a7.735,7.735,0,0,1-2.4-1.388,6.52,6.52,0,0,1-1.632-2.109,5.923,5.923,0,0,1-.6-2.669V.893A.775.775,0,0,1,177.6.278a1,1,0,0,1,.689-.245,1.021,1.021,0,0,1,.7.245.812.812,0,0,1,.28.615V7.056a10.353,10.353,0,0,1,2.481-1.736,7.49,7.49,0,0,1,3.206-.792,7.743,7.743,0,0,1,2.874.541,8.143,8.143,0,0,1,2.4,1.459,7.028,7.028,0,0,1,1.646,2.135,5.877,5.877,0,0,1,.019,5.184,7.014,7.014,0,0,1-1.622,2.128,7.593,7.593,0,0,1-2.4,1.439,8.342,8.342,0,0,1-2.983.528A8.5,8.5,0,0,1,181.951,17.443Zm.8-10.793a5.694,5.694,0,0,0-1.76,1.043,5.29,5.29,0,0,0-1.22,1.584,4.6,4.6,0,0,0-.5,2,4.416,4.416,0,0,0,.434,1.929,5.077,5.077,0,0,0,1.213,1.584,5.737,5.737,0,0,0,1.792,1.069,6.073,6.073,0,0,0,2.186.39,6.146,6.146,0,0,0,2.2-.39,5.677,5.677,0,0,0,1.806-1.069,5.066,5.066,0,0,0,1.21-1.584,4.324,4.324,0,0,0,.441-1.929,4.415,4.415,0,0,0-.441-1.945,5,5,0,0,0-1.21-1.594,5.711,5.711,0,0,0-1.806-1.069,6.227,6.227,0,0,0-2.2-.392A6.136,6.136,0,0,0,182.749,6.65ZM133.876,17.443a7.69,7.69,0,0,1-2.4-1.388,6.534,6.534,0,0,1-1.636-2.109,6.017,6.017,0,0,1-.594-2.669,5.88,5.88,0,0,1,.58-2.6,6.641,6.641,0,0,1,1.6-2.111,7.877,7.877,0,0,1,2.419-1.449,9.316,9.316,0,0,1,3.034-.593,7.686,7.686,0,0,1,2.842.528,8.421,8.421,0,0,1,2.374,1.417,6.863,6.863,0,0,1,1.647,2.083,6.27,6.27,0,0,1,.678,2.553.716.716,0,0,1-.27.721,1.122,1.122,0,0,1-.706.252H131.253a4.316,4.316,0,0,0,.659,1.654,5.193,5.193,0,0,0,1.239,1.318,6.035,6.035,0,0,0,1.679.876,6.4,6.4,0,0,0,4.149-.055,5.9,5.9,0,0,0,1.788-1.043,1.037,1.037,0,0,1,.7-.251,1.018,1.018,0,0,1,.692.251.809.809,0,0,1,.281.612.8.8,0,0,1-.281.611,5.947,5.947,0,0,1-2.338,1.459,9.643,9.643,0,0,1-3.006.428A8.511,8.511,0,0,1,133.876,17.443ZM134.849,6.6a6.323,6.323,0,0,0-1.669.856,4.889,4.889,0,0,0-1.22,1.3,4.723,4.723,0,0,0-.674,1.613h11.092a4.624,4.624,0,0,0-.7-1.613,5.208,5.208,0,0,0-1.235-1.3,6.192,6.192,0,0,0-1.665-.856,6.154,6.154,0,0,0-3.93,0Z"/>
      </g>
    </g>
    <g id="Vector_Smart_Object-4" data-name="Vector Smart Object" transform="translate(600 1161)" style="mix-blend-mode: soft-light;isolation: isolate">
      <g id="Vector_Smart_Object-5" data-name="Vector Smart Object">
        <g id="Vector_Smart_Object-6" data-name="Vector Smart Object" transform="translate(-169.59 -53.519)">
          <g id="Group_3" data-name="Group 3">
            <path id="Path_35" data-name="Path 35" d="M225.643,110.607l.136.061C225.692,110.579,225.653,110.574,225.643,110.607Z" fill-rule="evenodd" fill="url(#radial-gradient)"/>
            <path id="Path_36" data-name="Path 36" d="M227.371,111.477c-.3-.209-.191.216,0,0Z" fill-rule="evenodd" fill="url(#radial-gradient-2)"/>
            <path id="Path_37" data-name="Path 37" d="M207.09,53.519c-20.711,0-37.5,16.565-37.5,37s16.789,37,37.5,37,37.5-16.564,37.5-37S227.8,53.519,207.09,53.519Zm-9.056,64.407c2.2,1.255,1.566,5.448-.571,6.382a1.843,1.843,0,0,0,.343-1.872,2.64,2.64,0,0,1-3.433,1.431c.955-.108,1.747-.377,1.945-1.208a2.549,2.549,0,0,1-3.546-.551c.7.236,2.1.212,2.518-.66-1.468.126-2.3-.359-2.173-1.761,1.48,1.88,2.765-1.483,1.373-2.423-.018-.675-.03-1.347.342-1.649a6.454,6.454,0,0,1,1.03-4.071c.757-1.2,2.467-2.015,2.287-3.632-.164-1.5-1.023-2.7-1.142-4.291-.423-5.582,2.355-9.976,4.576-13.426.652-1.015,2.177-2.942,1.83-4.182-.234-.827-1.513-.84-2.174-1.319-1.122-.815-1.736-2.961-.916-4.951a15.318,15.318,0,0,1-1.487.439c-1.869.882-1.82,3.571-4.576,3.411-.319-.264,1.048-.732.914-1.54-.637.149-2.374.666-2.974-.219a2.834,2.834,0,0,0,2.4-1.431c-.72-.052-2.177-.119-2.288-1.1a5.7,5.7,0,0,0,3.089-.441c-.734-.284-1.463-.574-1.6-1.431.632.668,3.054.686,4,.331.749-.281,1.328-1.3,2.288-.99.576-.109.56-.783,1.142-.882,1.281.373,1.505,1.818,2.174,2.751a14.276,14.276,0,0,0,2.4,2.533c.782-.976.837-2.036,1.487-2.973,1.66-2.4,4.784-3.9,5.376-6.931.548-2.807-1.963-6.147-3.662-7.7a15.809,15.809,0,0,0-9.034-3.742c-8.877-.657-12.846,5.58-15.9,10.454-.151.024-.211.459-.227,0a24,24,0,0,1,5.49-7.922,15.037,15.037,0,0,1,10.867-4.182,16.137,16.137,0,0,1,6.52,1.981c4.987,2.591,9.44,6.834,8.92,14.855-1,15.5-16.2,20.109-13.725,37.745C198.332,111.892,197.21,114.833,198.034,117.925Zm29.282-26.412c-.825.55-2.117-.078-2.974-.44a3.5,3.5,0,0,0,2.059,1.651,3.23,3.23,0,0,1-3.432-1.1c-1.083-1.21-.688-3.533-2.174-3.741-1.923-.27-1.447,2.273-2.63,2.97-3.711-1.357-6.617,5.882-5.146,8.914,2.928.594,3.681-3.743,5.374-3.742.916,0,1.2,1.192,1.83,2.091.386.542,1.106.95,1.488,1.541.822,1.269.487,4.389,1.669,4.881-1.091.132-.987-1.648-1.554-2.019-.184,1.277.29,1.139.529,1.647-1.244-.015-1.149.053-1.672-.657a.9.9,0,0,1-.147.291.772.772,0,0,1,.069.053c-1.039.078-.978.415-1.3-.564-.225.3-.531-.25-.5-.358-.966-.453-.769-.743-.415-2.393a10.356,10.356,0,0,0-5.374,4.073c-.956,1.349-2.969,6.46-.229,7.041,1.184.251,1.8-1.139,2.859-.549,1.163.648,3.76.477,4,1.54.321,1.4-1.315,2.858-2.515,3.85a8.558,8.558,0,0,1-7.435,1.761c-1.807-.385-4.509-2.324-5.147-3.631-.785-1.608-.712-5.092-.571-7.264.806-12.512,12.65-17.566,13.839-31.031,1.063-12.066-6.461-18.915-18.3-19.806,12.342-2.1,22.269,6.619,21.734,18.375-.174,3.773-1.327,6.219-2.287,9.685,1.867,1.577,3.085-1.367,5.146-.881.2,1.822-.875,5.056,2.4,4.619-.162.358-.554.5-1.144.442.295.707,1.034.985,1.945,1.1-.288.418-1.108.325-1.83.328A2.672,2.672,0,0,0,227.316,91.514Z" fill-rule="evenodd" fill="url(#radial-gradient-3)"/>
          </g>
        </g>
        <path id="Color_Overlay-2" data-name="Color Overlay" d="M0,37C0,16.565,16.789,0,37.5,0S75,16.565,75,37,58.211,74,37.5,74,0,57.436,0,37ZM27.873,70.789c2.138-.934,2.768-5.128.571-6.382-.824-3.092.3-6.033,3.889-5.173C29.861,41.6,45.057,36.992,46.058,21.489c.521-8.02-3.933-12.264-8.92-14.855a16.142,16.142,0,0,0-6.52-1.981A15.036,15.036,0,0,0,19.751,8.836a24,24,0,0,0-5.49,7.922c.016.459.076.024.227,0,3.055-4.874,7.024-11.11,15.9-10.453a15.808,15.808,0,0,1,9.034,3.742c1.7,1.558,4.211,4.9,3.662,7.7-.592,3.026-3.717,4.535-5.376,6.931-.649.936-.7,2-1.487,2.973a14.274,14.274,0,0,1-2.4-2.533c-.669-.933-.894-2.379-2.174-2.751-.583.1-.567.773-1.143.882-.96-.306-1.54.709-2.288.99-.949.356-3.371.338-4-.331.138.857.867,1.147,1.6,1.43a5.694,5.694,0,0,1-3.089.441c.112.982,1.569,1.049,2.288,1.1a2.834,2.834,0,0,1-2.4,1.43c.6.885,2.337.368,2.974.219.134.808-1.234,1.276-.915,1.54,2.756.159,2.707-2.53,4.576-3.411a15.3,15.3,0,0,0,1.487-.439c-.82,1.99-.206,4.137.916,4.951.661.48,1.94.492,2.174,1.319.347,1.24-1.178,3.167-1.83,4.182-2.221,3.45-5,7.844-4.576,13.427.12,1.593.979,2.793,1.143,4.291.179,1.617-1.531,2.434-2.287,3.632a6.453,6.453,0,0,0-1.03,4.071c-.372.3-.361.974-.342,1.649,1.392.94.107,4.3-1.373,2.423-.122,1.4.7,1.888,2.173,1.761-.419.873-1.815.9-2.518.66a2.55,2.55,0,0,0,3.546.551c-.2.831-.99,1.1-1.945,1.208a2.64,2.64,0,0,0,3.433-1.431A1.843,1.843,0,0,1,27.873,70.789ZM29.931,3c11.84.891,19.365,7.74,18.3,19.806C47.044,36.276,35.2,41.33,34.394,53.842c-.14,2.172-.214,5.656.571,7.264.638,1.307,3.34,3.246,5.147,3.631a8.558,8.558,0,0,0,7.435-1.761c1.2-.992,2.837-2.453,2.515-3.85-.244-1.063-2.841-.892-4-1.54-.576-.323-1.023-.053-1.5.216a1.869,1.869,0,0,1-1.355.333c-2.74-.581-.727-5.692.229-7.041A10.355,10.355,0,0,1,48.8,47.02c-.355,1.65-.552,1.94.415,2.393-.03.108.276.659.5.358.318.979.257.642,1.3.564a.757.757,0,0,0-.069-.053.9.9,0,0,0,.148-.291c.523.71.428.642,1.672.657-.238-.508-.713-.369-.528-1.647.567.372.463,2.151,1.554,2.019-1.182-.492-.846-3.611-1.669-4.881-.383-.591-1.1-1-1.488-1.541-.635-.9-.915-2.089-1.83-2.091-.793,0-1.379.949-2.079,1.9-.8,1.08-1.738,2.159-3.295,1.843-1.471-3.032,1.435-10.271,5.146-8.914,1.184-.7.707-3.241,2.631-2.97,1.487.208,1.092,2.53,2.174,3.741a3.23,3.23,0,0,0,3.432,1.1,3.5,3.5,0,0,1-2.059-1.651c.857.361,2.149.99,2.974.44a2.671,2.671,0,0,1-1.83-1.319c.114,0,.232,0,.348,0,.62.01,1.239.02,1.482-.331-.911-.116-1.65-.394-1.945-1.1.59.055.981-.084,1.144-.442-3.277.436-2.2-2.8-2.4-4.619a3.014,3.014,0,0,0-2.316.647c-.916.565-1.768,1.13-2.829.233.96-3.466,2.113-5.913,2.287-9.685.482-10.57-7.5-18.69-18.082-18.69A21.732,21.732,0,0,0,29.931,3Z"/>
      </g>
    </g>
    <g id="Vector_Smart_Object-7" data-name="Vector Smart Object" transform="translate(690 1169)" style="mix-blend-mode: soft-light;isolation: isolate">
      <g id="Vector_Smart_Object-8" data-name="Vector Smart Object">
        <g id="Vector_Smart_Object-9" data-name="Vector Smart Object" transform="translate(-247.65 -53.217)">
          <g id="Group_5" data-name="Group 5">
            <path id="Path_41" data-name="Path 41" d="M259.99,62.586a11.39,11.39,0,0,1,3.573.574,9.926,9.926,0,0,1,3.2,1.784,10.585,10.585,0,0,1,6.837-2.358,10.746,10.746,0,0,1,4.121.817,11.462,11.462,0,0,1,3.48,2.206,10.358,10.358,0,0,1,2.38,3.324,9.771,9.771,0,0,1,.885,4.11V88.217a3.311,3.311,0,0,1-1.22,2.54,4.1,4.1,0,0,1-2.808,1.087,3.831,3.831,0,0,1-2.779-1.178,3.751,3.751,0,0,1-1.19-2.751V73.226a2.572,2.572,0,0,0-.823-1.935,2.858,2.858,0,0,0-2.046-.786,3.057,3.057,0,0,0-1.922.694,2.42,2.42,0,0,0-.886,2.026V87.915a3.719,3.719,0,0,1-1.19,2.78,3.947,3.947,0,0,1-2.839,1.149,4.087,4.087,0,0,1-2.748-1.057,3.273,3.273,0,0,1-1.22-2.57V73.226a2.7,2.7,0,0,0-.917-1.965,2.82,2.82,0,0,0-3.875.03,2.846,2.846,0,0,0-.886,2V88.278a3.784,3.784,0,0,1-1.25,2.509,3.838,3.838,0,0,1-2.717,1.057,4.119,4.119,0,0,1-1.586-.3,3.948,3.948,0,0,1-1.283-.847,4.339,4.339,0,0,1-.885-1.268,2.987,2.987,0,0,1-.274-1.512V73.043a9.715,9.715,0,0,1,.855-4.019A10.672,10.672,0,0,1,252.3,65.7a11.2,11.2,0,0,1,3.449-2.267A10.684,10.684,0,0,1,259.99,62.586Z" fill="url(#linear-gradient)"/>
            <path id="Path_42" data-name="Path 42" d="M304.494,62.646a14.634,14.634,0,0,1,9.31,4.805,15.268,15.268,0,0,1,2.748,4.474,14.085,14.085,0,0,1,1.008,5.29v10.7a3.67,3.67,0,0,1-1.222,2.78,3.934,3.934,0,0,1-6.166-.785,3.666,3.666,0,0,0-.548.271c-.163.1-.326.191-.489.272a16.273,16.273,0,0,1-2.991,1.027,15.009,15.009,0,0,1-3.357.363,14.208,14.208,0,0,1-8.18-2.449,15.132,15.132,0,0,1-5.373-6.317,16.006,16.006,0,0,1-.947-2.84,13.76,13.76,0,0,1,0-6.045,16.139,16.139,0,0,1,.947-2.842A14.86,14.86,0,0,1,294.605,65a14.343,14.343,0,0,1,8.18-2.418h.885A5.885,5.885,0,0,1,304.494,62.646Zm-1.77,21.339a6.935,6.935,0,0,0,2.655-.512,6.615,6.615,0,0,0,2.167-1.42,7,7,0,0,0,1.467-2.147,6.577,6.577,0,0,0,.548-2.69,6.3,6.3,0,0,0-.548-2.57,7.116,7.116,0,0,0-3.694-3.657,6.445,6.445,0,0,0-2.6-.544,6.228,6.228,0,0,0-2.564.544,7.21,7.21,0,0,0-2.166,1.483,7.017,7.017,0,0,0-1.5,2.174,6.285,6.285,0,0,0-.55,2.57,6.117,6.117,0,0,0,.582,2.631,7.088,7.088,0,0,0,1.524,2.145,7.538,7.538,0,0,0,2.167,1.45A6.093,6.093,0,0,0,302.724,83.985Z" fill="url(#linear-gradient-2)"/>
            <path id="Path_43" data-name="Path 43" d="M341.062,62.465a3.524,3.524,0,0,1,2.749,1.239,3.924,3.924,0,0,1,1.1,2.63,3.75,3.75,0,0,1-1.191,2.749,3.689,3.689,0,0,1-2.656,1.18h-10.5a1.928,1.928,0,0,0-1.253.422,1.475,1.475,0,0,0-.518,1.209,1.633,1.633,0,0,0,.518,1.3,1.837,1.837,0,0,0,1.253.453h6.9a7.95,7.95,0,0,1,3.508.786,9.282,9.282,0,0,1,2.81,2.086,10.814,10.814,0,0,1,1.862,2.75,7.707,7.707,0,0,1,.672,3.265,8.649,8.649,0,0,1-.7,3.748,8.907,8.907,0,0,1-2.045,2.962,9.547,9.547,0,0,1-2.992,1.9,10.086,10.086,0,0,1-3.848.7H325.494a3.879,3.879,0,0,1-2.747-1.087,3.577,3.577,0,0,1-1.161-2.721,4.056,4.056,0,0,1,1.1-2.751,3.662,3.662,0,0,1,2.685-1.3H336.6c1.1,0,1.65-.482,1.65-1.45A1.45,1.45,0,0,0,336.6,80.9H329.89a8.027,8.027,0,0,1-3.45-.756,8.6,8.6,0,0,1-2.806-2.085,10.5,10.5,0,0,1-1.864-2.9,8.525,8.525,0,0,1-.671-3.384,9.09,9.09,0,0,1,.7-3.507,9.312,9.312,0,0,1,4.792-4.987,9.256,9.256,0,0,1,3.6-.816Z" fill="url(#linear-gradient-3)"/>
            <path id="Path_44" data-name="Path 44" d="M354,53.217a3.863,3.863,0,0,1,2.87,1.178,4.5,4.5,0,0,1,1.283,2.932v4.837h10.5a3.7,3.7,0,0,1,2.867,1.208,4.092,4.092,0,0,1,1.1,2.842,3.9,3.9,0,0,1-1.222,2.81,3.769,3.769,0,0,1-2.746,1.24h-10.5v6.648a6.748,6.748,0,0,0,.518,2.631,7.216,7.216,0,0,0,1.436,2.206,6.5,6.5,0,0,0,2.167,1.512,6.749,6.749,0,0,0,2.717.544,7.732,7.732,0,0,0,2.715-.423,5.5,5.5,0,0,0,1.982-1.269,4.44,4.44,0,0,1,2.84-1.118,4.14,4.14,0,0,1,2.9,1.179,3.615,3.615,0,0,1,.916,1.238,4.047,4.047,0,0,1,.335,1.451,4.136,4.136,0,0,1-.213,1.48,3.228,3.228,0,0,1-.794,1.269,15.486,15.486,0,0,1-4.7,3.144,13.925,13.925,0,0,1-5.494,1.087,16.825,16.825,0,0,1-5.984-1.057,15.083,15.083,0,0,1-4.944-3.024,14.371,14.371,0,0,1-3.387-4.715,15.294,15.294,0,0,1-1.315-6.136V57.025A3.455,3.455,0,0,1,351.1,54.3,4.273,4.273,0,0,1,354,53.217Z" fill="url(#linear-gradient-4)"/>
            <path id="Path_45" data-name="Path 45" d="M393.38,62.586A13.537,13.537,0,0,1,399,63.8a15.982,15.982,0,0,1,8,7.889,12.966,12.966,0,0,1,1.222,5.531,2.947,2.947,0,0,1-1.192,2.478,4.478,4.478,0,0,1-2.962.847H387.822a6.19,6.19,0,0,0,5.559,3.444,6.4,6.4,0,0,0,1.645-.181,7.327,7.327,0,0,0,1.193-.423,11.051,11.051,0,0,1,1.037-.422,3.575,3.575,0,0,1,1.19-.182,4.134,4.134,0,0,1,3.634,2.388,3.851,3.851,0,0,1,.3,2.146,3.78,3.78,0,0,1-1.066,2.116,9.528,9.528,0,0,1-3.667,1.843,19.166,19.166,0,0,1-4.27.574,12.507,12.507,0,0,1-5.618-1.057,15.513,15.513,0,0,1-4.73-3.2,15.14,15.14,0,0,1-3.237-4.745,13.9,13.9,0,0,1-1.19-5.622,13.349,13.349,0,0,1,1.19-5.5A15.537,15.537,0,0,1,387.7,63.8,13.663,13.663,0,0,1,393.38,62.586Zm5.553,11.244a6.337,6.337,0,0,0-2.442-2.631,6.148,6.148,0,0,0-8.67,2.631Z" fill="url(#linear-gradient-5)"/>
            <path id="Path_46" data-name="Path 46" d="M414.928,91.906a3.8,3.8,0,0,1-2.747-1.058,4.145,4.145,0,0,1-1.222-2.811V76.853a13.493,13.493,0,0,1,1.254-5.471,14.626,14.626,0,0,1,3.173-4.473,15.107,15.107,0,0,1,4.639-3.024,16.2,16.2,0,0,1,5.646-1.239,3.827,3.827,0,0,1,2.841,1.149,4.3,4.3,0,0,1,1.25,2.78,3.672,3.672,0,0,1-1.16,2.751,4.185,4.185,0,0,1-2.867,1.179,6.7,6.7,0,0,0-4.764,1.934,6.989,6.989,0,0,0-1.464,2.147,6.553,6.553,0,0,0-.551,2.69v11a3.8,3.8,0,0,1-4.028,3.628Z" fill="url(#linear-gradient-6)"/>
            <path id="Path_47" data-name="Path 47" d="M446.918,62.646a14.371,14.371,0,0,1,5.157,1.572,14.538,14.538,0,0,1,4.154,3.233,15.31,15.31,0,0,1,2.746,4.474,14.106,14.106,0,0,1,1.007,5.29v10.7a3.675,3.675,0,0,1-1.22,2.78,3.937,3.937,0,0,1-6.169-.785,3.834,3.834,0,0,0-.548.271c-.163.1-.326.191-.487.272a16.407,16.407,0,0,1-2.99,1.027,15.051,15.051,0,0,1-3.359.363,14.206,14.206,0,0,1-8.18-2.449,15.135,15.135,0,0,1-5.374-6.317,15.824,15.824,0,0,1-.945-2.84,13.717,13.717,0,0,1,0-6.045,15.954,15.954,0,0,1,.945-2.842A14.863,14.863,0,0,1,437.028,65a14.341,14.341,0,0,1,8.18-2.418h.886A5.936,5.936,0,0,1,446.918,62.646Zm-1.77,21.339a6.939,6.939,0,0,0,2.655-.512,6.617,6.617,0,0,0,2.165-1.42,6.958,6.958,0,0,0,1.467-2.147,6.577,6.577,0,0,0,.548-2.69,6.3,6.3,0,0,0-.548-2.57,7.1,7.1,0,0,0-3.693-3.657,6.448,6.448,0,0,0-2.594-.544,6.221,6.221,0,0,0-2.564.544,7.206,7.206,0,0,0-2.168,1.483,7.057,7.057,0,0,0-1.5,2.174,6.3,6.3,0,0,0-.548,2.57,6.115,6.115,0,0,0,.58,2.631,7.111,7.111,0,0,0,1.526,2.145,7.508,7.508,0,0,0,2.167,1.45A6.09,6.09,0,0,0,445.147,83.985Z" fill="url(#linear-gradient-7)"/>
            <path id="Path_48" data-name="Path 48" d="M467.673,53.4a3.736,3.736,0,0,1,2.775,1.148,4.374,4.374,0,0,1,1.254,2.843V81.266a2.891,2.891,0,0,0,.795,2.055,2.634,2.634,0,0,0,2.013.845,3.992,3.992,0,0,1,2.779,1.089,3.673,3.673,0,0,1,.241,5.29,4.235,4.235,0,0,1-2.593,1.36h-.855a9.436,9.436,0,0,1-4.028-.878,11.291,11.291,0,0,1-3.328-2.327,10.752,10.752,0,0,1-2.258-3.386,10.215,10.215,0,0,1-.824-4.048V57.146a4.28,4.28,0,0,1,1.284-2.6A3.953,3.953,0,0,1,467.673,53.4Z" fill="url(#linear-gradient-8)"/>
            <path id="Path_49" data-name="Path 49" d="M485.007,53.278a3.1,3.1,0,0,1,1.529.271,4.872,4.872,0,0,1,1.315.878,3.691,3.691,0,0,1,.885,1.3,4.129,4.129,0,0,1,.3,1.541v6.951a14.23,14.23,0,0,1,4.426-1.42,15.61,15.61,0,0,1,4.55,0,15.833,15.833,0,0,1,4.4,1.33,15.516,15.516,0,0,1,3.968,2.69,15.2,15.2,0,0,1,3.2,4.686,14.434,14.434,0,0,1,1.071,5.712,13.732,13.732,0,0,1-1.192,5.683,15.24,15.24,0,0,1-3.2,4.655,14.97,14.97,0,0,1-4.7,3.142,14.286,14.286,0,0,1-5.677,1.149,13.836,13.836,0,0,1-5.615-1.178,15.761,15.761,0,0,1-4.731-3.174,15.417,15.417,0,0,1-3.268-4.655,13.33,13.33,0,0,1-1.22-5.622V56.964a3.009,3.009,0,0,1,.368-1.42,4.492,4.492,0,0,1,.916-1.209,4.3,4.3,0,0,1,1.252-.816A2.961,2.961,0,0,1,485.007,53.278Zm4.031,23.938a6.437,6.437,0,0,0,.55,2.631,6.691,6.691,0,0,0,1.5,2.145,7.519,7.519,0,0,0,2.169,1.45,6.366,6.366,0,0,0,2.623.544,6.436,6.436,0,0,0,2.594-.544,7.4,7.4,0,0,0,2.2-1.45,6.692,6.692,0,0,0,1.5-2.145,6.536,6.536,0,0,0,0-5.26,6.7,6.7,0,0,0-1.5-2.147,7.424,7.424,0,0,0-2.2-1.45,6.436,6.436,0,0,0-2.594-.544,6.082,6.082,0,0,0-2.623.574,7.734,7.734,0,0,0-2.169,1.512,7.064,7.064,0,0,0-1.5,2.175A6.164,6.164,0,0,0,489.038,77.216Z" fill="url(#linear-gradient-9)"/>
          </g>
          <g id="Group_6" data-name="Group 6">
            <path id="Path_50" data-name="Path 50" d="M258.047,102.2a5.945,5.945,0,0,0-1.617-1,5.172,5.172,0,0,0-3.923.013,5.183,5.183,0,0,0-1.616,1.081,5.067,5.067,0,0,0-1.091,1.613,4.96,4.96,0,0,0-.4,1.964,4.855,4.855,0,0,0,.4,1.949,5.106,5.106,0,0,0,2.707,2.68,5.172,5.172,0,0,0,3.923.013,5.319,5.319,0,0,0,1.617-1.052.894.894,0,0,1,1.245,0,.8.8,0,0,1,.241.63,1.011,1.011,0,0,1-.326.689,6.205,6.205,0,0,1-.693.577,6.064,6.064,0,0,1-1.049.6,7.443,7.443,0,0,1-1.36.463,6.954,6.954,0,0,1-6.445-1.727,6.559,6.559,0,0,1-1.474-2.13,6.664,6.664,0,0,1-.538-2.693,6.552,6.552,0,0,1,.524-2.623,6.647,6.647,0,0,1,1.444-2.133,7.051,7.051,0,0,1,2.182-1.46,7.544,7.544,0,0,1,2.733-.6,5.584,5.584,0,0,1,1.573.21,7.635,7.635,0,0,1,1.3.5,7.328,7.328,0,0,1,1.035.632c.3.224.547.42.737.59a1.143,1.143,0,0,1,.3.518.625.625,0,0,1-.184.689.894.894,0,0,1-1.245,0Z" fill="url(#linear-gradient-10)"/>
            <path id="Path_51" data-name="Path 51" d="M260.88,105.709a6.5,6.5,0,0,1,.523-2.6,6.845,6.845,0,0,1,6.191-4.166,1.012,1.012,0,0,1,.722.252.842.842,0,0,1,0,1.233,1.007,1.007,0,0,1-.722.253,5,5,0,0,0-1.927.435,5.307,5.307,0,0,0-1.586,1.081,4.844,4.844,0,0,0-1.062,1.584,4.9,4.9,0,0,0-.382,1.923v6a.838.838,0,0,1-.255.616.857.857,0,0,1-.624.252.848.848,0,0,1-.624-.252.83.83,0,0,1-.255-.616Z" fill="url(#linear-gradient-11)"/>
            <path id="Path_52" data-name="Path 52" d="M269.492,106.634a4.71,4.71,0,0,0,.6,1.669,5.085,5.085,0,0,0,1.118,1.333,5.16,5.16,0,0,0,1.517.883,4.973,4.973,0,0,0,1.784.323,5.033,5.033,0,0,0,1.956-.379,5.3,5.3,0,0,0,1.613-1.051.892.892,0,0,1,1.248,0,.875.875,0,0,1,0,1.233,5.313,5.313,0,0,1-2.112,1.473,7.743,7.743,0,0,1-2.706.435,6.927,6.927,0,0,1-2.649-.506,6.8,6.8,0,0,1-2.167-1.4,6.546,6.546,0,0,1-1.474-2.131,6.666,6.666,0,0,1-.537-2.692,6.562,6.562,0,0,1,.523-2.625,6.639,6.639,0,0,1,1.445-2.131,7.045,7.045,0,0,1,2.18-1.459,7.563,7.563,0,0,1,2.735-.6,6.273,6.273,0,0,1,2.564.534,7.4,7.4,0,0,1,2.14,1.431,6.859,6.859,0,0,1,2.095,4.685.775.775,0,0,1-.24.729.972.972,0,0,1-.637.252Zm5.014-5.863a4.912,4.912,0,0,0-1.77.322,5.425,5.425,0,0,0-1.5.871,4.774,4.774,0,0,0-1.1,1.3,5.182,5.182,0,0,0-.61,1.627h10a5.07,5.07,0,0,0-1.742-2.931,5.424,5.424,0,0,0-1.5-.871A4.914,4.914,0,0,0,274.506,100.771Z" fill="url(#linear-gradient-10)"/>
            <path id="Path_53" data-name="Path 53" d="M289.351,99a6.324,6.324,0,0,1,2.594.547,7.236,7.236,0,0,1,2.167,1.474,7.083,7.083,0,0,1,1.486,2.16,6.358,6.358,0,0,1,.554,2.638v5.916a.837.837,0,0,1-.256.62.9.9,0,0,1-1.246,0,.837.837,0,0,1-.256-.62v-1.709a8.852,8.852,0,0,1-2.251,1.782,5.711,5.711,0,0,1-2.847.742,6.933,6.933,0,0,1-2.65-.506,6.805,6.805,0,0,1-2.167-1.4,6.529,6.529,0,0,1-1.474-2.131,6.648,6.648,0,0,1-.539-2.692,6.563,6.563,0,0,1,.524-2.625,6.655,6.655,0,0,1,1.444-2.131,7.06,7.06,0,0,1,2.183-1.459A7.535,7.535,0,0,1,289.351,99Zm-5.126,6.82a4.846,4.846,0,0,0,.4,1.948,5.08,5.08,0,0,0,1.09,1.6,5.134,5.134,0,0,0,1.617,1.08,5.115,5.115,0,0,0,3.894.013,5.172,5.172,0,0,0,1.6-1.051,5.1,5.1,0,0,0,1.1-1.587,5.522,5.522,0,0,0,.467-2,4.945,4.945,0,0,0-.4-1.965,5.06,5.06,0,0,0-1.091-1.614,5.116,5.116,0,0,0-3.61-1.472,5.005,5.005,0,0,0-1.969.391,5.175,5.175,0,0,0-1.617,1.081,5.057,5.057,0,0,0-1.09,1.614A4.946,4.946,0,0,0,284.225,105.822Z" fill="url(#linear-gradient-10)"/>
            <path id="Path_54" data-name="Path 54" d="M297.6,95.439a.838.838,0,0,1,.255-.617.9.9,0,0,1,1.246,0,.839.839,0,0,1,.256.617v3.451h6.26a1.03,1.03,0,0,1,.724.251.846.846,0,0,1,0,1.236,1.02,1.02,0,0,1-.724.252h-6.26v5.192a4.865,4.865,0,0,0,.4,1.948,5.084,5.084,0,0,0,1.091,1.6,5.149,5.149,0,0,0,1.615,1.08,4.955,4.955,0,0,0,1.969.392,4.983,4.983,0,0,0,3.543-1.429.88.88,0,0,1,.58-.3.929.929,0,0,1,.667.182,1.016,1.016,0,0,1,.282.56.893.893,0,0,1-.141.646,6.619,6.619,0,0,1-2.211,1.529,6.81,6.81,0,0,1-2.72.547,6.718,6.718,0,0,1-2.663-.534,6.766,6.766,0,0,1-3.626-3.59,6.549,6.549,0,0,1-.538-2.636Z" fill="url(#linear-gradient-10)"/>
            <path id="Path_55" data-name="Path 55" d="M310.146,95.945a1.1,1.1,0,0,1,.342-.814,1.169,1.169,0,0,1,1.643,0,1.148,1.148,0,0,1,0,1.628,1.169,1.169,0,0,1-1.643,0A1.1,1.1,0,0,1,310.146,95.945Zm.285,3.871a.836.836,0,0,1,.253-.616.9.9,0,0,1,1.247,0,.835.835,0,0,1,.256.616v11.9a.835.835,0,0,1-.256.616.9.9,0,0,1-1.247,0,.836.836,0,0,1-.253-.616Z" fill="url(#linear-gradient-15)"/>
            <path id="Path_56" data-name="Path 56" d="M313.49,100.238a.9.9,0,0,1,0-.7.864.864,0,0,1,.453-.5.668.668,0,0,1,.636.042,1.814,1.814,0,0,1,.5.434l3.684,9.93,3.826-9.93a1.172,1.172,0,0,1,.509-.449.737.737,0,0,1,.625,0,.844.844,0,0,1,.453,1.122c-.018.038-.091.23-.213.576s-.35.954-.68,1.823-.784,2.058-1.359,3.562-1.319,3.419-2.224,5.738a1.252,1.252,0,0,1-.328.5,1,1,0,0,1-1.245-.04,1.356,1.356,0,0,1-.328-.463q-1.187-3.227-2.01-5.442t-1.332-3.592c-.341-.917-.584-1.575-.736-1.978S313.49,100.256,313.49,100.238Z" fill="url(#linear-gradient-10)"/>
            <path id="Path_57" data-name="Path 57" d="M326.069,106.634a4.71,4.71,0,0,0,.6,1.669,5.059,5.059,0,0,0,1.117,1.333,5.2,5.2,0,0,0,1.517.883,4.983,4.983,0,0,0,1.787.323,5.038,5.038,0,0,0,1.954-.379,5.3,5.3,0,0,0,1.613-1.051.894.894,0,0,1,1.249,0,.878.878,0,0,1,0,1.233,5.313,5.313,0,0,1-2.112,1.473,7.741,7.741,0,0,1-2.7.435,6.939,6.939,0,0,1-2.651-.506,6.763,6.763,0,0,1-2.166-1.4,6.515,6.515,0,0,1-1.475-2.131,6.666,6.666,0,0,1-.538-2.692,6.563,6.563,0,0,1,.524-2.625,6.64,6.64,0,0,1,1.445-2.131,7.015,7.015,0,0,1,2.182-1.459,7.536,7.536,0,0,1,2.733-.6,6.256,6.256,0,0,1,2.563.534,7.394,7.394,0,0,1,2.141,1.431,6.835,6.835,0,0,1,2.1,4.685.77.77,0,0,1-.242.729.97.97,0,0,1-.637.252Zm5.016-5.863a4.911,4.911,0,0,0-1.772.322,5.4,5.4,0,0,0-1.5.871,4.739,4.739,0,0,0-1.1,1.3,5.182,5.182,0,0,0-.61,1.627h10a4.945,4.945,0,0,0-.622-1.627,5.006,5.006,0,0,0-1.117-1.3,5.373,5.373,0,0,0-1.5-.871A4.9,4.9,0,0,0,331.085,100.771Z" fill="url(#linear-gradient-10)"/>
          </g>
          <g id="Group_7" data-name="Group 7">
            <path id="Path_58" data-name="Path 58" d="M250.519,118.835a.288.288,0,0,1,.087-.212.31.31,0,0,1,.428,0,.284.284,0,0,1,.087.212v2.792a.935.935,0,0,0,.079.38,1,1,0,0,0,.207.314.971.971,0,0,0,.312.212,1,1,0,0,0,.768,0,1.013,1.013,0,0,0,.531-.526.934.934,0,0,0,.078-.38v-2.792a.288.288,0,0,1,.087-.212.292.292,0,0,1,.215-.086.288.288,0,0,1,.212.086.282.282,0,0,1,.089.212v2.792a1.55,1.55,0,0,1-.126.616,1.587,1.587,0,0,1-.342.5,1.628,1.628,0,0,1-.505.337,1.55,1.55,0,0,1-.624.125,1.516,1.516,0,0,1-.737-.179,1.659,1.659,0,0,1-.555-.477,1.583,1.583,0,0,1-.545.477,1.532,1.532,0,0,1-.741.179,1.568,1.568,0,0,1-.622-.125,1.655,1.655,0,0,1-.505-.337,1.573,1.573,0,0,1-.457-1.118v-2.792a.281.281,0,0,1,.088-.212.308.308,0,0,1,.427,0,.281.281,0,0,1,.088.212v2.792a.952.952,0,0,0,.077.38,1.011,1.011,0,0,0,.21.314.961.961,0,0,0,.695.289.951.951,0,0,0,.687-.279,1.013,1.013,0,0,0,.307-.7Z" fill="#818386"/>
            <path id="Path_59" data-name="Path 59" d="M256.86,118.835a.281.281,0,0,1,.088-.212.288.288,0,0,1,.214-.086.292.292,0,0,1,.213.086.281.281,0,0,1,.088.212v2.792a.916.916,0,0,0,.078.38.97.97,0,0,0,.209.314.931.931,0,0,0,.311.212,1,1,0,0,0,.768,0,1,1,0,0,0,.317-.212.986.986,0,0,0,.214-.314.934.934,0,0,0,.077-.38v-2.792a.3.3,0,0,1,.3-.3.293.293,0,0,1,.214.086.284.284,0,0,1,.087.212v2.792a1.512,1.512,0,0,1-.126.616,1.584,1.584,0,0,1-.341.5,1.628,1.628,0,0,1-.505.337,1.556,1.556,0,0,1-.622.125,1.524,1.524,0,0,1-.74-.179,1.681,1.681,0,0,1-.555-.477,1.572,1.572,0,0,1-.545.477,1.526,1.526,0,0,1-.739.179,1.553,1.553,0,0,1-.622-.125,1.633,1.633,0,0,1-.506-.337,1.533,1.533,0,0,1-.335-.5,1.565,1.565,0,0,1-.121-.616v-2.792a.284.284,0,0,1,.087-.212.289.289,0,0,1,.213-.086.3.3,0,0,1,.215.086.287.287,0,0,1,.086.212v2.792a.953.953,0,0,0,.079.38,1.028,1.028,0,0,0,.209.314.983.983,0,0,0,1.382.01,1.013,1.013,0,0,0,.306-.7Z" fill="#818386"/>
            <path id="Path_60" data-name="Path 60" d="M263.2,118.835a.281.281,0,0,1,.088-.212.291.291,0,0,1,.214-.086.287.287,0,0,1,.213.086.281.281,0,0,1,.088.212v2.792a.953.953,0,0,0,.078.38,1.008,1.008,0,0,0,.209.314.971.971,0,0,0,.7.289.935.935,0,0,0,.382-.077.978.978,0,0,0,.317-.212.933.933,0,0,0,.214-.314.916.916,0,0,0,.079-.38v-2.792a.292.292,0,0,1,.086-.212.3.3,0,0,1,.216-.086.292.292,0,0,1,.213.086.287.287,0,0,1,.086.212v2.792a1.511,1.511,0,0,1-.125.616,1.587,1.587,0,0,1-.342.5,1.611,1.611,0,0,1-.5.337,1.565,1.565,0,0,1-.622.125,1.524,1.524,0,0,1-.74-.179,1.67,1.67,0,0,1-.555-.477,1.556,1.556,0,0,1-.546.477,1.516,1.516,0,0,1-.737.179,1.554,1.554,0,0,1-.624-.125,1.637,1.637,0,0,1-.5-.337,1.539,1.539,0,0,1-.337-.5,1.586,1.586,0,0,1-.121-.616v-2.792a.284.284,0,0,1,.087-.212.292.292,0,0,1,.215-.086.3.3,0,0,1,.3.3v2.792a.973.973,0,0,0,.078.38,1.031,1.031,0,0,0,.21.314.981.981,0,0,0,1.381.01,1.008,1.008,0,0,0,.306-.7Z" fill="#818386"/>
            <path id="Path_61" data-name="Path 61" d="M266.567,122.813a.381.381,0,0,1,.115-.28.406.406,0,0,1,.566,0,.381.381,0,0,1,.115.28.386.386,0,0,1-.115.279.406.406,0,0,1-.566,0A.386.386,0,0,1,266.567,122.813Z" fill="#818386"/>
            <path id="Path_62" data-name="Path 62" d="M270.456,120.117a1.008,1.008,0,0,0-.306-.7.951.951,0,0,0-.687-.28.983.983,0,0,0-.383.077.953.953,0,0,0-.311.212,1.037,1.037,0,0,0-.209.313.923.923,0,0,0-.079.382v2.791a.292.292,0,0,1-.087.213.31.31,0,0,1-.428,0,.293.293,0,0,1-.087-.213v-2.791A1.6,1.6,0,0,1,268,119.5a1.567,1.567,0,0,1,.336-.5,1.639,1.639,0,0,1,.505-.336,1.557,1.557,0,0,1,.622-.125,1.536,1.536,0,0,1,.74.178,1.591,1.591,0,0,1,.543.477,1.7,1.7,0,0,1,.556-.477,1.619,1.619,0,0,1,1.361-.052,1.586,1.586,0,0,1,.847.836,1.53,1.53,0,0,1,.126.619v2.791a.289.289,0,0,1-.088.213.293.293,0,0,1-.213.086.3.3,0,0,1-.214-.086.285.285,0,0,1-.088-.213v-2.791a.96.96,0,0,0-.078-.382,1.029,1.029,0,0,0-.213-.313,1.011,1.011,0,0,0-.316-.212,1,1,0,0,0-.77,0,.937.937,0,0,0-.31.212,1.06,1.06,0,0,0-.21.313.922.922,0,0,0-.077.382v2.791a.294.294,0,0,1-.088.213.3.3,0,0,1-.214.086.29.29,0,0,1-.213-.086.286.286,0,0,1-.089-.213Z" fill="#818386"/>
            <path id="Path_63" data-name="Path 63" d="M276.506,118.546a2.173,2.173,0,0,1,.89.188,2.473,2.473,0,0,1,.744.506,2.445,2.445,0,0,1,.51.74,2.191,2.191,0,0,1,.191.907v2.033a.279.279,0,0,1-.089.211.3.3,0,0,1-.514-.211v-.588a3.023,3.023,0,0,1-.773.611,1.95,1.95,0,0,1-.978.256,2.362,2.362,0,0,1-1.653-.654,2.251,2.251,0,0,1-.506-.731,2.3,2.3,0,0,1,.493-2.558,2.4,2.4,0,0,1,.749-.5A2.619,2.619,0,0,1,276.506,118.546Zm-1.762,2.34a1.671,1.671,0,0,0,.136.669,1.8,1.8,0,0,0,.375.549,1.765,1.765,0,0,0,.555.371,1.756,1.756,0,0,0,1.337.006,1.771,1.771,0,0,0,.55-.362,1.747,1.747,0,0,0,.378-.545,1.885,1.885,0,0,0,.161-.688,1.724,1.724,0,0,0-.511-1.227,1.771,1.771,0,0,0-1.24-.507,1.712,1.712,0,0,0-.675.136,1.745,1.745,0,0,0-.93.923A1.705,1.705,0,0,0,274.744,120.886Z" fill="#818386"/>
            <path id="Path_64" data-name="Path 64" d="M279.424,122.908a.282.282,0,0,1,.087-.211.292.292,0,0,1,.214-.087h2.1a.684.684,0,0,0,0-1.368h-1.139a1.345,1.345,0,0,1-.531-.1,1.382,1.382,0,0,1-.432-.29,1.33,1.33,0,0,1-.291-.428,1.291,1.291,0,0,1-.107-.526,1.323,1.323,0,0,1,.107-.529,1.342,1.342,0,0,1,.291-.433,1.376,1.376,0,0,1,.432-.288,1.326,1.326,0,0,1,.531-.106h1.983a.3.3,0,0,1,.3.3.286.286,0,0,1-.087.211.3.3,0,0,1-.214.087h-1.983a.771.771,0,0,0-.536.231.738.738,0,0,0,0,1.06.734.734,0,0,0,.536.222h1.139a1.294,1.294,0,0,1,.5.1,1.344,1.344,0,0,1,.414.276,1.29,1.29,0,0,1,.277.409,1.267,1.267,0,0,1,0,.994,1.3,1.3,0,0,1-.277.409,1.32,1.32,0,0,1-.913.375h-2.1a.3.3,0,0,1-.214-.086A.288.288,0,0,1,279.424,122.908Z" fill="#818386"/>
            <path id="Path_65" data-name="Path 65" d="M283.606,117.275a.287.287,0,0,1,.087-.212.294.294,0,0,1,.212-.087.3.3,0,0,1,.216.087.292.292,0,0,1,.087.212v1.232h2.15a.35.35,0,0,1,.247.087.279.279,0,0,1,.092.212.282.282,0,0,1-.092.212.349.349,0,0,1-.247.085h-2.15v1.783a1.651,1.651,0,0,0,.136.669,1.683,1.683,0,0,0,.375.549,1.743,1.743,0,0,0,.552.371,1.7,1.7,0,0,0,.677.135,1.723,1.723,0,0,0,.672-.13,1.7,1.7,0,0,0,.543-.362.321.321,0,0,1,.427-.039.359.359,0,0,1,.1.193.3.3,0,0,1-.05.221,2.285,2.285,0,0,1-.759.526,2.37,2.37,0,0,1-.934.188,2.291,2.291,0,0,1-.916-.183,2.375,2.375,0,0,1-.743-.5,2.325,2.325,0,0,1-.5-.736,2.185,2.185,0,0,1-.185-.905Z" fill="#818386"/>
            <path id="Path_66" data-name="Path 66" d="M288.566,121.165a1.605,1.605,0,0,0,.2.574,1.733,1.733,0,0,0,.383.457,1.807,1.807,0,0,0,.52.3,1.78,1.78,0,0,0,1.284-.019,1.787,1.787,0,0,0,.554-.362.3.3,0,0,1,.215-.087.3.3,0,0,1,.3.3.293.293,0,0,1-.087.212,1.825,1.825,0,0,1-.724.506,2.685,2.685,0,0,1-.93.148,2.384,2.384,0,0,1-.909-.173,2.338,2.338,0,0,1-.744-.481,2.25,2.25,0,0,1-.506-.731,2.3,2.3,0,0,1-.184-.926,2.244,2.244,0,0,1,.179-.9,2.3,2.3,0,0,1,.5-.732,2.408,2.408,0,0,1,.749-.5,2.614,2.614,0,0,1,.939-.205,2.154,2.154,0,0,1,.879.183,2.561,2.561,0,0,1,.735.491,2.364,2.364,0,0,1,.719,1.608.264.264,0,0,1-.083.25.325.325,0,0,1-.219.087Zm1.721-2.013a1.677,1.677,0,0,0-.608.112,1.886,1.886,0,0,0-.516.3,1.634,1.634,0,0,0-.378.449,1.747,1.747,0,0,0-.209.559h3.433a1.71,1.71,0,0,0-.216-.559,1.733,1.733,0,0,0-.382-.449,1.847,1.847,0,0,0-.515-.3A1.682,1.682,0,0,0,290.287,119.152Z" fill="#818386"/>
            <path id="Path_67" data-name="Path 67" d="M293.059,120.847a2.208,2.208,0,0,1,.18-.89,2.34,2.34,0,0,1,.494-.737,2.37,2.37,0,0,1,.735-.5,2.313,2.313,0,0,1,.894-.194.349.349,0,0,1,.248.087.29.29,0,0,1,0,.424.344.344,0,0,1-.248.086,1.73,1.73,0,0,0-.66.15,1.851,1.851,0,0,0-.546.371,1.629,1.629,0,0,0-.364.544,1.691,1.691,0,0,0-.132.66v2.061a.293.293,0,0,1-.087.213.3.3,0,0,1-.215.086.3.3,0,0,1-.3-.3Z" fill="#818386"/>
            <path id="Path_68" data-name="Path 68" d="M297.758,118.546a2.159,2.159,0,0,1,.887.188,2.453,2.453,0,0,1,1.256,1.246,2.208,2.208,0,0,1,.189.907v2.033a.286.286,0,0,1-.088.211.306.306,0,0,1-.427,0,.283.283,0,0,1-.089-.211v-.588a3,3,0,0,1-.773.611,1.934,1.934,0,0,1-.976.256,2.362,2.362,0,0,1-1.653-.654,2.269,2.269,0,0,1-.506-.731,2.3,2.3,0,0,1-.185-.926,2.245,2.245,0,0,1,.18-.9,2.291,2.291,0,0,1,.495-.732,2.432,2.432,0,0,1,.751-.5A2.609,2.609,0,0,1,297.758,118.546ZM296,120.886a1.652,1.652,0,0,0,.136.669,1.75,1.75,0,0,0,.928.92,1.759,1.759,0,0,0,1.338.006,1.754,1.754,0,0,0,.549-.362,1.735,1.735,0,0,0,.38-.545,1.884,1.884,0,0,0,.159-.688,1.729,1.729,0,0,0-.51-1.227,1.723,1.723,0,0,0-.559-.371,1.748,1.748,0,0,0-.681-.136,1.718,1.718,0,0,0-.677.136,1.76,1.76,0,0,0-.554.371,1.729,1.729,0,0,0-.374.553A1.686,1.686,0,0,0,296,120.886Z" fill="#818386"/>
            <path id="Path_69" data-name="Path 69" d="M302.532,122.908a.289.289,0,0,1-.088.213.294.294,0,0,1-.214.086,1.619,1.619,0,0,1-.749-.174,1.556,1.556,0,0,1-.763-.914,1.643,1.643,0,0,1-.082-.481v-4.362a.3.3,0,0,1,.086-.212.3.3,0,0,1,.216-.087.3.3,0,0,1,.213.087.292.292,0,0,1,.087.212v4.362a1.069,1.069,0,0,0,.036.231.933.933,0,0,0,.14.317.944.944,0,0,0,.816.424.291.291,0,0,1,.214.087A.282.282,0,0,1,302.532,122.908Z" fill="#818386"/>
            <path id="Path_70" data-name="Path 70" d="M305.187,118.546a2.17,2.17,0,0,1,.89.188,2.487,2.487,0,0,1,.744.506,2.424,2.424,0,0,1,.51.74,2.258,2.258,0,0,1,.006,1.8,2.419,2.419,0,0,1-.5.738,2.336,2.336,0,0,1-1.667.682,2.381,2.381,0,0,1-.91-.173,2.351,2.351,0,0,1-.744-.481,2.266,2.266,0,0,1-.69-1.657v-3.6a.284.284,0,0,1,.087-.213.292.292,0,0,1,.213-.085.293.293,0,0,1,.3.3v2.137a3.224,3.224,0,0,1,.768-.6A2.12,2.12,0,0,1,305.187,118.546Zm-1.76,2.34a1.688,1.688,0,0,0,.134.669,1.754,1.754,0,0,0,.93.92,1.7,1.7,0,0,0,.677.135,1.764,1.764,0,0,0,1.239-.506,1.752,1.752,0,0,0,.374-.549,1.651,1.651,0,0,0,.136-.669,1.685,1.685,0,0,0-.136-.674,1.739,1.739,0,0,0-2.821-.568,1.825,1.825,0,0,0-.378.549A1.746,1.746,0,0,0,303.427,120.886Z" fill="#818386"/>
            <path id="Path_71" data-name="Path 71" d="M307.375,122.813a.379.379,0,0,1,.117-.28.4.4,0,0,1,.564,0,.382.382,0,0,1,.116.28.4.4,0,0,1-.8,0Z" fill="#818386"/>
            <path id="Path_72" data-name="Path 72" d="M312.151,119.623a2.113,2.113,0,0,0-.555-.342,1.734,1.734,0,0,0-.671-.13,1.742,1.742,0,0,0-1.6,1.06,1.668,1.668,0,0,0-.138.674,1.634,1.634,0,0,0,.138.669,1.75,1.75,0,0,0,.928.92,1.694,1.694,0,0,0,.677.135,1.713,1.713,0,0,0,.671-.13,1.805,1.805,0,0,0,.555-.362.306.306,0,0,1,.427,0,.273.273,0,0,1,.082.218.347.347,0,0,1-.111.236,2.56,2.56,0,0,1-.238.2,2.243,2.243,0,0,1-.362.207,2.451,2.451,0,0,1-.467.159,2.389,2.389,0,0,1-2.211-.592,2.252,2.252,0,0,1-.506-.731,2.308,2.308,0,0,1,.492-2.558,2.422,2.422,0,0,1,.749-.5,2.619,2.619,0,0,1,.938-.205,1.917,1.917,0,0,1,.539.071,2.661,2.661,0,0,1,.448.174,2.377,2.377,0,0,1,.356.217c.1.076.187.144.253.2a.4.4,0,0,1,.1.18.211.211,0,0,1-.064.233.3.3,0,0,1-.427,0Z" fill="#818386"/>
            <path id="Path_73" data-name="Path 73" d="M315.487,118.546a2.165,2.165,0,0,1,.889.188,2.435,2.435,0,0,1,1.255,1.246,2.239,2.239,0,0,1,0,1.8,2.4,2.4,0,0,1-.5.738,2.341,2.341,0,0,1-1.668.682,2.38,2.38,0,0,1-.909-.173,2.351,2.351,0,0,1-.744-.481,2.251,2.251,0,0,1-.506-.731,2.278,2.278,0,0,1-.185-.926,2.245,2.245,0,0,1,.18-.9,2.31,2.31,0,0,1,.495-.732,2.426,2.426,0,0,1,.75-.5A2.609,2.609,0,0,1,315.487,118.546Zm-1.761,2.34a1.652,1.652,0,0,0,.136.669,1.75,1.75,0,0,0,.928.92,1.7,1.7,0,0,0,.677.135,1.722,1.722,0,0,0,.68-.135,1.732,1.732,0,0,0,.935-.92,1.668,1.668,0,0,0,.134-.669,1.71,1.71,0,0,0-.509-1.227,1.776,1.776,0,0,0-1.24-.507,1.742,1.742,0,0,0-1.6,1.06A1.686,1.686,0,0,0,313.726,120.886Z" fill="#818386"/>
            <path id="Path_74" data-name="Path 74" d="M320.9,120.117a1.008,1.008,0,0,0-.306-.7.951.951,0,0,0-.687-.28.993.993,0,0,0-.384.077.954.954,0,0,0-.311.212,1.076,1.076,0,0,0-.207.313.906.906,0,0,0-.08.382v2.791a.288.288,0,0,1-.087.213.3.3,0,0,1-.515-.213v-2.791a1.606,1.606,0,0,1,.121-.619,1.568,1.568,0,0,1,.336-.5,1.639,1.639,0,0,1,.505-.336,1.57,1.57,0,0,1,.624-.125,1.538,1.538,0,0,1,.739.178,1.565,1.565,0,0,1,.545.477,1.7,1.7,0,0,1,.556-.477,1.531,1.531,0,0,1,.737-.178,1.562,1.562,0,0,1,.624.125,1.625,1.625,0,0,1,.505.336,1.6,1.6,0,0,1,.341.5,1.548,1.548,0,0,1,.125.619v2.791a.288.288,0,0,1-.087.213.294.294,0,0,1-.212.086.3.3,0,0,1-.3-.3v-2.791a.96.96,0,0,0-.077-.382,1.04,1.04,0,0,0-.216-.313,1.006,1.006,0,0,0-.315-.212,1,1,0,0,0-.769,0,.925.925,0,0,0-.31.212,1.039,1.039,0,0,0-.21.313.923.923,0,0,0-.079.382v2.791a.292.292,0,0,1-.086.213.3.3,0,0,1-.215.086.3.3,0,0,1-.214-.086.293.293,0,0,1-.087-.213Z" fill="#818386"/>
          </g>
        </g>
        <path id="Color_Overlay-3" data-name="Color Overlay" d="M51.925,69.913a.282.282,0,0,1-.089-.211v-.589a3,3,0,0,1-.773.611,1.935,1.935,0,0,1-.976.256,2.366,2.366,0,0,1-1.653-.654,2.26,2.26,0,0,1-.506-.732,2.291,2.291,0,0,1-.185-.926,2.253,2.253,0,0,1,.18-.9,2.288,2.288,0,0,1,.5-.732,2.435,2.435,0,0,1,.751-.5,2.613,2.613,0,0,1,.939-.205,2.154,2.154,0,0,1,.888.188,2.456,2.456,0,0,1,1.256,1.246,2.21,2.21,0,0,1,.19.906V69.7a.286.286,0,0,1-.088.211.306.306,0,0,1-.428,0ZM49.41,66.071a1.753,1.753,0,0,0-.553.371,1.721,1.721,0,0,0-.374.552,1.678,1.678,0,0,0-.136.674,1.647,1.647,0,0,0,.136.669,1.753,1.753,0,0,0,.927.92,1.759,1.759,0,0,0,1.339.005,1.757,1.757,0,0,0,.929-.906,1.891,1.891,0,0,0,.159-.688,1.729,1.729,0,0,0-.51-1.227,1.726,1.726,0,0,0-.559-.371,1.755,1.755,0,0,0-.681-.136A1.724,1.724,0,0,0,49.41,66.071ZM30.675,69.913a.291.291,0,0,1-.088-.211v-.589a3.024,3.024,0,0,1-.774.611,1.952,1.952,0,0,1-.978.256,2.366,2.366,0,0,1-1.653-.654,2.241,2.241,0,0,1-.506-.732,2.3,2.3,0,0,1,.493-2.558,2.4,2.4,0,0,1,.749-.5,2.624,2.624,0,0,1,.938-.205,2.17,2.17,0,0,1,.89.188,2.477,2.477,0,0,1,.744.506,2.437,2.437,0,0,1,.51.74,2.192,2.192,0,0,1,.191.906V69.7a.279.279,0,0,1-.089.211.3.3,0,0,1-.426,0Zm-2.514-3.842a1.742,1.742,0,0,0-.93.923,1.7,1.7,0,0,0-.136.674,1.667,1.667,0,0,0,.136.669,1.8,1.8,0,0,0,.375.549,1.767,1.767,0,0,0,.555.371,1.756,1.756,0,0,0,1.337.005,1.738,1.738,0,0,0,.928-.906,1.9,1.9,0,0,0,.161-.688,1.723,1.723,0,0,0-.511-1.227,1.735,1.735,0,0,0-.56-.371,1.755,1.755,0,0,0-.681-.136A1.718,1.718,0,0,0,28.161,66.071ZM75.92,69.9a.288.288,0,0,1-.088-.213V66.9a.96.96,0,0,0-.077-.382,1.036,1.036,0,0,0-.217-.313,1.006,1.006,0,0,0-.314-.212,1,1,0,0,0-.769,0,.923.923,0,0,0-.31.212,1.038,1.038,0,0,0-.21.313.922.922,0,0,0-.079.382v2.791a.29.29,0,0,1-.085.213.3.3,0,0,1-.216.086.3.3,0,0,1-.214-.086.292.292,0,0,1-.087-.213V66.9a1.006,1.006,0,0,0-.306-.7.952.952,0,0,0-.687-.28.993.993,0,0,0-.385.077.959.959,0,0,0-.311.212,1.077,1.077,0,0,0-.208.313.913.913,0,0,0-.08.382v2.791a.287.287,0,0,1-.087.213.3.3,0,0,1-.515-.213V66.9a1.613,1.613,0,0,1,.12-.619,1.576,1.576,0,0,1,.336-.5,1.638,1.638,0,0,1,.5-.336,1.574,1.574,0,0,1,.624-.125A1.534,1.534,0,0,1,73,65.5a1.561,1.561,0,0,1,.545.477A1.7,1.7,0,0,1,74.1,65.5a1.526,1.526,0,0,1,.737-.177,1.567,1.567,0,0,1,.624.125,1.624,1.624,0,0,1,.5.336,1.6,1.6,0,0,1,.341.5,1.552,1.552,0,0,1,.125.619v2.791a.285.285,0,0,1-.087.213.294.294,0,0,1-.212.086A.29.29,0,0,1,75.92,69.9Zm-16.077-.029a.392.392,0,0,1,0-.559.4.4,0,0,1,.563,0,.382.382,0,0,1,.117.28.386.386,0,0,1-.117.279.4.4,0,0,1-.563,0Zm-6.011-.059a1.559,1.559,0,0,1-.763-.915,1.63,1.63,0,0,1-.082-.481V64.058a.292.292,0,0,1,.086-.212.3.3,0,0,1,.216-.087.3.3,0,0,1,.213.087.291.291,0,0,1,.087.212V68.42a1.032,1.032,0,0,0,.036.231.934.934,0,0,0,.139.317,1,1,0,0,0,.3.289.979.979,0,0,0,.515.135.29.29,0,0,1,.214.087.282.282,0,0,1,.088.211.287.287,0,0,1-.088.213.294.294,0,0,1-.214.086A1.622,1.622,0,0,1,53.831,69.816ZM45.5,69.9a.292.292,0,0,1-.087-.213V67.63a2.206,2.206,0,0,1,.181-.89A2.338,2.338,0,0,1,46.084,66a2.363,2.363,0,0,1,.735-.5,2.314,2.314,0,0,1,.894-.194.349.349,0,0,1,.248.087.289.289,0,0,1,0,.424.343.343,0,0,1-.248.086,1.731,1.731,0,0,0-.659.15,1.857,1.857,0,0,0-.546.371,1.624,1.624,0,0,0-.364.544,1.684,1.684,0,0,0-.132.66v2.061a.291.291,0,0,1-.086.213.3.3,0,0,1-.216.086A.3.3,0,0,1,45.5,69.9Zm-8.112-.1a2.38,2.38,0,0,1-.743-.5,2.318,2.318,0,0,1-.5-.736,2.186,2.186,0,0,1-.185-.906v-3.61a.286.286,0,0,1,.086-.212.3.3,0,0,1,.213-.087.3.3,0,0,1,.216.087.291.291,0,0,1,.087.212V65.29h2.15a.35.35,0,0,1,.247.087.278.278,0,0,1,.092.212.284.284,0,0,1-.092.212.349.349,0,0,1-.247.085h-2.15v1.783a1.657,1.657,0,0,0,.136.669,1.682,1.682,0,0,0,.376.549,1.73,1.73,0,0,0,.553.371,1.692,1.692,0,0,0,.676.135,1.722,1.722,0,0,0,.672-.13,1.688,1.688,0,0,0,.543-.362.321.321,0,0,1,.428-.039.358.358,0,0,1,.1.193.305.305,0,0,1-.05.221,2.294,2.294,0,0,1-.759.526,2.375,2.375,0,0,1-.934.187A2.286,2.286,0,0,1,37.384,69.807Zm-5.309.183a.3.3,0,0,1-.214-.086.287.287,0,0,1-.087-.213.282.282,0,0,1,.087-.211.291.291,0,0,1,.214-.087h2.1a.684.684,0,0,0,0-1.368H33.038a1.343,1.343,0,0,1-.531-.1,1.382,1.382,0,0,1-.432-.29,1.327,1.327,0,0,1-.29-.428,1.286,1.286,0,0,1-.107-.526,1.32,1.32,0,0,1,.107-.529,1.344,1.344,0,0,1,.29-.433,1.375,1.375,0,0,1,.432-.288,1.323,1.323,0,0,1,.531-.106h1.984a.294.294,0,0,1,.3.3.284.284,0,0,1-.087.211.294.294,0,0,1-.214.087H33.038a.772.772,0,0,0-.536.231.738.738,0,0,0,0,1.059.734.734,0,0,0,.536.222h1.139a1.289,1.289,0,0,1,.5.1,1.362,1.362,0,0,1,.414.276,1.294,1.294,0,0,1,.277.409,1.267,1.267,0,0,1,0,.993,1.3,1.3,0,0,1-.277.409,1.317,1.317,0,0,1-.914.375Zm-6.6-.086a.283.283,0,0,1-.088-.213V66.9a.961.961,0,0,0-.078-.382,1.025,1.025,0,0,0-.213-.313,1.014,1.014,0,0,0-.316-.212,1,1,0,0,0-.77,0,.944.944,0,0,0-.31.212,1.071,1.071,0,0,0-.21.313.92.92,0,0,0-.077.382v2.791a.292.292,0,0,1-.088.213.3.3,0,0,1-.214.086A.289.289,0,0,1,22.9,69.9a.285.285,0,0,1-.089-.213V66.9a1.006,1.006,0,0,0-.306-.7.952.952,0,0,0-.687-.28.983.983,0,0,0-.383.077.953.953,0,0,0-.311.212,1.034,1.034,0,0,0-.209.313.931.931,0,0,0-.078.382v2.791a.292.292,0,0,1-.087.213.31.31,0,0,1-.429,0,.292.292,0,0,1-.087-.213V66.9a1.614,1.614,0,0,1,.121-.619,1.566,1.566,0,0,1,.336-.5,1.638,1.638,0,0,1,.5-.336,1.56,1.56,0,0,1,.623-.125,1.532,1.532,0,0,1,.74.177,1.59,1.59,0,0,1,.543.477,1.7,1.7,0,0,1,.556-.477,1.532,1.532,0,0,1,.74-.177,1.556,1.556,0,0,1,.621.125,1.59,1.59,0,0,1,.847.836,1.532,1.532,0,0,1,.126.619v2.791a.288.288,0,0,1-.088.213.292.292,0,0,1-.213.086A.3.3,0,0,1,25.472,69.9Zm-6.44-.029a.4.4,0,0,1,0-.559.406.406,0,0,1,.566,0,.4.4,0,0,1,0,.559.406.406,0,0,1-.566,0ZM16.4,69.811a1.659,1.659,0,0,1-.555-.477,1.551,1.551,0,0,1-.546.477,1.51,1.51,0,0,1-.737.179,1.557,1.557,0,0,1-.624-.125,1.625,1.625,0,0,1-.5-.337,1.535,1.535,0,0,1-.338-.5,1.593,1.593,0,0,1-.121-.617V65.618a.286.286,0,0,1,.087-.213.294.294,0,0,1,.216-.085.294.294,0,0,1,.3.3V68.41a.974.974,0,0,0,.077.38,1.036,1.036,0,0,0,.21.314.981.981,0,0,0,1.381.01,1,1,0,0,0,.306-.7V65.618a.282.282,0,0,1,.088-.213.293.293,0,0,1,.214-.085.289.289,0,0,1,.213.085.284.284,0,0,1,.088.213V68.41a.954.954,0,0,0,.078.38,1.02,1.02,0,0,0,.208.314.954.954,0,0,0,.313.212.942.942,0,0,0,.384.077.93.93,0,0,0,.382-.077.979.979,0,0,0,.317-.212.939.939,0,0,0,.214-.314.915.915,0,0,0,.079-.38V65.618a.292.292,0,0,1,.086-.213.3.3,0,0,1,.216-.085.294.294,0,0,1,.213.085.289.289,0,0,1,.086.213V68.41a1.512,1.512,0,0,1-.125.617,1.6,1.6,0,0,1-.846.838,1.566,1.566,0,0,1-.623.125A1.518,1.518,0,0,1,16.4,69.811Zm-6.341,0a1.677,1.677,0,0,1-.555-.477,1.569,1.569,0,0,1-.545.477,1.521,1.521,0,0,1-.738.179,1.557,1.557,0,0,1-.623-.125,1.622,1.622,0,0,1-.506-.337,1.538,1.538,0,0,1-.335-.5,1.57,1.57,0,0,1-.12-.617V65.618a.285.285,0,0,1,.086-.213.29.29,0,0,1,.213-.085.3.3,0,0,1,.216.085.289.289,0,0,1,.086.213V68.41a.944.944,0,0,0,.079.38,1.02,1.02,0,0,0,.208.314.959.959,0,0,0,.7.289.953.953,0,0,0,.687-.279,1.008,1.008,0,0,0,.306-.7V65.618a.282.282,0,0,1,.088-.213.289.289,0,0,1,.214-.085.294.294,0,0,1,.213.085.282.282,0,0,1,.088.213V68.41a.914.914,0,0,0,.078.38.97.97,0,0,0,.209.314.928.928,0,0,0,.311.212,1,1,0,0,0,.768,0A1.009,1.009,0,0,0,11.5,69.1a.985.985,0,0,0,.214-.314.932.932,0,0,0,.077-.38V65.618a.3.3,0,0,1,.516-.213.286.286,0,0,1,.087.213V68.41a1.512,1.512,0,0,1-.126.617,1.581,1.581,0,0,1-.341.5,1.616,1.616,0,0,1-.5.337,1.562,1.562,0,0,1-.623.125A1.519,1.519,0,0,1,10.056,69.811Zm-6.34,0a1.659,1.659,0,0,1-.555-.477,1.58,1.58,0,0,1-.545.477,1.527,1.527,0,0,1-.741.179,1.569,1.569,0,0,1-.622-.125,1.64,1.64,0,0,1-.505-.337A1.574,1.574,0,0,1,.292,68.41V65.618a.282.282,0,0,1,.088-.213.289.289,0,0,1,.213-.085.292.292,0,0,1,.214.085.282.282,0,0,1,.088.213V68.41a.953.953,0,0,0,.077.38,1.023,1.023,0,0,0,.21.314.969.969,0,0,0,.31.212.95.95,0,0,0,.384.077.952.952,0,0,0,.687-.279,1.014,1.014,0,0,0,.307-.7V65.618a.29.29,0,0,1,.086-.213.312.312,0,0,1,.429,0,.286.286,0,0,1,.087.213V68.41a.944.944,0,0,0,.078.38,1.008,1.008,0,0,0,.208.314.977.977,0,0,0,.312.212,1,1,0,0,0,.768,0,1.01,1.01,0,0,0,.531-.526.933.933,0,0,0,.078-.38V65.618a.29.29,0,0,1,.087-.213.294.294,0,0,1,.216-.085.29.29,0,0,1,.212.085.283.283,0,0,1,.089.213V68.41a1.553,1.553,0,0,1-.126.617,1.584,1.584,0,0,1-.342.5,1.616,1.616,0,0,1-.5.337,1.553,1.553,0,0,1-.624.125A1.51,1.51,0,0,1,3.716,69.811Zm63.192,0a2.353,2.353,0,0,1-.744-.481,2.252,2.252,0,0,1-.507-.732,2.28,2.28,0,0,1-.185-.926,2.243,2.243,0,0,1,.181-.9,2.3,2.3,0,0,1,.5-.732,2.427,2.427,0,0,1,.749-.5,2.619,2.619,0,0,1,.94-.205,2.159,2.159,0,0,1,.888.188,2.434,2.434,0,0,1,1.255,1.246,2.241,2.241,0,0,1,0,1.8,2.4,2.4,0,0,1-.5.738,2.345,2.345,0,0,1-1.668.682A2.378,2.378,0,0,1,66.908,69.807Zm.232-3.736a1.742,1.742,0,0,0-.928.923,1.688,1.688,0,0,0-.136.674,1.657,1.657,0,0,0,.136.669,1.752,1.752,0,0,0,.928.92,1.688,1.688,0,0,0,.676.135,1.714,1.714,0,0,0,.68-.135,1.734,1.734,0,0,0,.935-.92,1.665,1.665,0,0,0,.134-.669,1.708,1.708,0,0,0-.508-1.227,1.762,1.762,0,0,0-1.917-.371Zm-4.775,3.736a2.364,2.364,0,0,1-.743-.481,2.25,2.25,0,0,1-.506-.732,2.306,2.306,0,0,1,.492-2.558,2.424,2.424,0,0,1,.749-.5,2.624,2.624,0,0,1,.938-.205,1.926,1.926,0,0,1,.539.071,2.633,2.633,0,0,1,.447.174,2.309,2.309,0,0,1,.356.216c.1.076.187.144.253.2a.4.4,0,0,1,.1.18.212.212,0,0,1-.065.233.3.3,0,0,1-.428,0,2.1,2.1,0,0,0-.554-.342,1.749,1.749,0,0,0-2.276.93,1.668,1.668,0,0,0-.137.674,1.637,1.637,0,0,0,.137.669,1.746,1.746,0,0,0,.374.549,1.722,1.722,0,0,0,.554.371,1.687,1.687,0,0,0,.677.135,1.713,1.713,0,0,0,.671-.13A1.783,1.783,0,0,0,64.5,68.9a.307.307,0,0,1,.428,0,.273.273,0,0,1,.082.218.347.347,0,0,1-.111.236,2.645,2.645,0,0,1-.238.2,2.222,2.222,0,0,1-.362.207,2.482,2.482,0,0,1-.467.159,2.495,2.495,0,0,1-1.468-.111Zm-5.757,0a2.353,2.353,0,0,1-.744-.481,2.266,2.266,0,0,1-.69-1.657v-3.6a.284.284,0,0,1,.087-.213.291.291,0,0,1,.213-.085.294.294,0,0,1,.3.3v2.137a3.235,3.235,0,0,1,.768-.6,2.119,2.119,0,0,1,.992-.275,2.165,2.165,0,0,1,.889.188,2.487,2.487,0,0,1,.745.506,2.437,2.437,0,0,1,.51.74,2.261,2.261,0,0,1,.005,1.8,2.425,2.425,0,0,1-.5.738,2.339,2.339,0,0,1-1.667.682A2.382,2.382,0,0,1,56.608,69.807Zm.247-3.742a1.748,1.748,0,0,0-.545.362,1.812,1.812,0,0,0-.377.549,1.735,1.735,0,0,0-.156.693,1.7,1.7,0,0,0,.134.669,1.77,1.77,0,0,0,.376.549,1.747,1.747,0,0,0,.555.371,1.692,1.692,0,0,0,.676.135,1.763,1.763,0,0,0,1.239-.506,1.746,1.746,0,0,0,.374-.549,1.647,1.647,0,0,0,.136-.669,1.678,1.678,0,0,0-.136-.674,1.728,1.728,0,0,0-.934-.923,1.747,1.747,0,0,0-.68-.136A1.716,1.716,0,0,0,56.855,66.065ZM41.728,69.807a2.346,2.346,0,0,1-.744-.481,2.241,2.241,0,0,1-.506-.732,2.29,2.29,0,0,1-.184-.926,2.243,2.243,0,0,1,.179-.9,2.282,2.282,0,0,1,.5-.732,2.41,2.41,0,0,1,.749-.5,2.619,2.619,0,0,1,.939-.205,2.157,2.157,0,0,1,.88.184,2.547,2.547,0,0,1,.735.491,2.361,2.361,0,0,1,.719,1.608.264.264,0,0,1-.083.25.326.326,0,0,1-.219.087H40.916a1.6,1.6,0,0,0,.2.574,1.726,1.726,0,0,0,.383.456,1.808,1.808,0,0,0,.52.3,1.782,1.782,0,0,0,1.284-.019,1.771,1.771,0,0,0,.553-.362.3.3,0,0,1,.216-.087.3.3,0,0,1,.214.511,1.831,1.831,0,0,1-.724.506,2.686,2.686,0,0,1-.93.148A2.385,2.385,0,0,1,41.728,69.807Zm.3-3.761a1.881,1.881,0,0,0-.516.3,1.639,1.639,0,0,0-.378.449,1.734,1.734,0,0,0-.208.559H44.36a1.71,1.71,0,0,0-.217-.559,1.731,1.731,0,0,0-.382-.449,1.848,1.848,0,0,0-.515-.3,1.716,1.716,0,0,0-1.217,0ZM47,59.141a.838.838,0,0,1-.256-.62V56.812a8.857,8.857,0,0,1-2.25,1.782,5.715,5.715,0,0,1-2.847.742A6.929,6.929,0,0,1,39,58.83a6.8,6.8,0,0,1-2.167-1.4A6.529,6.529,0,0,1,35.356,55.3a6.656,6.656,0,0,1-.539-2.692,6.559,6.559,0,0,1,.524-2.625,6.654,6.654,0,0,1,1.444-2.132,7.071,7.071,0,0,1,2.183-1.459,7.537,7.537,0,0,1,2.732-.6,6.33,6.33,0,0,1,2.594.547,7.235,7.235,0,0,1,2.167,1.474,7.068,7.068,0,0,1,1.486,2.161A6.352,6.352,0,0,1,48.5,52.6v5.917a.838.838,0,0,1-.256.62.9.9,0,0,1-1.246,0Zm-7.322-11.2a5.167,5.167,0,0,0-1.617,1.081,5.062,5.062,0,0,0-1.091,1.614,4.944,4.944,0,0,0-.4,1.965,4.843,4.843,0,0,0,.4,1.948,5.089,5.089,0,0,0,2.708,2.68,5.113,5.113,0,0,0,3.894.013,5.169,5.169,0,0,0,1.6-1.051,5.092,5.092,0,0,0,1.1-1.587,5.521,5.521,0,0,0,.467-2,4.944,4.944,0,0,0-.4-1.965,5.055,5.055,0,0,0-1.092-1.614,5.115,5.115,0,0,0-3.61-1.471A5,5,0,0,0,39.679,47.945ZM4.178,58.889a6.845,6.845,0,0,1-2.167-1.405,6.563,6.563,0,0,1-1.474-2.13A6.663,6.663,0,0,1,0,52.66a6.55,6.55,0,0,1,.525-2.622A6.646,6.646,0,0,1,1.968,47.9a7.049,7.049,0,0,1,2.182-1.46,7.547,7.547,0,0,1,2.733-.6,5.567,5.567,0,0,1,1.573.21,7.618,7.618,0,0,1,1.3.5,7.284,7.284,0,0,1,1.035.632c.3.224.547.42.737.589a1.143,1.143,0,0,1,.3.518.625.625,0,0,1-.184.689.894.894,0,0,1-1.244,0,5.933,5.933,0,0,0-1.617-1,4.994,4.994,0,0,0-1.953-.38A4.984,4.984,0,0,0,4.858,48a5.175,5.175,0,0,0-1.616,1.081A5.069,5.069,0,0,0,2.151,50.7a4.963,4.963,0,0,0-.4,1.964,4.853,4.853,0,0,0,.4,1.949,5.106,5.106,0,0,0,2.708,2.68,4.973,4.973,0,0,0,1.97.393,5.016,5.016,0,0,0,1.953-.38A5.33,5.33,0,0,0,10.4,56.251a.893.893,0,0,1,1.244,0,.8.8,0,0,1,.242.629,1.011,1.011,0,0,1-.326.689,6.2,6.2,0,0,1-.693.577,6.087,6.087,0,0,1-1.049.6,7.431,7.431,0,0,1-1.36.463,6.877,6.877,0,0,1-1.628.182A6.919,6.919,0,0,1,4.178,58.889Zm66.3.238a1.358,1.358,0,0,1-.328-.463q-1.187-3.228-2.01-5.442T66.8,49.629q-.51-1.375-.736-1.978c-.152-.4-.226-.612-.226-.63a.9.9,0,0,1,0-.7.864.864,0,0,1,.453-.5.669.669,0,0,1,.636.042,1.826,1.826,0,0,1,.5.434l3.684,9.93,3.825-9.93a1.175,1.175,0,0,1,.509-.449.736.736,0,0,1,.624,0,.845.845,0,0,1,.453,1.122c-.018.038-.092.23-.213.577s-.35.953-.68,1.823-.784,2.058-1.359,3.562-1.319,3.419-2.224,5.738a1.247,1.247,0,0,1-.328.5,1,1,0,0,1-1.244-.04Zm-7.44-.015a.838.838,0,0,1-.252-.617V46.6a.838.838,0,0,1,.252-.617.9.9,0,0,1,1.247,0,.836.836,0,0,1,.256.617V58.5a.836.836,0,0,1-.256.617.9.9,0,0,1-1.247,0Zm-8.923-.282a6.764,6.764,0,0,1-3.626-3.589,6.551,6.551,0,0,1-.538-2.636V42.223A.84.84,0,0,1,50.2,41.6a.9.9,0,0,1,1.246,0,.841.841,0,0,1,.255.618v3.451h6.26a1.03,1.03,0,0,1,.724.251.846.846,0,0,1,0,1.236,1.022,1.022,0,0,1-.724.252H51.7V52.6a4.864,4.864,0,0,0,.4,1.948,5.081,5.081,0,0,0,1.091,1.6,5.155,5.155,0,0,0,1.615,1.08,4.959,4.959,0,0,0,1.969.392,4.981,4.981,0,0,0,3.543-1.43.878.878,0,0,1,.58-.3.931.931,0,0,1,.667.182,1.02,1.02,0,0,1,.282.561.891.891,0,0,1-.141.646,6.615,6.615,0,0,1-2.211,1.528,6.808,6.808,0,0,1-2.72.547A6.72,6.72,0,0,1,54.111,58.83Zm-40.626.282a.831.831,0,0,1-.255-.617v-6a6.5,6.5,0,0,1,.524-2.6,6.844,6.844,0,0,1,6.191-4.166,1.012,1.012,0,0,1,.722.252.841.841,0,0,1,0,1.233,1.007,1.007,0,0,1-.722.254,4.989,4.989,0,0,0-1.927.435,5.3,5.3,0,0,0-1.586,1.081,4.829,4.829,0,0,0-1.062,1.584,4.9,4.9,0,0,0-.382,1.923v6a.84.84,0,0,1-.255.617.858.858,0,0,1-.624.252A.849.849,0,0,1,13.485,59.112Zm67.3-.282a6.763,6.763,0,0,1-2.166-1.4A6.5,6.5,0,0,1,77.144,55.3a6.666,6.666,0,0,1-.538-2.692,6.559,6.559,0,0,1,.524-2.625,6.638,6.638,0,0,1,1.446-2.132,7.022,7.022,0,0,1,2.182-1.459,7.54,7.54,0,0,1,2.734-.6,6.257,6.257,0,0,1,2.563.534,7.392,7.392,0,0,1,2.141,1.431,6.831,6.831,0,0,1,2.1,4.685.77.77,0,0,1-.242.729.969.969,0,0,1-.637.253H78.419a4.71,4.71,0,0,0,.6,1.669,5.054,5.054,0,0,0,1.118,1.333,5.2,5.2,0,0,0,1.516.883,4.983,4.983,0,0,0,1.787.323,5.043,5.043,0,0,0,1.954-.379A5.294,5.294,0,0,0,87,56.2a.894.894,0,0,1,1.249,0,.877.877,0,0,1,0,1.233A5.3,5.3,0,0,1,86.141,58.9a7.743,7.743,0,0,1-2.705.436A6.935,6.935,0,0,1,80.785,58.83Zm.879-10.955a5.415,5.415,0,0,0-1.5.871,4.753,4.753,0,0,0-1.1,1.3,5.193,5.193,0,0,0-.61,1.626h10a4.949,4.949,0,0,0-.622-1.626,5.016,5.016,0,0,0-1.118-1.3,5.388,5.388,0,0,0-1.5-.871,5.04,5.04,0,0,0-3.54,0ZM24.207,58.83a6.808,6.808,0,0,1-2.167-1.4A6.555,6.555,0,0,1,20.567,55.3,6.665,6.665,0,0,1,20.03,52.6a6.569,6.569,0,0,1,.523-2.625A6.647,6.647,0,0,1,22,47.849a7.057,7.057,0,0,1,2.18-1.459,7.567,7.567,0,0,1,2.735-.6,6.273,6.273,0,0,1,2.564.534,7.394,7.394,0,0,1,2.14,1.431,6.861,6.861,0,0,1,2.1,4.685.775.775,0,0,1-.24.729.972.972,0,0,1-.637.253H21.842a4.7,4.7,0,0,0,.6,1.669,5.068,5.068,0,0,0,1.118,1.333,5.151,5.151,0,0,0,1.517.883,4.968,4.968,0,0,0,1.784.323,5.037,5.037,0,0,0,1.956-.379A5.3,5.3,0,0,0,30.426,56.2a.893.893,0,0,1,1.248,0,.876.876,0,0,1,0,1.233A5.311,5.311,0,0,1,29.562,58.9a7.74,7.74,0,0,1-2.706.436A6.928,6.928,0,0,1,24.207,58.83Zm.879-10.955a5.436,5.436,0,0,0-1.5.871,4.769,4.769,0,0,0-1.1,1.3,5.179,5.179,0,0,0-.61,1.626h10a5.066,5.066,0,0,0-1.742-2.931,5.427,5.427,0,0,0-1.5-.871,5.044,5.044,0,0,0-3.541,0Zm37.752-4.333a1.14,1.14,0,0,1,0-1.628,1.169,1.169,0,0,1,1.643,0,1.148,1.148,0,0,1,0,1.628,1.169,1.169,0,0,1-1.643,0Zm163.595-4.853a9.443,9.443,0,0,1-4.028-.877,11.3,11.3,0,0,1-3.328-2.327,10.759,10.759,0,0,1-2.258-3.386,10.218,10.218,0,0,1-.824-4.048V3.93a4.281,4.281,0,0,1,1.284-2.6A3.951,3.951,0,0,1,220.024.182,3.737,3.737,0,0,1,222.8,1.329a4.375,4.375,0,0,1,1.254,2.843V28.05a2.891,2.891,0,0,0,.795,2.055,2.634,2.634,0,0,0,2.013.845,3.99,3.99,0,0,1,2.779,1.089,3.673,3.673,0,0,1,.242,5.29,4.234,4.234,0,0,1-2.593,1.36Zm-61.9-1.058a4.144,4.144,0,0,1-1.222-2.811V23.636a13.482,13.482,0,0,1,1.254-5.471,14.617,14.617,0,0,1,3.173-4.473,15.115,15.115,0,0,1,4.639-3.023,16.221,16.221,0,0,1,5.646-1.239,3.825,3.825,0,0,1,2.841,1.149,4.3,4.3,0,0,1,1.251,2.78,3.673,3.673,0,0,1-1.16,2.751,4.187,4.187,0,0,1-2.868,1.179,6.7,6.7,0,0,0-4.764,1.934,7,7,0,0,0-1.464,2.147,6.55,6.55,0,0,0-.551,2.69v11a3.8,3.8,0,0,1-4.028,3.627A3.8,3.8,0,0,1,164.532,37.63Zm-24.42-.061a15.5,15.5,0,0,1-4.73-3.2,15.129,15.129,0,0,1-3.237-4.746A13.9,13.9,0,0,1,130.955,24a13.347,13.347,0,0,1,1.19-5.5,15.536,15.536,0,0,1,7.908-7.918,13.787,13.787,0,0,1,11.292,0,15.982,15.982,0,0,1,8,7.889A12.968,12.968,0,0,1,160.564,24a2.947,2.947,0,0,1-1.192,2.478,4.478,4.478,0,0,1-2.962.847H140.172a6.19,6.19,0,0,0,5.559,3.444,6.37,6.37,0,0,0,1.645-.181,7.342,7.342,0,0,0,1.193-.423,11.03,11.03,0,0,1,1.037-.422,3.571,3.571,0,0,1,1.19-.182,4.133,4.133,0,0,1,3.634,2.388,3.854,3.854,0,0,1,.3,2.146,3.78,3.78,0,0,1-1.065,2.115A9.522,9.522,0,0,1,150,38.053a19.168,19.168,0,0,1-4.27.574q-.274.012-.547.012A12.484,12.484,0,0,1,140.112,37.57Zm2.474-19.587a6.441,6.441,0,0,0-2.414,2.631h11.112a6.335,6.335,0,0,0-2.442-2.631,6.858,6.858,0,0,0-6.256,0ZM242.61,37.449a15.76,15.76,0,0,1-4.732-3.174,15.417,15.417,0,0,1-3.267-4.655A13.332,13.332,0,0,1,233.392,24V3.747a3.01,3.01,0,0,1,.367-1.42,4.5,4.5,0,0,1,.915-1.209A4.3,4.3,0,0,1,235.926.3a2.964,2.964,0,0,1,1.431-.242,3.1,3.1,0,0,1,1.529.271,4.868,4.868,0,0,1,1.315.878,3.693,3.693,0,0,1,.885,1.3,4.138,4.138,0,0,1,.3,1.541V11a14.239,14.239,0,0,1,4.426-1.42,15.6,15.6,0,0,1,4.549,0,15.828,15.828,0,0,1,4.4,1.33,15.518,15.518,0,0,1,3.968,2.69,15.2,15.2,0,0,1,3.2,4.686A14.433,14.433,0,0,1,263,24a13.729,13.729,0,0,1-1.192,5.683,15.24,15.24,0,0,1-3.2,4.655,14.966,14.966,0,0,1-4.7,3.142,14.283,14.283,0,0,1-5.677,1.149A13.83,13.83,0,0,1,242.61,37.449ZM245.6,17.8a7.734,7.734,0,0,0-2.169,1.511,7.06,7.06,0,0,0-1.5,2.175,6.164,6.164,0,0,0-.551,2.51,6.439,6.439,0,0,0,.551,2.631,6.678,6.678,0,0,0,1.5,2.144,7.518,7.518,0,0,0,2.169,1.45,6.526,6.526,0,0,0,5.217,0,7.4,7.4,0,0,0,2.2-1.45,6.688,6.688,0,0,0,1.5-2.144,6.536,6.536,0,0,0,0-5.26,6.7,6.7,0,0,0-1.5-2.147,7.427,7.427,0,0,0-2.2-1.45,6.434,6.434,0,0,0-2.594-.544A6.087,6.087,0,0,0,245.6,17.8ZM204.943,36.694a3.8,3.8,0,0,0-.548.271c-.164.1-.326.191-.487.273a16.382,16.382,0,0,1-2.99,1.027,15.047,15.047,0,0,1-3.358.363,14.206,14.206,0,0,1-8.181-2.449A15.135,15.135,0,0,1,184,29.861a15.833,15.833,0,0,1-.945-2.84,13.7,13.7,0,0,1,0-6.044A15.974,15.974,0,0,1,184,18.135a14.861,14.861,0,0,1,5.373-6.347,14.341,14.341,0,0,1,8.181-2.418h.886a5.965,5.965,0,0,1,.823.06A14.374,14.374,0,0,1,204.425,11a14.552,14.552,0,0,1,4.154,3.234,15.316,15.316,0,0,1,2.745,4.474A14.1,14.1,0,0,1,212.331,24V34.7a3.675,3.675,0,0,1-1.22,2.78,3.936,3.936,0,0,1-6.169-.784Zm-10.01-18.922a7.206,7.206,0,0,0-2.168,1.483,7.051,7.051,0,0,0-1.5,2.174,6.3,6.3,0,0,0-.548,2.57,6.12,6.12,0,0,0,.58,2.631,7.11,7.11,0,0,0,1.525,2.144,7.509,7.509,0,0,0,2.167,1.45,6.093,6.093,0,0,0,2.5.544,6.937,6.937,0,0,0,2.655-.512,6.617,6.617,0,0,0,2.165-1.42,6.963,6.963,0,0,0,1.467-2.147,6.576,6.576,0,0,0,.548-2.69,6.3,6.3,0,0,0-.548-2.57,7.1,7.1,0,0,0-3.693-3.656,6.447,6.447,0,0,0-2.594-.544A6.224,6.224,0,0,0,194.933,17.772Zm-83.086,19.8a15.087,15.087,0,0,1-4.945-3.023,14.37,14.37,0,0,1-3.387-4.715A15.29,15.29,0,0,1,102.2,23.7V3.808a3.455,3.455,0,0,1,1.254-2.72A4.272,4.272,0,0,1,106.353,0a3.863,3.863,0,0,1,2.869,1.178,4.5,4.5,0,0,1,1.283,2.932V8.947h10.5a3.7,3.7,0,0,1,2.867,1.208,4.092,4.092,0,0,1,1.1,2.842,3.9,3.9,0,0,1-1.222,2.81,3.77,3.77,0,0,1-2.746,1.241h-10.5V23.7a6.752,6.752,0,0,0,.517,2.63,7.229,7.229,0,0,0,1.437,2.206,6.506,6.506,0,0,0,2.167,1.512,6.752,6.752,0,0,0,2.718.543,7.734,7.734,0,0,0,2.715-.423,5.506,5.506,0,0,0,1.982-1.27,4.441,4.441,0,0,1,2.84-1.118,4.14,4.14,0,0,1,2.9,1.179,3.617,3.617,0,0,1,.915,1.238,4.04,4.04,0,0,1,.335,1.451,4.136,4.136,0,0,1-.213,1.48,3.222,3.222,0,0,1-.794,1.269,15.486,15.486,0,0,1-4.7,3.145,13.93,13.93,0,0,1-5.495,1.087A16.819,16.819,0,0,1,111.847,37.57Zm-34,1.058A3.881,3.881,0,0,1,75.1,37.54a3.578,3.578,0,0,1-1.161-2.721,4.056,4.056,0,0,1,1.1-2.751,3.66,3.66,0,0,1,2.685-1.3H88.955c1.1,0,1.649-.482,1.649-1.45a1.449,1.449,0,0,0-1.649-1.633H82.241a8.025,8.025,0,0,1-3.45-.756,8.6,8.6,0,0,1-2.807-2.084,10.5,10.5,0,0,1-1.864-2.9,8.529,8.529,0,0,1-.671-3.384,9.092,9.092,0,0,1,.7-3.507,9.306,9.306,0,0,1,4.792-4.987,9.243,9.243,0,0,1,3.6-.816H93.412a3.526,3.526,0,0,1,2.749,1.239,3.924,3.924,0,0,1,1.1,2.631,3.75,3.75,0,0,1-1.191,2.749,3.689,3.689,0,0,1-2.656,1.18h-10.5a1.927,1.927,0,0,0-1.253.422,1.475,1.475,0,0,0-.517,1.209,1.634,1.634,0,0,0,.517,1.3,1.835,1.835,0,0,0,1.253.453h6.9a7.946,7.946,0,0,1,3.508.786,9.278,9.278,0,0,1,2.81,2.086,10.8,10.8,0,0,1,1.862,2.75,7.7,7.7,0,0,1,.672,3.264,8.654,8.654,0,0,1-.7,3.748,8.9,8.9,0,0,1-2.046,2.962,9.541,9.541,0,0,1-2.993,1.9,10.09,10.09,0,0,1-3.848.7ZM62.521,36.694a3.638,3.638,0,0,0-.548.271c-.164.1-.326.191-.489.273a16.253,16.253,0,0,1-2.991,1.027,15.011,15.011,0,0,1-3.357.363,14.208,14.208,0,0,1-8.181-2.449,15.133,15.133,0,0,1-5.372-6.318,15.986,15.986,0,0,1-.947-2.84,13.771,13.771,0,0,1,0-6.044,16.129,16.129,0,0,1,.947-2.842,14.858,14.858,0,0,1,5.372-6.347,14.343,14.343,0,0,1,8.181-2.418h.885a5.912,5.912,0,0,1,.823.06A14.387,14.387,0,0,1,62,11a14.536,14.536,0,0,1,4.151,3.234A15.272,15.272,0,0,1,68.9,18.709,14.077,14.077,0,0,1,69.91,24V34.7a3.669,3.669,0,0,1-1.222,2.78,3.935,3.935,0,0,1-6.167-.784ZM52.51,17.772a7.2,7.2,0,0,0-2.166,1.483,7,7,0,0,0-1.5,2.174A6.287,6.287,0,0,0,48.3,24a6.122,6.122,0,0,0,.582,2.631A7.088,7.088,0,0,0,50.4,28.774a7.531,7.531,0,0,0,2.167,1.45,6.1,6.1,0,0,0,2.5.544,6.931,6.931,0,0,0,2.655-.512,6.615,6.615,0,0,0,2.167-1.42,6.994,6.994,0,0,0,1.467-2.147A6.576,6.576,0,0,0,61.911,24a6.3,6.3,0,0,0-.548-2.57,7.119,7.119,0,0,0-3.694-3.656,6.444,6.444,0,0,0-2.6-.544A6.227,6.227,0,0,0,52.51,17.772Zm-22.5,19.677a3.749,3.749,0,0,1-1.19-2.751V20.01A2.572,2.572,0,0,0,28,18.075a2.857,2.857,0,0,0-2.046-.786,3.057,3.057,0,0,0-1.923.694,2.421,2.421,0,0,0-.886,2.027V34.7a3.717,3.717,0,0,1-1.19,2.78,3.944,3.944,0,0,1-2.839,1.149A4.086,4.086,0,0,1,16.37,37.57,3.273,3.273,0,0,1,15.15,35V20.01a2.7,2.7,0,0,0-.917-1.965,2.82,2.82,0,0,0-3.875.03,2.843,2.843,0,0,0-.886,1.995V35.061A3.786,3.786,0,0,1,8.222,37.57,3.838,3.838,0,0,1,5.5,38.627a4.118,4.118,0,0,1-1.586-.3,3.955,3.955,0,0,1-1.283-.847,4.336,4.336,0,0,1-.885-1.268A2.985,2.985,0,0,1,1.476,34.7V19.826a9.715,9.715,0,0,1,.854-4.019,10.671,10.671,0,0,1,2.319-3.324A11.193,11.193,0,0,1,8.1,10.217a10.679,10.679,0,0,1,4.242-.847,11.378,11.378,0,0,1,3.573.574,9.922,9.922,0,0,1,3.2,1.784,10.585,10.585,0,0,1,6.838-2.358,10.744,10.744,0,0,1,4.121.817,11.448,11.448,0,0,1,3.479,2.206,10.358,10.358,0,0,1,2.38,3.324,9.767,9.767,0,0,1,.885,4.11V35a3.313,3.313,0,0,1-1.22,2.54,4.1,4.1,0,0,1-2.808,1.087A3.831,3.831,0,0,1,30.014,37.449Z"/>
      </g>
    </g>
  </g>
</svg>
