<svg xmlns="http://www.w3.org/2000/svg" xmlns:xlink="http://www.w3.org/1999/xlink" width="429.002" height="111" viewBox="0 0 429.002 111">
  <defs>
    <radialGradient id="radial-gradient" cx="-98.818" cy="-174.801" r="563.925" gradientTransform="translate(0.201) scale(0.598 1)" gradientUnits="objectBoundingBox">
      <stop offset="0" stop-color="#1b3e57"/>
      <stop offset="1" stop-color="#0d1d29"/>
    </radialGradient>
    <radialGradient id="radial-gradient-2" cx="-79.525" cy="-121.796" r="369.685" gradientTransform="translate(0.169) scale(0.661 1)" xlink:href="#radial-gradient"/>
    <radialGradient id="radial-gradient-3" cx="0.569" cy="0.58" r="0.613" gradientTransform="translate(0)" xlink:href="#radial-gradient"/>
    <linearGradient id="linear-gradient" x1="0.054" y1="0.993" x2="0.935" y2="0.139" gradientUnits="objectBoundingBox">
      <stop offset="0" stop-color="#0d1d29"/>
      <stop offset="1" stop-color="#1b3e57"/>
    </linearGradient>
    <linearGradient id="linear-gradient-2" x1="0.16" y1="0.871" x2="0.935" y2="0.242" xlink:href="#linear-gradient"/>
    <linearGradient id="linear-gradient-3" x1="-0.029" y1="0.866" x2="1.006" y2="0.153" xlink:href="#linear-gradient"/>
    <linearGradient id="linear-gradient-4" x1="-0.007" y1="0.745" x2="0.828" y2="0.28" xlink:href="#linear-gradient"/>
    <linearGradient id="linear-gradient-5" x1="0.112" y1="0.813" x2="0.882" y2="0.188" xlink:href="#linear-gradient"/>
    <linearGradient id="linear-gradient-6" x1="-0.158" y1="0.79" x2="1.079" y2="0.152" xlink:href="#linear-gradient"/>
    <linearGradient id="linear-gradient-7" x1="0.16" y1="0.871" x2="0.935" y2="0.242" xlink:href="#linear-gradient"/>
    <linearGradient id="linear-gradient-8" x1="-0.211" y1="0.721" x2="1.076" y2="0.322" xlink:href="#linear-gradient"/>
    <linearGradient id="linear-gradient-9" x1="-0.009" y1="0.74" x2="0.765" y2="0.264" xlink:href="#linear-gradient"/>
    <linearGradient id="linear-gradient-10" x1="0" y1="0.5" x2="1" y2="0.5" xlink:href="#linear-gradient"/>
    <linearGradient id="linear-gradient-11" x1="0" y1="0.5" x2="1" y2="0.5" xlink:href="#linear-gradient"/>
    <linearGradient id="linear-gradient-15" x1="0" y1="0.5" x2="1" y2="0.5" xlink:href="#linear-gradient"/>
  </defs>
  <g id="Masteralb.com_TOP_LOGO" data-name="Masteralb.com TOP LOGO" transform="translate(-349.999 -55.001)">
    <g id="Vector_Smart_Object_copy" data-name="Vector Smart Object copy" transform="translate(350 55)" style="mix-blend-mode: soft-light;isolation: isolate">
      <g id="Vector_Smart_Object" data-name="Vector Smart Object">
        <g id="Vector_Smart_Object-2" data-name="Vector Smart Object" transform="translate(-253.254 -80.278)">
          <g id="Group_11" data-name="Group 11">
            <path id="Path_109" data-name="Path 109" d="M336.961,165.911c.065.031.131.06.2.092C337.033,165.868,336.975,165.861,336.961,165.911Z" fill-rule="evenodd" fill="url(#radial-gradient)"/>
            <path id="Path_110" data-name="Path 110" d="M339.541,167.215c-.454-.314-.286.324,0,0Z" fill-rule="evenodd" fill="url(#radial-gradient-2)"/>
            <path id="Path_111" data-name="Path 111" d="M309.254,80.278c-30.928,0-56,24.848-56,55.5s25.072,55.5,56,55.5,56-24.846,56-55.5S340.182,80.278,309.254,80.278Zm-13.523,96.61c3.28,1.882,2.339,8.172-.853,9.573a2.775,2.775,0,0,0,.513-2.807,3.936,3.936,0,0,1-5.127,2.146c1.426-.162,2.609-.566,2.9-1.812a3.8,3.8,0,0,1-5.3-.827c1.049.355,3.134.319,3.76-.99-2.193.189-3.428-.539-3.245-2.642,2.21,2.819,4.129-2.224,2.05-3.634-.028-1.013-.045-2.02.511-2.473a9.714,9.714,0,0,1,1.538-6.106c1.13-1.8,3.684-3.022,3.416-5.448-.244-2.247-1.527-4.047-1.706-6.436-.631-8.373,3.517-14.964,6.833-20.139.973-1.522,3.251-4.413,2.733-6.273-.349-1.241-2.26-1.26-3.247-1.979-1.675-1.222-2.592-4.442-1.367-7.427a22.8,22.8,0,0,1-2.22.658c-2.791,1.323-2.717,5.356-6.833,5.117-.476-.4,1.565-1.1,1.366-2.31-.951.223-3.545,1-4.441-.329,1.675-.256,3.012-.837,3.589-2.146-1.075-.078-3.251-.179-3.417-1.652a8.473,8.473,0,0,0,4.613-.661c-1.1-.426-2.184-.861-2.391-2.146.944,1,4.561,1.03,5.978.5,1.118-.421,1.983-1.943,3.417-1.485.86-.164.836-1.174,1.706-1.323,1.913.559,2.248,2.727,3.247,4.127a21.374,21.374,0,0,0,3.586,3.8c1.168-1.464,1.25-3.055,2.22-4.459,2.478-3.593,7.144-5.857,8.028-10.4.819-4.21-2.931-9.22-5.469-11.557a23.554,23.554,0,0,0-13.491-5.613c-13.257-.985-19.183,8.369-23.746,15.68-.225.036-.315.689-.339,0a36,36,0,0,1,8.2-11.883,22.4,22.4,0,0,1,16.229-6.273,24.02,24.02,0,0,1,9.736,2.971c7.447,3.886,14.1,10.251,13.32,22.282-1.495,23.254-24.188,30.164-20.5,56.617C296.176,167.839,294.5,172.25,295.73,176.888Zm43.728-39.618c-1.231.825-3.161-.118-4.441-.66a5.236,5.236,0,0,0,3.075,2.477,4.811,4.811,0,0,1-5.125-1.65c-1.617-1.815-1.027-5.3-3.247-5.611-2.872-.406-2.16,3.409-3.928,4.456-5.541-2.035-9.881,8.823-7.684,13.371,4.372.891,5.5-5.615,8.025-5.613,1.367,0,1.785,1.788,2.733,3.136.576.813,1.651,1.425,2.222,2.311,1.228,1.9.727,6.583,2.492,7.321-1.629.2-1.474-2.472-2.32-3.029-.275,1.916.433,1.708.789,2.47-1.857-.022-1.716.08-2.5-.985a1.355,1.355,0,0,1-.22.436,1.151,1.151,0,0,1,.1.08c-1.551.118-1.46.622-1.935-.845-.335.452-.793-.375-.748-.537-1.443-.68-1.149-1.115-.619-3.59-2.7.632-5.915,3.111-8.025,6.109-1.428,2.023-4.434,9.69-.342,10.562,1.768.377,2.7-1.708,4.269-.823,1.737.972,5.615.716,5.98,2.31.48,2.095-1.964,4.287-3.756,5.775a12.738,12.738,0,0,1-11.1,2.642c-2.7-.578-6.733-3.486-7.686-5.446-1.173-2.412-1.063-7.638-.853-10.9,1.2-18.767,18.891-26.349,20.666-46.547,1.587-18.1-9.648-28.373-27.33-29.709,18.43-3.157,33.255,9.929,32.456,27.563-.26,5.659-1.981,9.329-3.416,14.528,2.788,2.366,4.608-2.051,7.684-1.321.3,2.732-1.307,7.584,3.586,6.929-.242.537-.827.745-1.708.663.44,1.06,1.544,1.478,2.9,1.652-.43.627-1.655.488-2.733.493A3.992,3.992,0,0,0,339.458,137.271Z" fill-rule="evenodd" fill="url(#radial-gradient-3)"/>
          </g>
        </g>
        <path id="Color_Overlay" data-name="Color Overlay" d="M0,55.5C0,24.848,25.072,0,56,0s56,24.847,56,55.5S86.928,111,56,111,0,86.154,0,55.5Zm41.624,50.684c3.192-1.4,4.133-7.691.853-9.573-1.23-4.638.446-9.049,5.808-7.759-3.693-26.454,19-33.363,20.5-56.618.778-12.031-5.874-18.4-13.32-22.282A24.028,24.028,0,0,0,45.724,6.98a22.4,22.4,0,0,0-16.229,6.273,36,36,0,0,0-8.2,11.882c.024.689.114.036.339,0C26.2,17.825,32.124,8.47,45.381,9.456a23.552,23.552,0,0,1,13.49,5.613c2.538,2.337,6.288,7.347,5.469,11.557-.884,4.54-5.55,6.8-8.028,10.4-.97,1.4-1.052,2.995-2.22,4.459a21.371,21.371,0,0,1-3.586-3.8c-1-1.4-1.335-3.568-3.247-4.127-.871.148-.847,1.159-1.706,1.323-1.434-.458-2.3,1.064-3.417,1.484-1.417.534-5.034.506-5.979-.5.206,1.285,1.3,1.72,2.391,2.146a8.469,8.469,0,0,1-4.613.661c.167,1.473,2.342,1.574,3.417,1.652-.578,1.309-1.914,1.89-3.59,2.146.9,1.328,3.49.553,4.441.329.2,1.212-1.842,1.914-1.366,2.31,4.116.239,4.042-3.795,6.833-5.117a22.767,22.767,0,0,0,2.221-.658c-1.225,2.985-.308,6.2,1.367,7.427.987.719,2.9.738,3.247,1.979.518,1.86-1.76,4.751-2.733,6.273-3.316,5.175-7.464,11.767-6.833,20.14.179,2.39,1.462,4.189,1.706,6.436.268,2.426-2.286,3.651-3.416,5.448a9.712,9.712,0,0,0-1.538,6.106c-.556.453-.538,1.461-.511,2.473,2.079,1.41.16,6.454-2.05,3.634-.182,2.1,1.052,2.831,3.245,2.642-.626,1.309-2.711,1.345-3.76.99a3.8,3.8,0,0,0,5.3.827c-.3,1.246-1.479,1.65-2.9,1.812a3.937,3.937,0,0,0,5.127-2.146A2.774,2.774,0,0,1,41.623,106.183ZM44.7,4.507c17.682,1.337,28.918,11.61,27.33,29.709C70.252,54.413,52.565,62,51.361,80.763c-.209,3.257-.32,8.484.853,10.9.953,1.96,4.988,4.868,7.686,5.446A12.738,12.738,0,0,0,71,94.462c1.792-1.488,4.236-3.68,3.756-5.775-.365-1.594-4.243-1.338-5.98-2.31-.861-.484-1.528-.08-2.245.324a2.781,2.781,0,0,1-2.024.5c-4.092-.871-1.085-8.538.342-10.562,2.111-3,5.322-5.477,8.025-6.109-.53,2.475-.824,2.91.619,3.59-.045.162.413.988.748.537.475,1.468.384.963,1.935.845a1.13,1.13,0,0,0-.1-.08,1.347,1.347,0,0,0,.22-.436c.781,1.065.64.963,2.5.985-.356-.762-1.064-.554-.789-2.47.846.557.691,3.227,2.32,3.029-1.765-.738-1.264-5.417-2.492-7.321-.571-.886-1.646-1.5-2.222-2.311-.948-1.348-1.366-3.133-2.733-3.136-1.183,0-2.059,1.424-3.1,2.848-1.188,1.619-2.595,3.239-4.92,2.765C62.657,64.827,67,53.969,72.538,56c1.768-1.047,1.056-4.861,3.929-4.456,2.22.312,1.63,3.8,3.247,5.611a4.811,4.811,0,0,0,5.125,1.65,5.237,5.237,0,0,1-3.075-2.476c1.28.542,3.209,1.484,4.441.659a3.991,3.991,0,0,1-2.733-1.979c.171,0,.346,0,.52,0,.927.015,1.85.03,2.213-.5-1.361-.174-2.465-.592-2.9-1.652.881.082,1.465-.126,1.708-.663-4.893.655-3.29-4.2-3.586-6.929a4.487,4.487,0,0,0-3.459.971c-1.368.847-2.641,1.695-4.225.35,1.434-5.2,3.156-8.869,3.415-14.528.719-15.856-11.194-28.035-27-28.035A32.312,32.312,0,0,0,44.7,4.507Z"/>
      </g>
    </g>
    <g id="Vector_Smart_Object_copy-2" data-name="Vector Smart Object copy" transform="translate(486 76)" style="mix-blend-mode: soft-light;isolation: isolate">
      <g id="Vector_Smart_Object-3" data-name="Vector Smart Object">
        <g id="Vector_Smart_Object-4" data-name="Vector Smart Object" transform="translate(-275.899 -59.299)">
          <g id="Group_13" data-name="Group 13">
            <path id="Path_115" data-name="Path 115" d="M289.647,69.739a12.687,12.687,0,0,1,3.981.639,11.057,11.057,0,0,1,3.57,1.988,11.791,11.791,0,0,1,7.617-2.628,11.97,11.97,0,0,1,4.591.911,12.769,12.769,0,0,1,3.876,2.458,11.542,11.542,0,0,1,2.652,3.7,10.889,10.889,0,0,1,.986,4.58V98.3a3.69,3.69,0,0,1-1.359,2.83,4.567,4.567,0,0,1-3.128,1.212,4.268,4.268,0,0,1-3.1-1.313,4.18,4.18,0,0,1-1.325-3.066V81.6a2.867,2.867,0,0,0-.917-2.156,3.183,3.183,0,0,0-2.28-.876,3.4,3.4,0,0,0-2.142.774,2.7,2.7,0,0,0-.987,2.258V97.963a4.144,4.144,0,0,1-1.325,3.1,4.4,4.4,0,0,1-3.163,1.28,4.552,4.552,0,0,1-3.061-1.178,3.647,3.647,0,0,1-1.359-2.864V81.6a3.007,3.007,0,0,0-1.021-2.19,3.142,3.142,0,0,0-4.317.034,3.171,3.171,0,0,0-.987,2.223v16.7a4.217,4.217,0,0,1-1.393,2.8,4.275,4.275,0,0,1-3.027,1.178,4.588,4.588,0,0,1-1.767-.336,4.4,4.4,0,0,1-1.429-.944,4.835,4.835,0,0,1-.986-1.413,3.33,3.33,0,0,1-.305-1.685V81.391a10.828,10.828,0,0,1,.952-4.479,11.892,11.892,0,0,1,2.584-3.7,12.481,12.481,0,0,1,3.843-2.526A11.9,11.9,0,0,1,289.647,69.739Z" fill="url(#linear-gradient)"/>
            <path id="Path_116" data-name="Path 116" d="M339.227,69.806A16.3,16.3,0,0,1,349.6,75.161a17.013,17.013,0,0,1,3.061,4.985,15.7,15.7,0,0,1,1.123,5.895V97.963a4.089,4.089,0,0,1-1.362,3.1,4.383,4.383,0,0,1-6.87-.875,4.084,4.084,0,0,0-.611.3c-.182.113-.363.213-.545.3a18.126,18.126,0,0,1-3.333,1.145,16.717,16.717,0,0,1-3.74.4,15.827,15.827,0,0,1-9.113-2.728,16.861,16.861,0,0,1-5.986-7.039,17.84,17.84,0,0,1-1.055-3.165,15.337,15.337,0,0,1,0-6.736,17.988,17.988,0,0,1,1.055-3.166,16.558,16.558,0,0,1,5.986-7.073,15.977,15.977,0,0,1,9.113-2.695h.986A6.554,6.554,0,0,1,339.227,69.806Zm-1.972,23.777a7.725,7.725,0,0,0,2.958-.571,7.37,7.37,0,0,0,2.414-1.583,7.8,7.8,0,0,0,1.634-2.392,7.33,7.33,0,0,0,.61-3,7.023,7.023,0,0,0-.61-2.864,7.929,7.929,0,0,0-4.115-4.074,7.179,7.179,0,0,0-2.892-.606,6.938,6.938,0,0,0-2.856.606,8.032,8.032,0,0,0-2.413,1.652,7.82,7.82,0,0,0-1.667,2.422,7,7,0,0,0-.613,2.864,6.817,6.817,0,0,0,.648,2.931,7.9,7.9,0,0,0,1.7,2.39,8.4,8.4,0,0,0,2.414,1.616A6.787,6.787,0,0,0,337.255,93.583Z" fill="url(#linear-gradient-2)"/>
            <path id="Path_117" data-name="Path 117" d="M379.966,69.6a3.926,3.926,0,0,1,3.063,1.381,4.373,4.373,0,0,1,1.223,2.931,4.179,4.179,0,0,1-1.327,3.063,4.11,4.11,0,0,1-2.959,1.315h-11.7a2.148,2.148,0,0,0-1.4.47,1.644,1.644,0,0,0-.577,1.347,1.82,1.82,0,0,0,.577,1.448,2.046,2.046,0,0,0,1.4.505h7.688a8.855,8.855,0,0,1,3.908.876,10.341,10.341,0,0,1,3.13,2.324,12.051,12.051,0,0,1,2.074,3.064,8.589,8.589,0,0,1,.749,3.638,9.639,9.639,0,0,1-.781,4.176,9.925,9.925,0,0,1-2.279,3.3,10.636,10.636,0,0,1-3.334,2.121,11.235,11.235,0,0,1-4.287.775H362.623a4.322,4.322,0,0,1-3.06-1.212,3.986,3.986,0,0,1-1.294-3.032,4.52,4.52,0,0,1,1.226-3.065,4.079,4.079,0,0,1,2.991-1.448H375c1.227,0,1.838-.537,1.838-1.616A1.615,1.615,0,0,0,375,90.148h-7.48a8.941,8.941,0,0,1-3.844-.842,9.587,9.587,0,0,1-3.127-2.323,11.7,11.7,0,0,1-2.076-3.233,9.5,9.5,0,0,1-.747-3.771,10.131,10.131,0,0,1,.783-3.908,10.375,10.375,0,0,1,5.339-5.557,10.31,10.31,0,0,1,4.013-.909Z" fill="url(#linear-gradient-3)"/>
            <path id="Path_118" data-name="Path 118" d="M394.383,59.3a4.3,4.3,0,0,1,3.2,1.313,5.011,5.011,0,0,1,1.429,3.267v5.389h11.7a4.117,4.117,0,0,1,3.194,1.346,4.56,4.56,0,0,1,1.226,3.166,4.349,4.349,0,0,1-1.362,3.131,4.2,4.2,0,0,1-3.059,1.382h-11.7V85.7a7.521,7.521,0,0,0,.577,2.931,8.041,8.041,0,0,0,1.6,2.458,7.245,7.245,0,0,0,2.414,1.685,7.517,7.517,0,0,0,3.027.606,8.612,8.612,0,0,0,3.025-.472,6.132,6.132,0,0,0,2.208-1.415,4.946,4.946,0,0,1,3.164-1.245,4.612,4.612,0,0,1,3.232,1.314,4.028,4.028,0,0,1,1.02,1.38,4.51,4.51,0,0,1,.373,1.617,4.61,4.61,0,0,1-.237,1.65,3.6,3.6,0,0,1-.884,1.415,17.251,17.251,0,0,1-5.237,3.5,15.511,15.511,0,0,1-6.121,1.212,18.741,18.741,0,0,1-6.666-1.178A16.8,16.8,0,0,1,395,97.793a16.014,16.014,0,0,1-3.773-5.254,17.044,17.044,0,0,1-1.465-6.838V63.542a3.851,3.851,0,0,1,1.4-3.031A4.76,4.76,0,0,1,394.383,59.3Z" fill="url(#linear-gradient-4)"/>
            <path id="Path_119" data-name="Path 119" d="M438.253,69.739a15.078,15.078,0,0,1,6.256,1.347,17.807,17.807,0,0,1,8.909,8.791,14.45,14.45,0,0,1,1.362,6.163,3.285,3.285,0,0,1-1.328,2.761,4.988,4.988,0,0,1-3.3.944H432.06a6.9,6.9,0,0,0,6.193,3.838,7.131,7.131,0,0,0,1.833-.2,8.162,8.162,0,0,0,1.329-.472,12.308,12.308,0,0,1,1.156-.47,3.982,3.982,0,0,1,1.325-.2,4.605,4.605,0,0,1,4.049,2.661,4.292,4.292,0,0,1,.338,2.391,4.213,4.213,0,0,1-1.187,2.358,10.614,10.614,0,0,1-4.085,2.054,21.348,21.348,0,0,1-4.757.639,13.931,13.931,0,0,1-6.259-1.178,17.282,17.282,0,0,1-5.27-3.571,16.87,16.87,0,0,1-3.606-5.287,15.49,15.49,0,0,1-1.325-6.264,14.877,14.877,0,0,1,1.325-6.131,17.311,17.311,0,0,1,8.811-8.823A15.219,15.219,0,0,1,438.253,69.739Zm6.187,12.529a7.06,7.06,0,0,0-2.721-2.931,6.849,6.849,0,0,0-9.658,2.931Z" fill="url(#linear-gradient-5)"/>
            <path id="Path_120" data-name="Path 120" d="M462.259,102.409a4.238,4.238,0,0,1-3.06-1.179,4.619,4.619,0,0,1-1.362-3.133V85.636a15.036,15.036,0,0,1,1.4-6.1,16.3,16.3,0,0,1,3.535-4.984,16.83,16.83,0,0,1,5.168-3.369,18.049,18.049,0,0,1,6.289-1.381,4.263,4.263,0,0,1,3.165,1.28,4.79,4.79,0,0,1,1.393,3.1,4.092,4.092,0,0,1-1.293,3.065,4.662,4.662,0,0,1-3.194,1.314,7.467,7.467,0,0,0-5.307,2.155,7.788,7.788,0,0,0-1.63,2.392,7.3,7.3,0,0,0-.614,3V98.367a4.236,4.236,0,0,1-4.487,4.042Z" fill="url(#linear-gradient-6)"/>
            <path id="Path_121" data-name="Path 121" d="M497.9,69.806a16.008,16.008,0,0,1,5.746,1.752,16.2,16.2,0,0,1,4.628,3.6,17.061,17.061,0,0,1,3.059,4.985,15.721,15.721,0,0,1,1.122,5.895V97.963a4.1,4.1,0,0,1-1.359,3.1,4.385,4.385,0,0,1-6.872-.875,4.273,4.273,0,0,0-.611.3c-.182.113-.363.213-.543.3a18.276,18.276,0,0,1-3.331,1.145,16.764,16.764,0,0,1-3.742.4,15.824,15.824,0,0,1-9.113-2.728,16.864,16.864,0,0,1-5.987-7.039,17.633,17.633,0,0,1-1.053-3.165,15.286,15.286,0,0,1,0-6.736,17.777,17.777,0,0,1,1.053-3.166,16.561,16.561,0,0,1,5.987-7.073,15.974,15.974,0,0,1,9.113-2.695h.987A6.611,6.611,0,0,1,497.9,69.806Zm-1.972,23.777a7.729,7.729,0,0,0,2.958-.571,7.372,7.372,0,0,0,2.412-1.583,7.754,7.754,0,0,0,1.634-2.392,7.329,7.329,0,0,0,.61-3,7.022,7.022,0,0,0-.61-2.864,7.909,7.909,0,0,0-4.114-4.074,7.182,7.182,0,0,0-2.89-.606,6.929,6.929,0,0,0-2.857.606,8.028,8.028,0,0,0-2.416,1.652,7.864,7.864,0,0,0-1.667,2.422,7.022,7.022,0,0,0-.61,2.864,6.816,6.816,0,0,0,.646,2.931,7.924,7.924,0,0,0,1.7,2.39,8.364,8.364,0,0,0,2.414,1.616A6.784,6.784,0,0,0,495.925,93.583Z" fill="url(#linear-gradient-7)"/>
            <path id="Path_122" data-name="Path 122" d="M521.02,59.5a4.162,4.162,0,0,1,3.091,1.279,4.874,4.874,0,0,1,1.4,3.168V90.554a3.222,3.222,0,0,0,.886,2.29,2.934,2.934,0,0,0,2.242.942,4.447,4.447,0,0,1,3.1,1.213,4.093,4.093,0,0,1,.269,5.895,4.718,4.718,0,0,1-2.889,1.515h-.952a10.511,10.511,0,0,1-4.487-.978,12.579,12.579,0,0,1-3.708-2.593,11.982,11.982,0,0,1-2.516-3.773,11.385,11.385,0,0,1-.918-4.511V63.677a4.769,4.769,0,0,1,1.431-2.9A4.4,4.4,0,0,1,521.02,59.5Z" fill="url(#linear-gradient-8)"/>
            <path id="Path_123" data-name="Path 123" d="M540.331,59.367a3.453,3.453,0,0,1,1.7.3,5.428,5.428,0,0,1,1.465.978,4.112,4.112,0,0,1,.986,1.448,4.6,4.6,0,0,1,.337,1.717v7.746a15.851,15.851,0,0,1,4.93-1.583,17.388,17.388,0,0,1,5.069,0,17.636,17.636,0,0,1,4.9,1.482,17.285,17.285,0,0,1,4.42,3,16.935,16.935,0,0,1,3.567,5.222A16.087,16.087,0,0,1,568.9,86.04a15.3,15.3,0,0,1-1.328,6.333A16.981,16.981,0,0,1,564,97.56a16.679,16.679,0,0,1-5.238,3.5,15.914,15.914,0,0,1-6.325,1.28,15.411,15.411,0,0,1-6.256-1.313,17.559,17.559,0,0,1-5.271-3.537,17.179,17.179,0,0,1-3.64-5.187,14.855,14.855,0,0,1-1.359-6.264V63.475a3.354,3.354,0,0,1,.409-1.583,5.006,5.006,0,0,1,1.02-1.347,4.8,4.8,0,0,1,1.394-.909A3.3,3.3,0,0,1,540.331,59.367Zm4.491,26.674a7.174,7.174,0,0,0,.613,2.931,7.456,7.456,0,0,0,1.666,2.39,8.378,8.378,0,0,0,2.417,1.616,7.091,7.091,0,0,0,2.922.606,7.169,7.169,0,0,0,2.89-.606,8.247,8.247,0,0,0,2.448-1.616,7.457,7.457,0,0,0,1.666-2.39,7.284,7.284,0,0,0,0-5.861,7.468,7.468,0,0,0-1.666-2.392,8.271,8.271,0,0,0-2.448-1.616,7.169,7.169,0,0,0-2.89-.606,6.775,6.775,0,0,0-2.922.639A8.617,8.617,0,0,0,547.1,80.82a7.872,7.872,0,0,0-1.666,2.424A6.869,6.869,0,0,0,544.821,86.04Z" fill="url(#linear-gradient-9)"/>
          </g>
          <g id="Group_14" data-name="Group 14">
            <path id="Path_124" data-name="Path 124" d="M287.483,113.882a6.623,6.623,0,0,0-1.8-1.111,5.761,5.761,0,0,0-4.37.015,5.774,5.774,0,0,0-1.8,1.2,5.645,5.645,0,0,0-1.216,1.8,5.527,5.527,0,0,0-.441,2.188,5.41,5.41,0,0,0,.441,2.172,5.689,5.689,0,0,0,3.016,2.986,5.761,5.761,0,0,0,4.37.015,5.926,5.926,0,0,0,1.8-1.172,1,1,0,0,1,1.387,0,.9.9,0,0,1,.269.7,1.127,1.127,0,0,1-.363.768,6.911,6.911,0,0,1-.773.643,6.755,6.755,0,0,1-1.168.669,8.29,8.29,0,0,1-1.515.516,7.746,7.746,0,0,1-7.18-1.925,7.308,7.308,0,0,1-1.642-2.374,7.427,7.427,0,0,1-.6-3,7.3,7.3,0,0,1,.584-2.922,7.406,7.406,0,0,1,1.609-2.376,7.855,7.855,0,0,1,2.431-1.627,8.4,8.4,0,0,1,3.045-.671,6.22,6.22,0,0,1,1.752.234,8.505,8.505,0,0,1,1.451.562,8.165,8.165,0,0,1,1.153.7c.337.25.609.468.822.657a1.274,1.274,0,0,1,.329.577.7.7,0,0,1-.2.768,1,1,0,0,1-1.387,0Z" fill="url(#linear-gradient-10)"/>
            <path id="Path_125" data-name="Path 125" d="M290.638,117.79a7.248,7.248,0,0,1,.583-2.893,7.625,7.625,0,0,1,6.9-4.642,1.127,1.127,0,0,1,.8.281.938.938,0,0,1,0,1.373,1.122,1.122,0,0,1-.8.282,5.564,5.564,0,0,0-2.147.485,5.911,5.911,0,0,0-1.767,1.2,5.4,5.4,0,0,0-1.183,1.765,5.46,5.46,0,0,0-.426,2.142v6.69a.934.934,0,0,1-.284.687.955.955,0,0,1-.695.281.944.944,0,0,1-.695-.281.925.925,0,0,1-.284-.687Z" fill="url(#linear-gradient-11)"/>
            <path id="Path_126" data-name="Path 126" d="M300.232,118.82a5.248,5.248,0,0,0,.663,1.86,5.666,5.666,0,0,0,1.246,1.485,5.748,5.748,0,0,0,1.69.984,5.54,5.54,0,0,0,1.987.36,5.606,5.606,0,0,0,2.179-.422,5.905,5.905,0,0,0,1.8-1.171.994.994,0,0,1,1.391,0,.976.976,0,0,1,0,1.373,5.919,5.919,0,0,1-2.353,1.641,8.624,8.624,0,0,1-3.015.485,7.716,7.716,0,0,1-2.951-.564,7.581,7.581,0,0,1-2.414-1.563,7.3,7.3,0,0,1-1.642-2.375,7.429,7.429,0,0,1-.6-3,7.314,7.314,0,0,1,.583-2.925,7.4,7.4,0,0,1,1.61-2.375,7.848,7.848,0,0,1,2.428-1.626,8.425,8.425,0,0,1,3.047-.673,6.987,6.987,0,0,1,2.856.595,8.248,8.248,0,0,1,2.384,1.595,7.644,7.644,0,0,1,2.334,5.22.863.863,0,0,1-.268.812,1.083,1.083,0,0,1-.71.281Zm5.586-6.533a5.472,5.472,0,0,0-1.972.358,6.043,6.043,0,0,0-1.673.97,5.32,5.32,0,0,0-1.23,1.453,5.775,5.775,0,0,0-.68,1.813h11.142a5.65,5.65,0,0,0-1.941-3.266,6.043,6.043,0,0,0-1.673-.97A5.473,5.473,0,0,0,305.818,112.287Z" fill="url(#linear-gradient-10)"/>
            <path id="Path_127" data-name="Path 127" d="M322.357,110.317a7.045,7.045,0,0,1,2.89.61,8.061,8.061,0,0,1,2.414,1.642,7.893,7.893,0,0,1,1.656,2.407,7.086,7.086,0,0,1,.617,2.94v6.593a.933.933,0,0,1-.285.69,1,1,0,0,1-1.388,0,.933.933,0,0,1-.285-.69v-1.9a9.862,9.862,0,0,1-2.507,1.986,6.362,6.362,0,0,1-3.172.827,7.723,7.723,0,0,1-2.952-.564,7.581,7.581,0,0,1-2.414-1.563,7.276,7.276,0,0,1-1.642-2.375,7.41,7.41,0,0,1-.6-3,7.314,7.314,0,0,1,.584-2.925,7.415,7.415,0,0,1,1.609-2.375,7.865,7.865,0,0,1,2.432-1.626A8.393,8.393,0,0,1,322.357,110.317Zm-5.71,7.6a5.4,5.4,0,0,0,.441,2.171,5.662,5.662,0,0,0,1.215,1.783,5.719,5.719,0,0,0,1.8,1.2,5.7,5.7,0,0,0,4.339.015,5.761,5.761,0,0,0,1.782-1.171,5.688,5.688,0,0,0,1.231-1.768,6.155,6.155,0,0,0,.52-2.233,5.512,5.512,0,0,0-.441-2.19,5.639,5.639,0,0,0-1.216-1.8,5.7,5.7,0,0,0-4.022-1.64,5.575,5.575,0,0,0-2.193.435,5.765,5.765,0,0,0-1.8,1.2,5.635,5.635,0,0,0-1.215,1.8A5.512,5.512,0,0,0,316.646,117.916Z" fill="url(#linear-gradient-10)"/>
            <path id="Path_128" data-name="Path 128" d="M331.543,106.347a.934.934,0,0,1,.284-.688,1,1,0,0,1,1.388,0,.935.935,0,0,1,.285.688v3.846h6.974a1.147,1.147,0,0,1,.806.28.942.942,0,0,1,0,1.377,1.137,1.137,0,0,1-.806.281H333.5v5.785a5.422,5.422,0,0,0,.441,2.171,5.664,5.664,0,0,0,1.216,1.783,5.737,5.737,0,0,0,1.8,1.2,5.52,5.52,0,0,0,2.193.437,5.551,5.551,0,0,0,3.947-1.592.98.98,0,0,1,.646-.33,1.035,1.035,0,0,1,.744.2,1.132,1.132,0,0,1,.314.625,1,1,0,0,1-.157.72,7.374,7.374,0,0,1-2.463,1.7,7.586,7.586,0,0,1-3.03.61,7.483,7.483,0,0,1-2.967-.595,7.538,7.538,0,0,1-4.04-4,7.3,7.3,0,0,1-.6-2.937Z" fill="url(#linear-gradient-10)"/>
            <path id="Path_129" data-name="Path 129" d="M345.524,106.91A1.224,1.224,0,0,1,345.9,106a1.3,1.3,0,0,1,1.83,0,1.28,1.28,0,0,1,0,1.814,1.3,1.3,0,0,1-1.83,0A1.222,1.222,0,0,1,345.524,106.91Zm.318,4.313a.932.932,0,0,1,.281-.687,1,1,0,0,1,1.389,0,.931.931,0,0,1,.285.687V124.48a.931.931,0,0,1-.285.687,1,1,0,0,1-1.389,0,.932.932,0,0,1-.281-.687Z" fill="url(#linear-gradient-15)"/>
            <path id="Path_130" data-name="Path 130" d="M349.25,111.694a1.007,1.007,0,0,1,0-.783.962.962,0,0,1,.5-.562.744.744,0,0,1,.708.047,2.021,2.021,0,0,1,.553.484l4.1,11.065,4.262-11.065a1.306,1.306,0,0,1,.566-.5.821.821,0,0,1,.7,0,.941.941,0,0,1,.5,1.25c-.02.042-.1.256-.237.642s-.389,1.062-.757,2.032-.873,2.293-1.514,3.969-1.47,3.809-2.477,6.393a1.4,1.4,0,0,1-.366.561,1.115,1.115,0,0,1-1.387-.045,1.511,1.511,0,0,1-.366-.516q-1.323-3.6-2.24-6.064t-1.484-4c-.379-1.021-.651-1.755-.82-2.2S349.25,111.714,349.25,111.694Z" fill="url(#linear-gradient-10)"/>
            <path id="Path_131" data-name="Path 131" d="M363.263,118.82a5.249,5.249,0,0,0,.663,1.86,5.636,5.636,0,0,0,1.245,1.485,5.8,5.8,0,0,0,1.69.984,5.55,5.55,0,0,0,1.991.36,5.611,5.611,0,0,0,2.177-.422,5.905,5.905,0,0,0,1.8-1.171,1,1,0,0,1,1.392,0,.979.979,0,0,1,0,1.373,5.919,5.919,0,0,1-2.353,1.641,8.622,8.622,0,0,1-3.013.485,7.729,7.729,0,0,1-2.953-.564,7.534,7.534,0,0,1-2.413-1.563,7.26,7.26,0,0,1-1.643-2.375,7.429,7.429,0,0,1-.6-3,7.314,7.314,0,0,1,.584-2.925,7.4,7.4,0,0,1,1.61-2.375,7.816,7.816,0,0,1,2.431-1.626,8.394,8.394,0,0,1,3.045-.673,6.969,6.969,0,0,1,2.855.595,8.238,8.238,0,0,1,2.385,1.595,7.617,7.617,0,0,1,2.336,5.22.858.858,0,0,1-.27.812,1.08,1.08,0,0,1-.71.281Zm5.589-6.533a5.47,5.47,0,0,0-1.975.358,6.018,6.018,0,0,0-1.672.97,5.28,5.28,0,0,0-1.231,1.453,5.774,5.774,0,0,0-.68,1.813h11.141a5.51,5.51,0,0,0-.693-1.813,5.578,5.578,0,0,0-1.245-1.453,5.985,5.985,0,0,0-1.676-.97A5.453,5.453,0,0,0,368.852,112.287Z" fill="url(#linear-gradient-10)"/>
          </g>
          <g id="Group_15" data-name="Group 15">
            <path id="Path_132" data-name="Path 132" d="M279.1,132.416a.321.321,0,0,1,.1-.236.345.345,0,0,1,.477,0,.316.316,0,0,1,.1.236v3.112a1.042,1.042,0,0,0,.088.423,1.119,1.119,0,0,0,.231.35,1.082,1.082,0,0,0,.348.236,1.109,1.109,0,0,0,.855,0,1.129,1.129,0,0,0,.592-.586,1.041,1.041,0,0,0,.087-.423v-3.112a.321.321,0,0,1,.1-.236.325.325,0,0,1,.24-.1.321.321,0,0,1,.236.1.314.314,0,0,1,.1.236v3.112a1.727,1.727,0,0,1-.141.687,1.769,1.769,0,0,1-.381.559,1.814,1.814,0,0,1-.563.376,1.727,1.727,0,0,1-.695.139,1.688,1.688,0,0,1-.822-.2,1.848,1.848,0,0,1-.618-.531,1.763,1.763,0,0,1-.607.531,1.707,1.707,0,0,1-.825.2,1.747,1.747,0,0,1-.693-.139,1.844,1.844,0,0,1-.563-.376,1.753,1.753,0,0,1-.509-1.245v-3.112a.313.313,0,0,1,.1-.236.344.344,0,0,1,.476,0,.313.313,0,0,1,.1.236v3.112a1.061,1.061,0,0,0,.085.423,1.127,1.127,0,0,0,.234.35,1.07,1.07,0,0,0,.774.322,1.059,1.059,0,0,0,.765-.311,1.129,1.129,0,0,0,.342-.784Z" fill="#818386"/>
            <path id="Path_133" data-name="Path 133" d="M286.16,132.416a.313.313,0,0,1,.1-.236.321.321,0,0,1,.239-.1.326.326,0,0,1,.237.1.313.313,0,0,1,.1.236v3.112a1.02,1.02,0,0,0,.087.423,1.081,1.081,0,0,0,.232.35,1.037,1.037,0,0,0,.347.236,1.109,1.109,0,0,0,.855,0,1.117,1.117,0,0,0,.353-.236,1.1,1.1,0,0,0,.239-.35,1.04,1.04,0,0,0,.085-.423v-3.112a.331.331,0,0,1,.337-.332.326.326,0,0,1,.239.1.316.316,0,0,1,.1.236v3.112a1.685,1.685,0,0,1-.141.687,1.765,1.765,0,0,1-.379.559,1.814,1.814,0,0,1-.563.376,1.734,1.734,0,0,1-.693.139,1.7,1.7,0,0,1-.824-.2,1.873,1.873,0,0,1-.618-.531,1.751,1.751,0,0,1-.607.531,1.7,1.7,0,0,1-.823.2,1.729,1.729,0,0,1-.693-.139,1.82,1.82,0,0,1-.564-.376,1.708,1.708,0,0,1-.373-.559,1.745,1.745,0,0,1-.134-.687v-3.112a.316.316,0,0,1,.1-.236.322.322,0,0,1,.237-.1.329.329,0,0,1,.24.1.32.32,0,0,1,.1.236v3.112a1.063,1.063,0,0,0,.088.423,1.145,1.145,0,0,0,.232.35,1.095,1.095,0,0,0,1.54.011,1.128,1.128,0,0,0,.34-.784Z" fill="#818386"/>
            <path id="Path_134" data-name="Path 134" d="M293.223,132.416a.313.313,0,0,1,.1-.236.325.325,0,0,1,.239-.1.32.32,0,0,1,.237.1.313.313,0,0,1,.1.236v3.112a1.062,1.062,0,0,0,.087.423,1.123,1.123,0,0,0,.232.35,1.082,1.082,0,0,0,.776.322,1.042,1.042,0,0,0,.426-.086,1.089,1.089,0,0,0,.353-.236,1.04,1.04,0,0,0,.239-.35,1.021,1.021,0,0,0,.088-.423v-3.112a.325.325,0,0,1,.1-.236.33.33,0,0,1,.241-.1.326.326,0,0,1,.237.1.32.32,0,0,1,.1.236v3.112a1.684,1.684,0,0,1-.139.687,1.769,1.769,0,0,1-.381.559,1.794,1.794,0,0,1-.561.376,1.743,1.743,0,0,1-.693.139,1.7,1.7,0,0,1-.824-.2,1.861,1.861,0,0,1-.618-.531,1.734,1.734,0,0,1-.608.531,1.688,1.688,0,0,1-.821.2,1.731,1.731,0,0,1-.695-.139,1.823,1.823,0,0,1-.561-.376,1.715,1.715,0,0,1-.376-.559,1.768,1.768,0,0,1-.134-.687v-3.112a.316.316,0,0,1,.1-.236.325.325,0,0,1,.24-.1.329.329,0,0,1,.334.332v3.112a1.084,1.084,0,0,0,.087.423,1.149,1.149,0,0,0,.234.35,1.093,1.093,0,0,0,1.539.011,1.123,1.123,0,0,0,.34-.784Z" fill="#818386"/>
            <path id="Path_135" data-name="Path 135" d="M296.974,136.849a.425.425,0,0,1,.128-.312.452.452,0,0,1,.631,0,.425.425,0,0,1,.128.312.43.43,0,0,1-.128.311.452.452,0,0,1-.631,0A.43.43,0,0,1,296.974,136.849Z" fill="#818386"/>
            <path id="Path_136" data-name="Path 136" d="M301.306,133.844a1.123,1.123,0,0,0-.34-.784,1.059,1.059,0,0,0-.765-.312,1.1,1.1,0,0,0-.427.086,1.062,1.062,0,0,0-.347.236,1.155,1.155,0,0,0-.232.348,1.029,1.029,0,0,0-.088.425v3.11a.326.326,0,0,1-.1.238.345.345,0,0,1-.477,0,.326.326,0,0,1-.1-.238v-3.11a1.789,1.789,0,0,1,.134-.689,1.746,1.746,0,0,1,.374-.557,1.826,1.826,0,0,1,.563-.374,1.734,1.734,0,0,1,.693-.139,1.711,1.711,0,0,1,.824.2,1.773,1.773,0,0,1,.605.531,1.894,1.894,0,0,1,.619-.531,1.8,1.8,0,0,1,1.516-.058,1.767,1.767,0,0,1,.943.932,1.705,1.705,0,0,1,.141.689v3.11a.322.322,0,0,1-.1.238.327.327,0,0,1-.237.1.332.332,0,0,1-.239-.1.318.318,0,0,1-.1-.238v-3.11a1.069,1.069,0,0,0-.087-.425,1.146,1.146,0,0,0-.237-.348,1.125,1.125,0,0,0-.352-.236,1.115,1.115,0,0,0-.858,0,1.044,1.044,0,0,0-.345.236,1.182,1.182,0,0,0-.234.348,1.028,1.028,0,0,0-.085.425v3.11a.327.327,0,0,1-.1.238.334.334,0,0,1-.239.1.323.323,0,0,1-.237-.1.319.319,0,0,1-.1-.238Z" fill="#818386"/>
            <path id="Path_137" data-name="Path 137" d="M308.047,132.094a2.421,2.421,0,0,1,.991.209,2.754,2.754,0,0,1,.829.564,2.724,2.724,0,0,1,.568.825,2.442,2.442,0,0,1,.212,1.01v2.266a.311.311,0,0,1-.1.235.335.335,0,0,1-.573-.235v-.656a3.367,3.367,0,0,1-.862.681,2.172,2.172,0,0,1-1.089.285,2.631,2.631,0,0,1-1.842-.729,2.508,2.508,0,0,1-.564-.815,2.569,2.569,0,0,1,.549-2.85,2.668,2.668,0,0,1,.834-.56A2.917,2.917,0,0,1,308.047,132.094Zm-1.963,2.608a1.861,1.861,0,0,0,.152.745,2,2,0,0,0,.418.612,1.967,1.967,0,0,0,.618.413,1.956,1.956,0,0,0,1.49.006,1.974,1.974,0,0,0,.613-.4,1.947,1.947,0,0,0,.421-.607,2.1,2.1,0,0,0,.18-.766,1.921,1.921,0,0,0-.569-1.367,1.973,1.973,0,0,0-1.382-.565,1.907,1.907,0,0,0-.752.152,1.944,1.944,0,0,0-1.036,1.029A1.9,1.9,0,0,0,306.083,134.7Z" fill="#818386"/>
            <path id="Path_138" data-name="Path 138" d="M311.3,136.954a.314.314,0,0,1,.1-.235.326.326,0,0,1,.239-.1h2.341a.762.762,0,0,0,0-1.524h-1.269a1.5,1.5,0,0,1-.592-.117,1.539,1.539,0,0,1-.481-.323,1.482,1.482,0,0,1-.324-.476,1.439,1.439,0,0,1-.119-.586,1.474,1.474,0,0,1,.119-.59,1.5,1.5,0,0,1,.324-.483,1.533,1.533,0,0,1,.481-.321,1.477,1.477,0,0,1,.592-.118h2.21a.329.329,0,0,1,.335.332.318.318,0,0,1-.1.235.329.329,0,0,1-.239.1h-2.21a.859.859,0,0,0-.6.258.822.822,0,0,0,0,1.181.818.818,0,0,0,.6.248h1.269a1.441,1.441,0,0,1,.556.111,1.5,1.5,0,0,1,.461.307,1.437,1.437,0,0,1,.309.455,1.412,1.412,0,0,1,0,1.107,1.451,1.451,0,0,1-.309.455,1.47,1.47,0,0,1-1.017.418h-2.341a.33.33,0,0,1-.239-.1A.321.321,0,0,1,311.3,136.954Z" fill="#818386"/>
            <path id="Path_139" data-name="Path 139" d="M315.957,130.678a.32.32,0,0,1,.1-.236.327.327,0,0,1,.236-.1.334.334,0,0,1,.241.1.325.325,0,0,1,.1.236v1.372h2.4a.39.39,0,0,1,.275.1.31.31,0,0,1,.1.236.314.314,0,0,1-.1.236.388.388,0,0,1-.275.095h-2.4V134.7a1.84,1.84,0,0,0,.152.745,1.875,1.875,0,0,0,.418.612,1.941,1.941,0,0,0,.616.413,1.9,1.9,0,0,0,.754.151,1.919,1.919,0,0,0,.749-.144,1.9,1.9,0,0,0,.605-.4.358.358,0,0,1,.476-.044.4.4,0,0,1,.111.215.336.336,0,0,1-.055.246,2.546,2.546,0,0,1-.845.586,2.64,2.64,0,0,1-1.04.209,2.552,2.552,0,0,1-1.02-.2,2.647,2.647,0,0,1-.828-.554,2.59,2.59,0,0,1-.556-.82,2.435,2.435,0,0,1-.206-1.009Z" fill="#818386"/>
            <path id="Path_140" data-name="Path 140" d="M321.483,135.012a1.789,1.789,0,0,0,.227.639,1.931,1.931,0,0,0,.427.509,2.013,2.013,0,0,0,.579.338,1.983,1.983,0,0,0,1.431-.021,1.991,1.991,0,0,0,.617-.4.336.336,0,0,1,.24-.1.331.331,0,0,1,.335.333.326.326,0,0,1-.1.236,2.032,2.032,0,0,1-.806.564,2.991,2.991,0,0,1-1.036.165,2.656,2.656,0,0,1-1.012-.193,2.6,2.6,0,0,1-.829-.536,2.508,2.508,0,0,1-.564-.815,2.56,2.56,0,0,1-.2-1.031,2.5,2.5,0,0,1,.2-1,2.556,2.556,0,0,1,.553-.816,2.682,2.682,0,0,1,.834-.56,2.912,2.912,0,0,1,1.046-.229,2.4,2.4,0,0,1,.98.2,2.853,2.853,0,0,1,.819.547,2.634,2.634,0,0,1,.8,1.792.294.294,0,0,1-.093.279.362.362,0,0,1-.244.1Zm1.917-2.243a1.868,1.868,0,0,0-.677.124,2.1,2.1,0,0,0-.575.331,1.82,1.82,0,0,0-.421.5,1.946,1.946,0,0,0-.232.623h3.825a1.906,1.906,0,0,0-.241-.623,1.931,1.931,0,0,0-.426-.5,2.058,2.058,0,0,0-.574-.331A1.874,1.874,0,0,0,323.4,132.769Z" fill="#818386"/>
            <path id="Path_141" data-name="Path 141" d="M326.488,134.658a2.461,2.461,0,0,1,.2-.992,2.607,2.607,0,0,1,.55-.821,2.641,2.641,0,0,1,.819-.557,2.576,2.576,0,0,1,1-.216.389.389,0,0,1,.276.1.323.323,0,0,1,0,.473.382.382,0,0,1-.276.1,1.927,1.927,0,0,0-.735.167,2.062,2.062,0,0,0-.608.413,1.816,1.816,0,0,0-.406.606,1.884,1.884,0,0,0-.147.735v2.3a.326.326,0,0,1-.1.238.333.333,0,0,1-.24.1.329.329,0,0,1-.334-.333Z" fill="#818386"/>
            <path id="Path_142" data-name="Path 142" d="M331.723,132.094a2.4,2.4,0,0,1,.989.209,2.734,2.734,0,0,1,1.4,1.388,2.461,2.461,0,0,1,.211,1.01v2.266a.319.319,0,0,1-.1.235.34.34,0,0,1-.476,0,.315.315,0,0,1-.1-.235v-.656a3.345,3.345,0,0,1-.862.681,2.154,2.154,0,0,1-1.088.285,2.631,2.631,0,0,1-1.841-.729,2.528,2.528,0,0,1-.564-.815,2.56,2.56,0,0,1-.206-1.031,2.5,2.5,0,0,1,.2-1,2.553,2.553,0,0,1,.551-.816,2.71,2.71,0,0,1,.837-.56A2.906,2.906,0,0,1,331.723,132.094Zm-1.963,2.608a1.84,1.84,0,0,0,.152.745,1.95,1.95,0,0,0,1.034,1.025,1.959,1.959,0,0,0,1.491.006,1.954,1.954,0,0,0,.612-.4,1.933,1.933,0,0,0,.423-.607,2.1,2.1,0,0,0,.177-.766,1.927,1.927,0,0,0-.568-1.367,1.921,1.921,0,0,0-.623-.413,1.947,1.947,0,0,0-.759-.152,1.913,1.913,0,0,0-.754.152,1.961,1.961,0,0,0-.617.413,1.926,1.926,0,0,0-.417.616A1.878,1.878,0,0,0,329.759,134.7Z" fill="#818386"/>
            <path id="Path_143" data-name="Path 143" d="M337.041,136.954a.322.322,0,0,1-.1.238.328.328,0,0,1-.239.1,1.8,1.8,0,0,1-.834-.194,1.734,1.734,0,0,1-.85-1.019,1.832,1.832,0,0,1-.092-.536v-4.861a.329.329,0,0,1,.1-.236.337.337,0,0,1,.241-.1.33.33,0,0,1,.237.1.325.325,0,0,1,.1.236v4.861a1.191,1.191,0,0,0,.04.258,1.04,1.04,0,0,0,.156.353,1.1,1.1,0,0,0,.335.322,1.093,1.093,0,0,0,.574.151.324.324,0,0,1,.239.1A.315.315,0,0,1,337.041,136.954Z" fill="#818386"/>
            <path id="Path_144" data-name="Path 144" d="M340,132.094a2.417,2.417,0,0,1,.991.209,2.77,2.77,0,0,1,.829.564,2.7,2.7,0,0,1,.568.825,2.516,2.516,0,0,1,.006,2,2.7,2.7,0,0,1-.559.822,2.6,2.6,0,0,1-1.857.76,2.653,2.653,0,0,1-1.014-.193,2.619,2.619,0,0,1-.829-.536,2.525,2.525,0,0,1-.769-1.846v-4.012a.316.316,0,0,1,.1-.238.325.325,0,0,1,.237-.095.327.327,0,0,1,.338.332v2.381a3.591,3.591,0,0,1,.855-.671A2.361,2.361,0,0,1,340,132.094Zm-1.961,2.608a1.882,1.882,0,0,0,.149.745,1.955,1.955,0,0,0,1.036,1.025,1.9,1.9,0,0,0,.754.151,1.965,1.965,0,0,0,1.381-.564,1.952,1.952,0,0,0,.417-.612,1.84,1.84,0,0,0,.152-.745,1.878,1.878,0,0,0-.152-.751,1.938,1.938,0,0,0-3.143-.633,2.034,2.034,0,0,0-.421.612A1.946,1.946,0,0,0,338.039,134.7Z" fill="#818386"/>
            <path id="Path_145" data-name="Path 145" d="M342.436,136.849a.422.422,0,0,1,.131-.312.449.449,0,0,1,.628,0,.426.426,0,0,1,.129.312.444.444,0,0,1-.888,0Z" fill="#818386"/>
            <path id="Path_146" data-name="Path 146" d="M347.757,133.294a2.354,2.354,0,0,0-.618-.381,1.931,1.931,0,0,0-.747-.144,1.941,1.941,0,0,0-1.787,1.181,1.858,1.858,0,0,0-.153.751,1.821,1.821,0,0,0,.153.745,1.95,1.95,0,0,0,1.034,1.025,1.886,1.886,0,0,0,.754.151,1.908,1.908,0,0,0,.747-.144,2.011,2.011,0,0,0,.618-.4.34.34,0,0,1,.476,0,.3.3,0,0,1,.092.243.387.387,0,0,1-.123.262,2.858,2.858,0,0,1-.265.22,2.5,2.5,0,0,1-.4.23,2.731,2.731,0,0,1-.52.177,2.661,2.661,0,0,1-2.463-.659,2.509,2.509,0,0,1-.564-.815,2.572,2.572,0,0,1,.548-2.85,2.7,2.7,0,0,1,.834-.56,2.917,2.917,0,0,1,1.045-.229,2.135,2.135,0,0,1,.6.08,2.965,2.965,0,0,1,.5.194,2.649,2.649,0,0,1,.4.241c.116.085.208.16.281.225a.445.445,0,0,1,.114.2.236.236,0,0,1-.072.26.337.337,0,0,1-.476,0Z" fill="#818386"/>
            <path id="Path_147" data-name="Path 147" d="M351.474,132.094a2.411,2.411,0,0,1,.99.209,2.713,2.713,0,0,1,1.4,1.388,2.5,2.5,0,0,1,.005,2,2.669,2.669,0,0,1-.558.822,2.608,2.608,0,0,1-1.858.76,2.651,2.651,0,0,1-1.012-.193,2.619,2.619,0,0,1-.829-.536,2.509,2.509,0,0,1-.564-.815,2.539,2.539,0,0,1-.206-1.031,2.5,2.5,0,0,1,.2-1,2.574,2.574,0,0,1,.551-.816,2.7,2.7,0,0,1,.835-.56A2.906,2.906,0,0,1,351.474,132.094Zm-1.962,2.608a1.841,1.841,0,0,0,.152.745,1.95,1.95,0,0,0,1.034,1.025,1.89,1.89,0,0,0,.754.151,1.918,1.918,0,0,0,.757-.151,1.93,1.93,0,0,0,1.041-1.025,1.86,1.86,0,0,0,.15-.745,1.905,1.905,0,0,0-.567-1.367,1.979,1.979,0,0,0-1.382-.565,1.913,1.913,0,0,0-.754.152,1.933,1.933,0,0,0-.617.413,1.906,1.906,0,0,0-.417.616A1.879,1.879,0,0,0,349.512,134.7Z" fill="#818386"/>
            <path id="Path_148" data-name="Path 148" d="M357.509,133.844a1.123,1.123,0,0,0-.34-.784,1.059,1.059,0,0,0-.765-.312,1.105,1.105,0,0,0-.428.086,1.062,1.062,0,0,0-.347.236,1.2,1.2,0,0,0-.231.348,1.01,1.01,0,0,0-.089.425v3.11a.321.321,0,0,1-.1.238.336.336,0,0,1-.574-.238v-3.11a1.789,1.789,0,0,1,.134-.689,1.747,1.747,0,0,1,.374-.557,1.827,1.827,0,0,1,.563-.374,1.749,1.749,0,0,1,.695-.139,1.714,1.714,0,0,1,.823.2,1.743,1.743,0,0,1,.607.531,1.894,1.894,0,0,1,.619-.531,1.705,1.705,0,0,1,.822-.2,1.74,1.74,0,0,1,.695.139,1.811,1.811,0,0,1,.563.374,1.781,1.781,0,0,1,.379.557,1.725,1.725,0,0,1,.139.689v3.11a.321.321,0,0,1-.1.238.328.328,0,0,1-.236.1.331.331,0,0,1-.337-.333v-3.11a1.069,1.069,0,0,0-.085-.425,1.158,1.158,0,0,0-.241-.348,1.12,1.12,0,0,0-.35-.236,1.111,1.111,0,0,0-.857,0,1.03,1.03,0,0,0-.345.236,1.158,1.158,0,0,0-.234.348,1.029,1.029,0,0,0-.088.425v3.11a.325.325,0,0,1-.1.238.335.335,0,0,1-.24.1.33.33,0,0,1-.239-.1.326.326,0,0,1-.1-.238Z" fill="#818386"/>
          </g>
        </g>
        <path id="Color_Overlay-2" data-name="Color Overlay" d="M57.849,77.9a.315.315,0,0,1-.1-.235v-.656a3.346,3.346,0,0,1-.862.681,2.155,2.155,0,0,1-1.088.285,2.636,2.636,0,0,1-1.842-.729,2.518,2.518,0,0,1-.564-.815,2.553,2.553,0,0,1-.206-1.031,2.511,2.511,0,0,1,.2-1,2.55,2.55,0,0,1,.552-.816,2.713,2.713,0,0,1,.837-.56,2.911,2.911,0,0,1,1.046-.229,2.4,2.4,0,0,1,.989.209,2.736,2.736,0,0,1,1.4,1.388,2.463,2.463,0,0,1,.211,1.01v2.266a.319.319,0,0,1-.1.235.34.34,0,0,1-.476,0Zm-2.8-4.281a1.953,1.953,0,0,0-.616.413,1.918,1.918,0,0,0-.417.616,1.87,1.87,0,0,0-.152.751,1.835,1.835,0,0,0,.152.746,1.953,1.953,0,0,0,1.033,1.025,1.959,1.959,0,0,0,1.491.006,1.957,1.957,0,0,0,1.035-1.01,2.107,2.107,0,0,0,.177-.767,1.926,1.926,0,0,0-.568-1.367,1.923,1.923,0,0,0-.623-.413,1.955,1.955,0,0,0-.759-.152A1.92,1.92,0,0,0,55.046,73.622ZM34.174,77.9a.324.324,0,0,1-.1-.235v-.656a3.369,3.369,0,0,1-.862.681,2.175,2.175,0,0,1-1.089.285,2.636,2.636,0,0,1-1.842-.729,2.5,2.5,0,0,1-.564-.815,2.566,2.566,0,0,1,.549-2.85,2.669,2.669,0,0,1,.834-.56,2.922,2.922,0,0,1,1.045-.229,2.417,2.417,0,0,1,.992.209,2.759,2.759,0,0,1,.829.564,2.716,2.716,0,0,1,.568.825,2.443,2.443,0,0,1,.213,1.01v2.266a.311.311,0,0,1-.1.235.339.339,0,0,1-.475,0Zm-2.8-4.281a1.941,1.941,0,0,0-1.036,1.029,1.893,1.893,0,0,0-.152.751,1.858,1.858,0,0,0,.152.746,2.005,2.005,0,0,0,.418.612,1.969,1.969,0,0,0,.618.413,1.956,1.956,0,0,0,1.49.006,1.936,1.936,0,0,0,1.034-1.01,2.123,2.123,0,0,0,.18-.767,1.92,1.92,0,0,0-.569-1.367,1.933,1.933,0,0,0-.624-.413,1.954,1.954,0,0,0-.758-.152A1.913,1.913,0,0,0,31.373,73.622ZM84.58,77.893a.321.321,0,0,1-.1-.238v-3.11a1.07,1.07,0,0,0-.085-.426,1.155,1.155,0,0,0-.242-.348,1.12,1.12,0,0,0-.35-.236,1.114,1.114,0,0,0-.857,0,1.028,1.028,0,0,0-.345.236,1.157,1.157,0,0,0-.234.348,1.027,1.027,0,0,0-.088.426v3.11a.323.323,0,0,1-.095.238.335.335,0,0,1-.24.1.33.33,0,0,1-.239-.1.325.325,0,0,1-.1-.238v-3.11a1.121,1.121,0,0,0-.34-.784,1.06,1.06,0,0,0-.765-.312,1.106,1.106,0,0,0-.429.086,1.068,1.068,0,0,0-.346.236,1.2,1.2,0,0,0-.231.348,1.017,1.017,0,0,0-.089.426v3.11a.32.32,0,0,1-.1.238.336.336,0,0,1-.574-.238v-3.11a1.8,1.8,0,0,1,.134-.69,1.755,1.755,0,0,1,.375-.557,1.825,1.825,0,0,1,.562-.375,1.753,1.753,0,0,1,.695-.139,1.708,1.708,0,0,1,.823.2,1.739,1.739,0,0,1,.607.531,1.891,1.891,0,0,1,.62-.531,1.7,1.7,0,0,1,.821-.2,1.746,1.746,0,0,1,.695.139,1.809,1.809,0,0,1,.562.375,1.779,1.779,0,0,1,.379.557,1.729,1.729,0,0,1,.139.69v3.11a.317.317,0,0,1-.1.238.327.327,0,0,1-.236.1A.323.323,0,0,1,84.58,77.893Zm-17.911-.032a.437.437,0,0,1,0-.623.448.448,0,0,1,.628,0,.426.426,0,0,1,.13.313.431.431,0,0,1-.13.311.448.448,0,0,1-.628,0Zm-6.7-.065a1.738,1.738,0,0,1-.85-1.019,1.816,1.816,0,0,1-.091-.536V71.379a.326.326,0,0,1,.1-.236.335.335,0,0,1,.241-.1.33.33,0,0,1,.237.1.324.324,0,0,1,.1.236V76.24a1.15,1.15,0,0,0,.04.257,1.041,1.041,0,0,0,.155.354,1.109,1.109,0,0,0,.336.322,1.09,1.09,0,0,0,.574.151.324.324,0,0,1,.239.1.314.314,0,0,1,.1.235.32.32,0,0,1-.1.238.328.328,0,0,1-.239.1A1.807,1.807,0,0,1,59.972,77.8Zm-9.285.1a.325.325,0,0,1-.1-.238v-2.3a2.459,2.459,0,0,1,.2-.992,2.6,2.6,0,0,1,.55-.821,2.632,2.632,0,0,1,.819-.558,2.577,2.577,0,0,1,1-.217.389.389,0,0,1,.276.1.323.323,0,0,1,0,.473.382.382,0,0,1-.276.1,1.929,1.929,0,0,0-.735.167,2.068,2.068,0,0,0-.608.413,1.809,1.809,0,0,0-.406.606,1.877,1.877,0,0,0-.147.735v2.3a.324.324,0,0,1-.1.238.334.334,0,0,1-.24.1A.329.329,0,0,1,50.686,77.893Zm-9.038-.108a2.651,2.651,0,0,1-.828-.553,2.583,2.583,0,0,1-.556-.82,2.436,2.436,0,0,1-.206-1.009V71.379a.318.318,0,0,1,.1-.236.329.329,0,0,1,.237-.1.335.335,0,0,1,.241.1.324.324,0,0,1,.1.236v1.372h2.4a.39.39,0,0,1,.275.1.31.31,0,0,1,.1.236.316.316,0,0,1-.1.236.389.389,0,0,1-.275.094h-2.4V75.4a1.846,1.846,0,0,0,.152.746,1.874,1.874,0,0,0,.418.612,1.927,1.927,0,0,0,.616.413,1.885,1.885,0,0,0,.753.151,1.918,1.918,0,0,0,.749-.144,1.881,1.881,0,0,0,.605-.4.358.358,0,0,1,.476-.043.4.4,0,0,1,.11.215.34.34,0,0,1-.055.246,2.556,2.556,0,0,1-.846.586,2.645,2.645,0,0,1-1.04.209A2.546,2.546,0,0,1,41.648,77.785Zm-5.914.2a.328.328,0,0,1-.238-.1.32.32,0,0,1-.1-.238.314.314,0,0,1,.1-.235.324.324,0,0,1,.238-.1h2.342a.762.762,0,0,0,0-1.524H36.807a1.5,1.5,0,0,1-.591-.117,1.54,1.54,0,0,1-.482-.323,1.479,1.479,0,0,1-.324-.477,1.433,1.433,0,0,1-.12-.586,1.471,1.471,0,0,1,.12-.59,1.5,1.5,0,0,1,.324-.483,1.532,1.532,0,0,1,.482-.321,1.474,1.474,0,0,1,.591-.118h2.21a.328.328,0,0,1,.335.332.316.316,0,0,1-.1.235.327.327,0,0,1-.238.1h-2.21a.86.86,0,0,0-.6.257.823.823,0,0,0,0,1.181.818.818,0,0,0,.6.248h1.269a1.436,1.436,0,0,1,.556.111,1.518,1.518,0,0,1,.461.307,1.442,1.442,0,0,1,.309.456,1.412,1.412,0,0,1,0,1.107,1.45,1.45,0,0,1-.309.456,1.467,1.467,0,0,1-1.018.418Zm-7.357-.1a.316.316,0,0,1-.1-.238v-3.11a1.071,1.071,0,0,0-.087-.426,1.142,1.142,0,0,0-.237-.348,1.129,1.129,0,0,0-.352-.236,1.115,1.115,0,0,0-.858,0,1.051,1.051,0,0,0-.346.236,1.193,1.193,0,0,0-.233.348,1.026,1.026,0,0,0-.085.426v3.11a.326.326,0,0,1-.1.238.334.334,0,0,1-.239.1.322.322,0,0,1-.237-.1.317.317,0,0,1-.1-.238v-3.11a1.121,1.121,0,0,0-.34-.784,1.06,1.06,0,0,0-.765-.312,1.1,1.1,0,0,0-.427.086,1.061,1.061,0,0,0-.346.236,1.153,1.153,0,0,0-.233.348,1.038,1.038,0,0,0-.087.426v3.11a.325.325,0,0,1-.1.238.345.345,0,0,1-.478,0,.325.325,0,0,1-.1-.238v-3.11a1.8,1.8,0,0,1,.135-.69,1.744,1.744,0,0,1,.375-.557,1.825,1.825,0,0,1,.562-.375,1.737,1.737,0,0,1,.694-.139,1.706,1.706,0,0,1,.824.2,1.771,1.771,0,0,1,.605.531,1.891,1.891,0,0,1,.62-.531,1.706,1.706,0,0,1,.824-.2,1.733,1.733,0,0,1,.692.139,1.772,1.772,0,0,1,.943.932,1.707,1.707,0,0,1,.141.69v3.11a.321.321,0,0,1-.1.238.326.326,0,0,1-.237.1A.331.331,0,0,1,28.377,77.893ZM21.2,77.861a.444.444,0,0,1,0-.623.452.452,0,0,1,.631,0,.444.444,0,0,1,0,.623.452.452,0,0,1-.631,0Zm-2.935-.071a1.849,1.849,0,0,1-.618-.531,1.728,1.728,0,0,1-.608.531,1.681,1.681,0,0,1-.821.2,1.734,1.734,0,0,1-.695-.139,1.81,1.81,0,0,1-.561-.376,1.71,1.71,0,0,1-.376-.558,1.775,1.775,0,0,1-.135-.687V73.117a.318.318,0,0,1,.1-.237.328.328,0,0,1,.24-.1.328.328,0,0,1,.334.332v3.111a1.086,1.086,0,0,0,.086.423,1.154,1.154,0,0,0,.234.35,1.093,1.093,0,0,0,1.538.011,1.118,1.118,0,0,0,.34-.784V73.117a.314.314,0,0,1,.1-.237.327.327,0,0,1,.239-.1.322.322,0,0,1,.237.1.316.316,0,0,1,.1.237v3.111a1.063,1.063,0,0,0,.087.423,1.136,1.136,0,0,0,.232.35,1.063,1.063,0,0,0,.348.236,1.049,1.049,0,0,0,.428.086,1.035,1.035,0,0,0,.426-.086A1.09,1.09,0,0,0,19.87,77a1.046,1.046,0,0,0,.239-.35,1.019,1.019,0,0,0,.088-.423V73.117a.325.325,0,0,1,.1-.237.331.331,0,0,1,.241-.1.328.328,0,0,1,.237.1.322.322,0,0,1,.1.237v3.111a1.684,1.684,0,0,1-.139.687,1.778,1.778,0,0,1-.942.934,1.744,1.744,0,0,1-.694.139A1.691,1.691,0,0,1,18.268,77.79Zm-7.065,0a1.868,1.868,0,0,1-.618-.531,1.748,1.748,0,0,1-.607.531,1.694,1.694,0,0,1-.823.2,1.735,1.735,0,0,1-.694-.139,1.807,1.807,0,0,1-.564-.376,1.714,1.714,0,0,1-.373-.558,1.75,1.75,0,0,1-.134-.687V73.117a.318.318,0,0,1,.1-.237.324.324,0,0,1,.237-.1.332.332,0,0,1,.24.1.322.322,0,0,1,.1.237v3.111a1.052,1.052,0,0,0,.088.423,1.136,1.136,0,0,0,.232.35,1.069,1.069,0,0,0,.775.322,1.062,1.062,0,0,0,.765-.311,1.123,1.123,0,0,0,.34-.784V73.117a.314.314,0,0,1,.1-.237.322.322,0,0,1,.239-.1.328.328,0,0,1,.237.1.314.314,0,0,1,.1.237v3.111a1.018,1.018,0,0,0,.087.423,1.081,1.081,0,0,0,.233.35,1.034,1.034,0,0,0,.346.236,1.111,1.111,0,0,0,.856,0A1.124,1.124,0,0,0,12.807,77a1.1,1.1,0,0,0,.239-.35,1.039,1.039,0,0,0,.085-.423V73.117a.34.34,0,0,1,.575-.237.318.318,0,0,1,.1.237v3.111a1.685,1.685,0,0,1-.141.687,1.762,1.762,0,0,1-.379.558,1.8,1.8,0,0,1-.562.376,1.739,1.739,0,0,1-.694.139A1.692,1.692,0,0,1,11.2,77.79Zm-7.063,0a1.849,1.849,0,0,1-.618-.531,1.76,1.76,0,0,1-.607.531,1.7,1.7,0,0,1-.825.2A1.748,1.748,0,0,1,1.4,77.85a1.827,1.827,0,0,1-.563-.376,1.755,1.755,0,0,1-.509-1.245V73.117a.314.314,0,0,1,.1-.237.322.322,0,0,1,.237-.1.326.326,0,0,1,.239.1.314.314,0,0,1,.1.237v3.111a1.062,1.062,0,0,0,.085.423,1.14,1.14,0,0,0,.233.35,1.08,1.08,0,0,0,.346.236,1.058,1.058,0,0,0,.428.086,1.06,1.06,0,0,0,.766-.311,1.13,1.13,0,0,0,.342-.784V73.117a.323.323,0,0,1,.1-.237.347.347,0,0,1,.478,0,.318.318,0,0,1,.1.237v3.111a1.052,1.052,0,0,0,.087.423,1.123,1.123,0,0,0,.231.35,1.089,1.089,0,0,0,.348.236,1.111,1.111,0,0,0,.856,0,1.125,1.125,0,0,0,.591-.586,1.04,1.04,0,0,0,.087-.423V73.117a.323.323,0,0,1,.1-.237.328.328,0,0,1,.24-.1.323.323,0,0,1,.236.1.315.315,0,0,1,.1.237v3.111a1.731,1.731,0,0,1-.141.687,1.765,1.765,0,0,1-.381.558,1.8,1.8,0,0,1-.562.376,1.73,1.73,0,0,1-.695.139A1.681,1.681,0,0,1,4.14,77.79Zm70.4,0a2.622,2.622,0,0,1-.829-.536,2.509,2.509,0,0,1-.564-.815,2.541,2.541,0,0,1-.206-1.031,2.5,2.5,0,0,1,.2-1,2.561,2.561,0,0,1,.552-.816,2.7,2.7,0,0,1,.835-.56,2.917,2.917,0,0,1,1.047-.229,2.4,2.4,0,0,1,.99.209,2.712,2.712,0,0,1,1.4,1.388,2.5,2.5,0,0,1,0,2,2.674,2.674,0,0,1-.558.823,2.612,2.612,0,0,1-1.858.76A2.649,2.649,0,0,1,74.54,77.785Zm.259-4.163a1.941,1.941,0,0,0-1.034,1.029,1.882,1.882,0,0,0-.152.751,1.846,1.846,0,0,0,.152.746A1.952,1.952,0,0,0,74.8,77.173a1.88,1.88,0,0,0,.753.151,1.909,1.909,0,0,0,.757-.151,1.932,1.932,0,0,0,1.041-1.025A1.856,1.856,0,0,0,77.5,75.4a1.9,1.9,0,0,0-.566-1.367,1.963,1.963,0,0,0-2.135-.413Zm-5.32,4.163a2.633,2.633,0,0,1-.828-.536,2.507,2.507,0,0,1-.564-.815,2.57,2.57,0,0,1,.548-2.85,2.7,2.7,0,0,1,.834-.56,2.922,2.922,0,0,1,1.045-.229,2.145,2.145,0,0,1,.6.08,2.933,2.933,0,0,1,.5.194,2.572,2.572,0,0,1,.4.241c.116.085.209.161.282.225a.448.448,0,0,1,.114.2.236.236,0,0,1-.072.26.337.337,0,0,1-.476,0,2.343,2.343,0,0,0-.618-.381,1.949,1.949,0,0,0-2.535,1.036,1.859,1.859,0,0,0-.153.751,1.825,1.825,0,0,0,.153.746,1.946,1.946,0,0,0,.417.612,1.918,1.918,0,0,0,.617.413,1.879,1.879,0,0,0,.754.151,1.909,1.909,0,0,0,.747-.144,1.987,1.987,0,0,0,.618-.4.342.342,0,0,1,.476,0,.3.3,0,0,1,.091.243.387.387,0,0,1-.123.263,2.948,2.948,0,0,1-.265.22,2.476,2.476,0,0,1-.4.23,2.765,2.765,0,0,1-.52.177,2.779,2.779,0,0,1-1.635-.124Zm-6.414,0a2.621,2.621,0,0,1-.829-.536,2.525,2.525,0,0,1-.769-1.847V71.39a.317.317,0,0,1,.1-.238.325.325,0,0,1,.237-.094.327.327,0,0,1,.338.332v2.381A3.6,3.6,0,0,1,63,73.1a2.361,2.361,0,0,1,1.105-.306,2.411,2.411,0,0,1,.991.209,2.771,2.771,0,0,1,.829.564,2.715,2.715,0,0,1,.568.825,2.52,2.52,0,0,1,.006,2,2.7,2.7,0,0,1-.559.823,2.606,2.606,0,0,1-1.857.76A2.653,2.653,0,0,1,63.065,77.785Zm.275-4.17a1.948,1.948,0,0,0-.607.4,2.02,2.02,0,0,0-.42.612,1.934,1.934,0,0,0-.174.772,1.891,1.891,0,0,0,.149.746,1.972,1.972,0,0,0,.418.612,1.946,1.946,0,0,0,.618.413,1.885,1.885,0,0,0,.753.151,1.964,1.964,0,0,0,1.38-.564,1.945,1.945,0,0,0,.417-.612,1.835,1.835,0,0,0,.152-.746,1.87,1.87,0,0,0-.152-.751,1.925,1.925,0,0,0-1.04-1.029,1.946,1.946,0,0,0-.757-.152A1.911,1.911,0,0,0,63.34,73.615Zm-16.853,4.17a2.614,2.614,0,0,1-.829-.536,2.5,2.5,0,0,1-.564-.815A2.552,2.552,0,0,1,44.89,75.4a2.5,2.5,0,0,1,.2-1,2.543,2.543,0,0,1,.553-.816,2.684,2.684,0,0,1,.834-.56,2.917,2.917,0,0,1,1.046-.229,2.4,2.4,0,0,1,.98.2,2.837,2.837,0,0,1,.819.547,2.631,2.631,0,0,1,.8,1.791.294.294,0,0,1-.093.279.363.363,0,0,1-.244.1h-4.2a1.785,1.785,0,0,0,.227.64,1.923,1.923,0,0,0,.427.508,2.014,2.014,0,0,0,.579.339,1.985,1.985,0,0,0,1.431-.022,1.973,1.973,0,0,0,.616-.4.336.336,0,0,1,.24-.1.334.334,0,0,1,.239.57,2.04,2.04,0,0,1-.807.564,2.992,2.992,0,0,1-1.037.165A2.656,2.656,0,0,1,46.488,77.785Zm.336-4.19a2.1,2.1,0,0,0-.575.331,1.826,1.826,0,0,0-.421.5,1.933,1.933,0,0,0-.232.623H49.42a1.905,1.905,0,0,0-.241-.623,1.929,1.929,0,0,0-.426-.5,2.059,2.059,0,0,0-.574-.331,1.911,1.911,0,0,0-1.355,0ZM52.362,65.9a.934.934,0,0,1-.285-.691V63.3a9.868,9.868,0,0,1-2.507,1.986,6.366,6.366,0,0,1-3.172.827,7.718,7.718,0,0,1-2.952-.564,7.57,7.57,0,0,1-2.414-1.563,7.275,7.275,0,0,1-1.642-2.375,7.418,7.418,0,0,1-.6-3,7.31,7.31,0,0,1,.584-2.925,7.414,7.414,0,0,1,1.609-2.375,7.877,7.877,0,0,1,2.432-1.626,8.4,8.4,0,0,1,3.044-.673,7.051,7.051,0,0,1,2.89.61,8.06,8.06,0,0,1,2.414,1.642,7.876,7.876,0,0,1,1.656,2.408,7.08,7.08,0,0,1,.617,2.94V65.21a.934.934,0,0,1-.285.691,1,1,0,0,1-1.388,0ZM44.2,53.424a5.756,5.756,0,0,0-1.8,1.2,5.64,5.64,0,0,0-1.215,1.8,5.51,5.51,0,0,0-.441,2.19,5.4,5.4,0,0,0,.441,2.171A5.67,5.67,0,0,0,44.2,63.774a5.7,5.7,0,0,0,4.338.015,5.758,5.758,0,0,0,1.783-1.171,5.674,5.674,0,0,0,1.231-1.768,6.152,6.152,0,0,0,.52-2.233,5.51,5.51,0,0,0-.441-2.19,5.633,5.633,0,0,0-1.216-1.8,5.7,5.7,0,0,0-4.022-1.64A5.569,5.569,0,0,0,44.2,53.424ZM4.655,65.619a7.625,7.625,0,0,1-2.414-1.566A7.313,7.313,0,0,1,.6,61.679a7.426,7.426,0,0,1-.6-3,7.3,7.3,0,0,1,.585-2.922,7.406,7.406,0,0,1,1.609-2.377,7.853,7.853,0,0,1,2.43-1.627,8.407,8.407,0,0,1,3.045-.671,6.2,6.2,0,0,1,1.752.234,8.486,8.486,0,0,1,1.451.562,8.114,8.114,0,0,1,1.153.7c.336.25.609.468.821.657a1.274,1.274,0,0,1,.329.577.7.7,0,0,1-.2.768,1,1,0,0,1-1.386,0,6.609,6.609,0,0,0-1.8-1.111,5.562,5.562,0,0,0-2.176-.423,5.551,5.551,0,0,0-2.194.438,5.766,5.766,0,0,0-1.8,1.2,5.649,5.649,0,0,0-1.216,1.8,5.531,5.531,0,0,0-.441,2.188A5.408,5.408,0,0,0,2.4,60.85a5.689,5.689,0,0,0,3.016,2.986,5.539,5.539,0,0,0,2.194.438,5.587,5.587,0,0,0,2.176-.423,5.938,5.938,0,0,0,1.8-1.172.994.994,0,0,1,1.386,0,.894.894,0,0,1,.269.7,1.127,1.127,0,0,1-.363.768,6.906,6.906,0,0,1-.772.643,6.781,6.781,0,0,1-1.168.67,8.277,8.277,0,0,1-1.515.516,7.66,7.66,0,0,1-1.814.2A7.706,7.706,0,0,1,4.655,65.619Zm73.858.265a1.513,1.513,0,0,1-.366-.516q-1.323-3.6-2.239-6.064t-1.484-4q-.568-1.532-.82-2.2c-.17-.448-.252-.682-.252-.7a1,1,0,0,1,0-.782.963.963,0,0,1,.5-.562.745.745,0,0,1,.709.047,2.034,2.034,0,0,1,.552.484l4.1,11.065,4.262-11.065a1.309,1.309,0,0,1,.567-.5.82.82,0,0,1,.7,0,.941.941,0,0,1,.505,1.25c-.02.043-.1.257-.237.643s-.389,1.062-.757,2.031-.873,2.293-1.514,3.969-1.47,3.81-2.478,6.394a1.389,1.389,0,0,1-.365.561,1.115,1.115,0,0,1-1.386-.045Zm-8.288-.016a.934.934,0,0,1-.281-.687V51.925a.934.934,0,0,1,.281-.687,1,1,0,0,1,1.389,0,.932.932,0,0,1,.285.687V65.181a.932.932,0,0,1-.285.687,1,1,0,0,1-1.389,0Zm-9.941-.314a7.536,7.536,0,0,1-4.04-4,7.3,7.3,0,0,1-.6-2.938V47.048a.936.936,0,0,1,.284-.688,1,1,0,0,1,1.388,0,.937.937,0,0,1,.285.688v3.845h6.975a1.148,1.148,0,0,1,.807.28.943.943,0,0,1,0,1.377,1.139,1.139,0,0,1-.807.281H57.6v5.785a5.421,5.421,0,0,0,.441,2.171,5.662,5.662,0,0,0,1.216,1.783,5.742,5.742,0,0,0,1.8,1.2,5.524,5.524,0,0,0,2.194.437A5.549,5.549,0,0,0,67.2,62.618a.978.978,0,0,1,.646-.329,1.037,1.037,0,0,1,.743.2,1.137,1.137,0,0,1,.314.625.993.993,0,0,1-.157.72,7.369,7.369,0,0,1-2.463,1.7,7.584,7.584,0,0,1-3.03.61A7.486,7.486,0,0,1,60.283,65.554Zm-45.26.314a.926.926,0,0,1-.284-.687V58.491a7.245,7.245,0,0,1,.583-2.892,7.624,7.624,0,0,1,6.9-4.642,1.127,1.127,0,0,1,.8.281.938.938,0,0,1,0,1.374,1.122,1.122,0,0,1-.8.283,5.557,5.557,0,0,0-2.147.485,5.9,5.9,0,0,0-1.767,1.2,5.381,5.381,0,0,0-1.183,1.765,5.461,5.461,0,0,0-.426,2.142v6.689a.936.936,0,0,1-.284.687.956.956,0,0,1-.695.281A.945.945,0,0,1,15.023,65.868ZM90,65.554a7.535,7.535,0,0,1-2.413-1.563,7.246,7.246,0,0,1-1.643-2.375,7.429,7.429,0,0,1-.6-3,7.31,7.31,0,0,1,.584-2.925,7.4,7.4,0,0,1,1.61-2.375,7.823,7.823,0,0,1,2.43-1.626,8.4,8.4,0,0,1,3.045-.673,6.97,6.97,0,0,1,2.855.595,8.235,8.235,0,0,1,2.385,1.6,7.612,7.612,0,0,1,2.336,5.22.858.858,0,0,1-.27.812,1.08,1.08,0,0,1-.71.281H87.364a5.249,5.249,0,0,0,.663,1.86,5.632,5.632,0,0,0,1.245,1.486,5.787,5.787,0,0,0,1.689.984,5.55,5.55,0,0,0,1.991.36,5.617,5.617,0,0,0,2.177-.422,5.9,5.9,0,0,0,1.8-1.171,1,1,0,0,1,1.392,0,.978.978,0,0,1,0,1.374,5.91,5.91,0,0,1-2.352,1.641,8.625,8.625,0,0,1-3.014.485A7.725,7.725,0,0,1,90,65.554Zm.979-12.207a6.032,6.032,0,0,0-1.672.971,5.3,5.3,0,0,0-1.231,1.453,5.787,5.787,0,0,0-.679,1.812H98.536a5.515,5.515,0,0,0-.693-1.812A5.589,5.589,0,0,0,96.6,54.317a6,6,0,0,0-1.676-.971,5.614,5.614,0,0,0-3.944,0ZM26.969,65.554a7.585,7.585,0,0,1-2.414-1.563,7.3,7.3,0,0,1-1.641-2.375,7.428,7.428,0,0,1-.6-3,7.321,7.321,0,0,1,.583-2.925,7.407,7.407,0,0,1,1.61-2.375,7.861,7.861,0,0,1,2.428-1.626,8.429,8.429,0,0,1,3.047-.673,6.988,6.988,0,0,1,2.856.595,8.237,8.237,0,0,1,2.384,1.6,7.645,7.645,0,0,1,2.334,5.22.863.863,0,0,1-.268.812,1.082,1.082,0,0,1-.71.281H24.334A5.236,5.236,0,0,0,25,61.381a5.647,5.647,0,0,0,1.246,1.486,5.739,5.739,0,0,0,1.69.984,5.534,5.534,0,0,0,1.987.36,5.61,5.61,0,0,0,2.179-.422,5.909,5.909,0,0,0,1.8-1.171.994.994,0,0,1,1.39,0,.976.976,0,0,1,0,1.374,5.916,5.916,0,0,1-2.353,1.641,8.621,8.621,0,0,1-3.014.485A7.717,7.717,0,0,1,26.969,65.554Zm.979-12.207a6.056,6.056,0,0,0-1.673.971,5.314,5.314,0,0,0-1.23,1.453,5.772,5.772,0,0,0-.68,1.812H35.507a5.645,5.645,0,0,0-1.941-3.266,6.046,6.046,0,0,0-1.673-.971,5.618,5.618,0,0,0-3.945,0Zm42.058-4.828a1.27,1.27,0,0,1,0-1.814,1.3,1.3,0,0,1,1.83,0,1.28,1.28,0,0,1,0,1.814,1.3,1.3,0,0,1-1.83,0ZM252.261,43.11a10.519,10.519,0,0,1-4.488-.977,12.588,12.588,0,0,1-3.708-2.593,11.989,11.989,0,0,1-2.516-3.773,11.388,11.388,0,0,1-.918-4.511V4.379a4.77,4.77,0,0,1,1.431-2.9A4.4,4.4,0,0,1,245.121.2a4.163,4.163,0,0,1,3.091,1.278,4.875,4.875,0,0,1,1.4,3.168V31.255a3.222,3.222,0,0,0,.885,2.29,2.934,2.934,0,0,0,2.242.942,4.445,4.445,0,0,1,3.1,1.214,4.093,4.093,0,0,1,.269,5.894,4.717,4.717,0,0,1-2.889,1.515ZM183.3,41.931a4.618,4.618,0,0,1-1.362-3.133V26.337a15.025,15.025,0,0,1,1.4-6.1,16.287,16.287,0,0,1,3.534-4.984,16.839,16.839,0,0,1,5.168-3.369,18.068,18.068,0,0,1,6.29-1.381,4.261,4.261,0,0,1,3.165,1.28,4.786,4.786,0,0,1,1.393,3.1,4.093,4.093,0,0,1-1.292,3.066,4.664,4.664,0,0,1-3.195,1.314,7.468,7.468,0,0,0-5.307,2.155,7.794,7.794,0,0,0-1.631,2.393,7.3,7.3,0,0,0-.614,3V39.068a4.236,4.236,0,0,1-4.487,4.042A4.238,4.238,0,0,1,183.3,41.931Zm-27.206-.067a17.273,17.273,0,0,1-5.269-3.57,16.858,16.858,0,0,1-3.606-5.288,15.487,15.487,0,0,1-1.325-6.264,14.875,14.875,0,0,1,1.325-6.131,17.31,17.31,0,0,1,8.81-8.823,15.357,15.357,0,0,1,12.58,0,17.807,17.807,0,0,1,8.909,8.791,14.452,14.452,0,0,1,1.362,6.163,3.284,3.284,0,0,1-1.328,2.761,4.988,4.988,0,0,1-3.3.944H156.161a6.9,6.9,0,0,0,6.193,3.838,7.1,7.1,0,0,0,1.832-.2,8.179,8.179,0,0,0,1.329-.471,12.287,12.287,0,0,1,1.156-.47,3.978,3.978,0,0,1,1.325-.2,4.6,4.6,0,0,1,4.048,2.661,4.3,4.3,0,0,1,.338,2.392,4.212,4.212,0,0,1-1.187,2.357A10.607,10.607,0,0,1,167.11,42.4a21.351,21.351,0,0,1-4.757.64q-.306.013-.609.013A13.906,13.906,0,0,1,156.094,41.864Zm2.756-21.825a7.176,7.176,0,0,0-2.689,2.932H168.54a7.058,7.058,0,0,0-2.72-2.932,7.639,7.639,0,0,0-6.969,0ZM270.284,41.729a17.558,17.558,0,0,1-5.271-3.537,17.179,17.179,0,0,1-3.64-5.187,14.858,14.858,0,0,1-1.359-6.264V4.176a3.354,3.354,0,0,1,.409-1.582,5.011,5.011,0,0,1,1.02-1.347,4.794,4.794,0,0,1,1.395-.909,3.3,3.3,0,0,1,1.594-.269,3.457,3.457,0,0,1,1.7.3,5.424,5.424,0,0,1,1.464.978,4.115,4.115,0,0,1,.986,1.448,4.612,4.612,0,0,1,.336,1.717v7.746a15.861,15.861,0,0,1,4.931-1.582,17.374,17.374,0,0,1,5.068,0,17.63,17.63,0,0,1,4.9,1.482,17.288,17.288,0,0,1,4.42,3,16.939,16.939,0,0,1,3.567,5.222A16.085,16.085,0,0,1,293,26.741a15.3,15.3,0,0,1-1.328,6.333,16.983,16.983,0,0,1-3.57,5.187,16.673,16.673,0,0,1-5.238,3.5,15.909,15.909,0,0,1-6.325,1.28A15.4,15.4,0,0,1,270.284,41.729Zm3.333-21.892a8.616,8.616,0,0,0-2.416,1.684,7.868,7.868,0,0,0-1.666,2.424,6.87,6.87,0,0,0-.613,2.8,7.176,7.176,0,0,0,.613,2.932,7.442,7.442,0,0,0,1.666,2.389,8.375,8.375,0,0,0,2.416,1.616,7.269,7.269,0,0,0,5.812,0,8.248,8.248,0,0,0,2.449-1.616,7.453,7.453,0,0,0,1.666-2.389,7.284,7.284,0,0,0,0-5.861,7.467,7.467,0,0,0-1.666-2.393A8.274,8.274,0,0,0,279.43,19.8a7.166,7.166,0,0,0-2.89-.606A6.781,6.781,0,0,0,273.618,19.837Zm-45.3,21.051a4.225,4.225,0,0,0-.611.3c-.182.113-.363.213-.543.3a18.248,18.248,0,0,1-3.331,1.145,16.76,16.76,0,0,1-3.742.4,15.824,15.824,0,0,1-9.114-2.728,16.864,16.864,0,0,1-5.986-7.04,17.644,17.644,0,0,1-1.053-3.165,15.267,15.267,0,0,1,0-6.735,17.8,17.8,0,0,1,1.053-3.166,16.559,16.559,0,0,1,5.986-7.073,15.974,15.974,0,0,1,9.114-2.695h.987a6.644,6.644,0,0,1,.917.067,16.012,16.012,0,0,1,5.746,1.752,16.213,16.213,0,0,1,4.628,3.6,17.068,17.068,0,0,1,3.058,4.985,15.713,15.713,0,0,1,1.122,5.895V38.664a4.1,4.1,0,0,1-1.359,3.1,4.385,4.385,0,0,1-6.872-.874ZM217.169,19.8a8.027,8.027,0,0,0-2.415,1.652,7.857,7.857,0,0,0-1.667,2.422,7.025,7.025,0,0,0-.611,2.864,6.82,6.82,0,0,0,.646,2.932,7.923,7.923,0,0,0,1.7,2.389,8.366,8.366,0,0,0,2.414,1.616,6.787,6.787,0,0,0,2.79.606,7.728,7.728,0,0,0,2.958-.571,7.372,7.372,0,0,0,2.412-1.582,7.759,7.759,0,0,0,1.635-2.393,7.329,7.329,0,0,0,.61-3,7.024,7.024,0,0,0-.61-2.864,7.91,7.91,0,0,0-4.114-4.074,7.181,7.181,0,0,0-2.89-.606A6.933,6.933,0,0,0,217.169,19.8Zm-92.563,22.06a16.808,16.808,0,0,1-5.509-3.369,16.012,16.012,0,0,1-3.773-5.254,17.04,17.04,0,0,1-1.464-6.838V4.243a3.85,3.85,0,0,1,1.4-3.031A4.759,4.759,0,0,1,118.484,0a4.3,4.3,0,0,1,3.2,1.312A5.013,5.013,0,0,1,123.11,4.58V9.97h11.7A4.116,4.116,0,0,1,138,11.316a4.561,4.561,0,0,1,1.226,3.166,4.35,4.35,0,0,1-1.362,3.131A4.2,4.2,0,0,1,134.809,19h-11.7V26.4a7.525,7.525,0,0,0,.577,2.931,8.055,8.055,0,0,0,1.6,2.458,7.248,7.248,0,0,0,2.414,1.685,7.521,7.521,0,0,0,3.028.605,8.615,8.615,0,0,0,3.024-.471,6.134,6.134,0,0,0,2.208-1.415,4.947,4.947,0,0,1,3.164-1.245,4.612,4.612,0,0,1,3.232,1.314,4.03,4.03,0,0,1,1.02,1.38,4.5,4.5,0,0,1,.373,1.617,4.609,4.609,0,0,1-.237,1.65,3.591,3.591,0,0,1-.885,1.414,17.252,17.252,0,0,1-5.236,3.5,15.516,15.516,0,0,1-6.122,1.212A18.734,18.734,0,0,1,124.606,41.864ZM86.724,43.042a4.323,4.323,0,0,1-3.06-1.212A3.987,3.987,0,0,1,82.37,38.8,4.52,4.52,0,0,1,83.6,35.732a4.077,4.077,0,0,1,2.991-1.448H99.1c1.227,0,1.837-.537,1.837-1.616A1.615,1.615,0,0,0,99.1,30.85h-7.48a8.939,8.939,0,0,1-3.844-.842,9.58,9.58,0,0,1-3.127-2.323,11.7,11.7,0,0,1-2.077-3.233,9.506,9.506,0,0,1-.747-3.771,10.132,10.132,0,0,1,.783-3.908,10.368,10.368,0,0,1,5.339-5.557,10.3,10.3,0,0,1,4.013-.909h12.105a3.928,3.928,0,0,1,3.063,1.38,4.373,4.373,0,0,1,1.223,2.932,4.178,4.178,0,0,1-1.327,3.063A4.109,4.109,0,0,1,104.067,19h-11.7a2.146,2.146,0,0,0-1.4.47,1.644,1.644,0,0,0-.577,1.347,1.821,1.821,0,0,0,.577,1.448,2.044,2.044,0,0,0,1.4.5h7.688a8.851,8.851,0,0,1,3.908.876,10.337,10.337,0,0,1,3.13,2.324,12.029,12.029,0,0,1,2.074,3.064,8.581,8.581,0,0,1,.749,3.638,9.644,9.644,0,0,1-.781,4.176,9.92,9.92,0,0,1-2.279,3.3,10.629,10.629,0,0,1-3.334,2.122,11.239,11.239,0,0,1-4.287.775ZM69.652,40.887a4.053,4.053,0,0,0-.61.3c-.182.113-.363.213-.545.3a18.1,18.1,0,0,1-3.333,1.145,16.72,16.72,0,0,1-3.74.4,15.827,15.827,0,0,1-9.114-2.728,16.861,16.861,0,0,1-5.985-7.04,17.815,17.815,0,0,1-1.055-3.165,15.347,15.347,0,0,1,0-6.735,17.975,17.975,0,0,1,1.055-3.166,16.556,16.556,0,0,1,5.985-7.073,15.977,15.977,0,0,1,9.114-2.695h.986a6.585,6.585,0,0,1,.917.067,16.025,16.025,0,0,1,5.748,1.752,16.2,16.2,0,0,1,4.624,3.6,17.018,17.018,0,0,1,3.061,4.985,15.688,15.688,0,0,1,1.123,5.895V38.664a4.088,4.088,0,0,1-1.362,3.1,4.383,4.383,0,0,1-6.87-.874ZM58.5,19.8a8.018,8.018,0,0,0-2.413,1.652,7.8,7.8,0,0,0-1.667,2.422,7.006,7.006,0,0,0-.614,2.864,6.822,6.822,0,0,0,.648,2.932,7.9,7.9,0,0,0,1.7,2.389,8.39,8.39,0,0,0,2.414,1.616,6.79,6.79,0,0,0,2.789.606,7.72,7.72,0,0,0,2.958-.571,7.37,7.37,0,0,0,2.414-1.582,7.794,7.794,0,0,0,1.635-2.393,7.329,7.329,0,0,0,.61-3,7.024,7.024,0,0,0-.61-2.864A7.931,7.931,0,0,0,64.247,19.8a7.178,7.178,0,0,0-2.891-.606A6.936,6.936,0,0,0,58.5,19.8ZM33.438,41.729a4.177,4.177,0,0,1-1.325-3.065V22.3a2.866,2.866,0,0,0-.917-2.156,3.182,3.182,0,0,0-2.28-.876,3.405,3.405,0,0,0-2.142.774,2.7,2.7,0,0,0-.988,2.259V38.664a4.142,4.142,0,0,1-1.325,3.1,4.394,4.394,0,0,1-3.163,1.28,4.551,4.551,0,0,1-3.061-1.179A3.647,3.647,0,0,1,16.878,39V22.3a3.006,3.006,0,0,0-1.021-2.19,3.141,3.141,0,0,0-4.317.034,3.168,3.168,0,0,0-.987,2.223v16.7a4.22,4.22,0,0,1-1.393,2.8,4.276,4.276,0,0,1-3.028,1.179,4.587,4.587,0,0,1-1.767-.336,4.407,4.407,0,0,1-1.429-.944,4.832,4.832,0,0,1-.986-1.413,3.327,3.327,0,0,1-.3-1.684V22.092A10.827,10.827,0,0,1,2.6,17.613a11.891,11.891,0,0,1,2.584-3.7,12.47,12.47,0,0,1,3.842-2.525,11.9,11.9,0,0,1,4.726-.944,12.674,12.674,0,0,1,3.98.639,11.054,11.054,0,0,1,3.57,1.988,11.791,11.791,0,0,1,7.618-2.627,11.968,11.968,0,0,1,4.591.911,12.754,12.754,0,0,1,3.876,2.458,11.542,11.542,0,0,1,2.652,3.7,10.885,10.885,0,0,1,.986,4.579V39a3.692,3.692,0,0,1-1.359,2.83,4.57,4.57,0,0,1-3.128,1.212A4.267,4.267,0,0,1,33.438,41.729Z"/>
      </g>
    </g>
  </g>
</svg>
